<svg width="80" height="80" viewBox="0 0 80 80" fill="none" xmlns="http://www.w3.org/2000/svg">
<path d="M51.6227 29.054C51.6227 32.4771 50.0635 35.5356 47.6165 37.559C51.0677 39.4695 53.1287 42.8496 53.5989 43.6822C55.3758 42.5047 57.5058 41.8178 59.7975 41.8178C63.1673 41.8178 66.1883 43.3025 68.2486 45.6514C66.8456 39.4377 63.1125 34.5053 58.3514 32.5297C61.3597 30.8857 63.401 27.6927 63.401 24.0226C63.401 18.6717 59.0629 14.334 53.7124 14.334C50.1564 14.334 47.0497 16.2508 45.3645 19.1065C49.0667 20.8856 51.6227 24.6711 51.6227 29.054Z" fill="url(#paint0_linear_496_1856)"/>
<path d="M25.425 43.8717C25.425 43.8717 27.5668 39.7253 31.5452 37.5399C29.1109 35.5166 27.5608 32.4665 27.5608 29.0537C27.5608 24.6708 30.117 20.8853 33.8196 19.1059C32.1341 16.2502 29.0274 14.3334 25.4717 14.3334C20.1205 14.3334 15.7831 18.6711 15.7831 24.022C15.7831 27.6921 17.8237 30.8851 20.8326 32.5291C14.7419 35.0566 10.3333 42.4224 10.3333 51.1197C10.3333 55.9452 16.3941 58.6096 23.0922 59.1173C20.4512 52.5594 25.425 43.8717 25.425 43.8717Z" fill="url(#paint1_linear_496_1856)"/>
<path d="M47.5567 54.0577C47.5567 50.5613 49.1529 47.4383 51.6565 45.3767C49.7999 42.2219 47.2188 39.8155 44.2308 38.5756C47.2394 36.9316 49.2804 33.7386 49.2804 30.0685C49.2804 24.7176 44.9426 20.3799 39.5918 20.3799C34.241 20.3799 29.9032 24.7176 29.9032 30.0685C29.9032 33.7386 31.9442 36.9316 34.9528 38.5756C28.862 41.1031 24.4534 48.4689 24.4534 57.1662C24.4534 65.7146 43.4711 67.4861 51.361 62.4834C49.0291 60.4237 47.5567 57.4136 47.5567 54.0577Z" fill="url(#paint2_linear_496_1856)"/>
<path d="M60 44C54.477 44 50 48.477 50 54C50 59.5224 54.477 64 60 64C65.523 64 70 59.5224 70 54C70.0003 48.477 65.5233 44 60 44Z" fill="url(#paint3_linear_496_1856)"/>
<path d="M64.3814 52.6595H61.3406V49.6186C61.3406 49.2768 61.0635 49 60.722 49H59.2786C58.9368 49 58.66 49.2768 58.66 49.6186V52.6595H55.6186C55.2771 52.6595 55 52.9367 55 53.2781V54.7219C55 55.0633 55.2771 55.3405 55.6186 55.3405H58.66V58.3814C58.66 58.7232 58.9368 59 59.2786 59H60.722C61.0635 59 61.3406 58.7232 61.3406 58.3814V55.3405H64.3814C64.7232 55.3405 65 55.0633 65 54.7219V53.2781C65 52.9367 64.7232 52.6595 64.3814 52.6595Z" fill="white"/>
<defs>
<linearGradient id="paint0_linear_496_1856" x1="45.3645" y1="45.6514" x2="55.9429" y2="10.6182" gradientUnits="userSpaceOnUse">
<stop stop-color="#EA6317"/>
<stop offset="1" stop-color="#FCC400"/>
</linearGradient>
<linearGradient id="paint1_linear_496_1856" x1="10.3333" y1="59.1173" x2="29.8733" y2="12.6731" gradientUnits="userSpaceOnUse">
<stop stop-color="#EA6317"/>
<stop offset="1" stop-color="#FCC400"/>
</linearGradient>
<linearGradient id="paint2_linear_496_1856" x1="24.4534" y1="65.2541" x2="42.0578" y2="16.8863" gradientUnits="userSpaceOnUse">
<stop stop-color="#EA6317"/>
<stop offset="1" stop-color="#FCC400"/>
</linearGradient>
<linearGradient id="paint3_linear_496_1856" x1="50" y1="64" x2="55.1364" y2="40.7205" gradientUnits="userSpaceOnUse">
<stop stop-color="#EA6317"/>
<stop offset="1" stop-color="#FCC400"/>
</linearGradient>
</defs>
</svg>
