<svg width="16" height="16" viewBox="0 0 16 16" fill="none" xmlns="http://www.w3.org/2000/svg">
<path d="M5 9.33331H3.66667V8.66665H5V9.33331ZM11 9.33331H12.3333V8.66665H11V9.33331ZM7.66667 13.3333H8.33333V12H7.66667V13.3333ZM4.2 12L4.66667 12.4666L5.6 11.5333L5.13333 11.0666L4.2 12ZM9.8 11.5333L10.7333 12.4666L11.2 12L10.2667 11.0666L9.8 11.5333ZM4.2 5.99998L5.13333 6.93331L5.6 6.46665L4.66667 5.53331L4.2 5.99998ZM8.33333 4.66665V8.99998L11.6 6.39998C10.9333 5.73331 10 4.66665 8.33333 4.66665ZM8.33333 2.66665H8.66667C9.06667 2.66665 9.33333 2.39998 9.33333 1.99998C9.33333 1.59998 9.06667 1.33331 8.66667 1.33331H6.66667C6.26667 1.33331 6 1.59998 6 1.99998C6 2.39998 6.26667 2.66665 6.66667 2.66665H7.66667V3.33331H8H8.33333V2.66665ZM12.3333 5.73331C13 6.66665 13.4 7.79998 13.4 8.99998C13.4 12.1333 10.8667 14.6666 7.73333 14.6666C4.6 14.6666 2.06667 12.1333 2.06667 8.99998C2.06667 7.79998 2.46667 6.66665 3.13333 5.73331L2 4.66665L3.33333 3.33331L4.4 4.39998C5.33333 3.73331 6.46667 3.33331 7.66667 3.33331C8.86667 3.33331 10 3.73331 10.9333 4.39998L12 3.33331L13.3333 4.66665L12.3333 5.73331ZM12.6667 8.99998C12.6667 6.26665 10.4667 3.99998 7.66667 3.99998C4.86667 3.99998 2.66667 6.26665 2.66667 8.99998C2.66667 11.7333 4.93333 14 7.66667 14C10.4 14 12.6667 11.7333 12.6667 8.99998Z" fill="url(#paint0_linear_0_15)"/>
<defs>
<linearGradient id="paint0_linear_0_15" x1="2" y1="14.6666" x2="5.93775" y2="-0.592396" gradientUnits="userSpaceOnUse">
<stop stop-color="#FC9358"/>
<stop offset="1" stop-color="#FDD368"/>
</linearGradient>
</defs>
</svg>
