<svg width="16" height="16" viewBox="0 0 16 16" fill="none" xmlns="http://www.w3.org/2000/svg">
<path d="M8 2C11.3333 2 14 4.73333 14 8C14 8.06667 14 8.13333 14 8.2C12.4 8.13333 10.5333 5.86667 10 5V4.93333C9 3.86667 7.93333 3.4 6.93333 3.53333C5.26667 3.66667 4.33333 5.06667 4.26667 5.13333C3.46667 6.2 3.2 7.26667 3.4 8.33333C3.86667 10.2667 6.06667 11.2667 6.13333 11.3333C7.93333 12.0667 8.93333 13.4 9.26667 13.9333C8.86667 14 8.46667 14.0667 8 14.0667C4.66667 14.0667 2 11.4 2 8.06667C2 4.73333 4.66667 2 8 2ZM9.2 5.6C8.46667 4.73333 7.66667 4.4 6.93333 4.46667C5.8 4.53333 5.06667 5.66667 5.06667 5.66667C4.4 6.53333 4.13333 7.33333 4.33333 8.06667C4.66667 9.53333 6.53333 10.4 6.53333 10.4C8.8 11.3333 9.93333 13.0667 10.2 13.6C12.0667 12.8667 13.5333 11.2 13.8667 9.13333C11.6 9 9.46667 6 9.2 5.6Z" fill="url(#paint0_linear_0_7)"/>
<defs>
<linearGradient id="paint0_linear_0_7" x1="2" y1="14.0667" x2="5.11458" y2="0.0286179" gradientUnits="userSpaceOnUse">
<stop stop-color="#FC9358"/>
<stop offset="1" stop-color="#FDD368"/>
</linearGradient>
</defs>
</svg>
