<svg width="16" height="16" viewBox="0 0 16 16" fill="none" xmlns="http://www.w3.org/2000/svg">
<path d="M9.40423 7.53336C9.60423 7.53336 9.73757 7.4667 9.8709 7.33336L10.1376 6.93336L10.6042 6.33336L11.2709 5.40003L11.8042 4.53336V4.4667C11.9376 4.20003 12.1376 3.80003 11.8042 3.60003C11.5376 3.4667 11.2709 3.40003 11.0709 3.60003L8.6709 7.00003C8.73757 7.2667 9.13757 7.53336 9.40423 7.53336ZM10.2709 7.8667V7.93336C10.2042 8.33336 10.7376 8.4667 11.0042 8.40003C11.4042 8.33336 11.8042 7.93336 12.1376 7.53336C12.3376 7.2667 13.1376 6.20003 12.8709 5.60003C12.6709 5.2667 12.2709 5.13336 12.0709 5.33336L10.2709 7.8667ZM8.2709 1.33336C7.40423 1.20003 6.93757 2.2667 6.53757 2.93336L7.8709 3.53336C8.40423 2.8667 9.4709 1.73336 8.2709 1.33336ZM8.4709 3.80003C8.60423 3.8667 8.6709 3.93336 8.73757 3.93336L9.00423 4.00003L9.33757 4.13336L9.2709 4.33336C9.00423 5.0667 8.33757 5.8667 7.40423 5.60003C7.2709 6.0667 7.6709 6.0667 7.93757 6.20003C8.13757 6.2667 8.33757 6.4667 8.73757 6.00003L9.00423 5.6667L9.0709 5.60003L9.00423 5.6667L9.6709 4.73336L10.4709 3.53336C10.6042 3.33336 10.6709 3.20003 10.7376 3.0667C10.9376 2.73336 10.9376 2.40003 10.4709 2.13336C10.2042 2.00003 9.80423 1.93336 9.53757 2.2667L8.60423 3.60003L8.4709 3.80003ZM10.8042 8.8667C10.2042 8.80003 9.8709 8.73336 9.80423 8.00003C9.53757 8.0667 8.8709 8.13336 8.60423 7.60003C8.6709 8.00003 8.93757 10.0667 8.60423 10.1334C8.13757 10.1334 8.20423 8.8667 8.20423 8.60003C8.20423 7.20003 7.6709 6.4667 6.20423 6.00003C6.40423 5.73336 6.40423 5.6667 6.8709 5.13336C7.6709 5.4667 8.2709 5.13336 8.60423 4.4667L8.2709 4.33336L7.60423 4.00003L6.53757 3.53336L5.93757 3.2667C5.8709 3.2667 5.80423 3.2667 5.73757 3.20003C5.4709 3.20003 4.4709 4.73336 4.20423 5.0667C3.80423 5.60003 3.33757 6.40003 3.33757 6.8667C3.2709 7.60003 4.00423 8.40003 4.40423 9.0667C4.80423 9.73336 5.4709 10.5334 5.53757 11.2C5.73757 12.4 5.6709 13.3334 5.53757 14.6667H10.2709C10.2042 13.7334 10.0709 12.6 10.2709 12C10.4709 11.4667 10.7376 11.2 11.3376 10.8667C11.7376 10.6667 11.9376 10.0667 12.0709 9.60003C12.2042 9.00003 12.2042 9.00003 12.4042 7.93336C12.0042 8.40003 11.6042 8.93336 10.8042 8.8667Z" fill="url(#paint0_linear_0_17)"/>
<defs>
<linearGradient id="paint0_linear_0_17" x1="3.33331" y1="14.6667" x2="7.90314" y2="-0.219586" gradientUnits="userSpaceOnUse">
<stop stop-color="#FC9358"/>
<stop offset="1" stop-color="#FDD368"/>
</linearGradient>
</defs>
</svg>
