<svg width="16" height="16" viewBox="0 0 16 16" fill="none" xmlns="http://www.w3.org/2000/svg">
<path d="M11.3333 8.86668C11.2666 8.86668 11.2 8.86668 11.2 8.86668C11 8.93334 10.8666 9.00001 10.6666 9.06668C10.6 9.06668 10.5333 9.20001 10.5333 9.26668C10.5333 9.40001 10.6 9.60001 10.6666 9.73334C10.8666 10.1333 11.1333 10.5333 11.3333 10.8667C11.4 11 11.4666 11.0667 11.5333 11.1333C11.4666 11.2667 11.4 11.3333 11.3333 11.4667C11.0666 11.8667 10.7333 12.0667 10.3333 12.0667C10.0666 12.0667 9.79998 12.0667 9.53331 12C8.99998 11.8667 8.46665 11.9333 7.99998 12.1333C7.33331 12.3333 6.79998 12.6667 6.26665 13.1333C5.66665 13.6 5.06665 14.0667 4.46665 14.5333C4.39998 14.6 4.26665 14.6667 4.19998 14.7333C4.26665 14.4667 4.39998 14.2667 4.46665 14C4.79998 12.9333 5.06665 11.9333 5.26665 10.8667C5.19998 10.6667 5.26665 10.6667 5.33331 10.6667C5.79998 10.6 6.26665 10.4667 6.66665 10.2C6.93331 10 7.13331 9.73334 7.19998 9.40001V9.33334C6.46665 9.40001 5.73331 9.40001 4.99998 9.46668C4.93331 9.73334 4.93331 10.0667 4.86665 10.3333C4.86665 10.4 4.86665 10.4 4.79998 10.4667C4.53331 10.7333 4.13331 11.0667 3.79998 11.3333C3.79998 11.3333 3.79998 11.3333 3.73331 11.3333C3.79998 11 3.86665 10.6 3.99998 10.2667C4.26665 9.33334 4.59998 8.46668 5.06665 7.66668C5.46665 7.06668 5.93331 6.53334 6.59998 6.20001C7.86665 5.53334 9.93331 5.73334 10.9333 7.80001C11.1333 8.13334 11.2666 8.60001 11.3333 8.86668ZM14.6 12.2L14.4666 12.0667C14.4 11.9333 14.4 11.8667 14.3333 11.7333C14.2 11.1333 14.2 10.5333 14.2666 9.93334C14.3333 9.26668 14.4 8.53334 14.2666 7.86668C14.2666 7.66668 14.2 7.53334 14.2 7.33334L12.9333 7.53334V7.26668C12.9333 7.26668 12.9333 7.26668 12.9333 7.20001L12.8666 6.86668L14.0666 6.66668C13.7333 5.13334 13.1333 3.73334 11.9333 2.73334L11.0666 4.66668L10.5333 4.40001L11.5333 2.40001C10.4 1.53334 7.86665 1.33334 7.86665 1.33334V4.00001V4.06668L7.46665 4.00001H7.19998V1.40001C6.53331 1.46668 5.99998 1.53334 5.39998 1.73334C4.73331 1.93334 4.19998 2.40001 3.66665 2.86668L4.86665 4.66668L4.59998 4.86668L4.39998 5.00001L3.19998 3.20001C2.53331 3.80001 1.86665 4.40001 1.33331 5.20001C1.99998 5.26668 2.53331 5.46668 3.06665 5.80001C3.59998 6.13334 4.06665 6.53334 4.39998 7.06668C4.46665 7.00001 4.53331 6.93334 4.53331 6.93334C4.86665 6.66668 5.19998 6.40001 5.59998 6.13334C5.99998 5.80001 6.46665 5.60001 6.93331 5.46668C7.26665 5.33334 7.66665 5.33334 8.06665 5.33334C8.79998 5.33334 9.53331 5.46668 10.1333 5.93334C10.5333 6.26668 10.8666 6.66668 11.1333 7.06668C11.4666 7.60001 11.6666 8.20001 11.8666 8.80001C11.9333 9.00001 11.9333 9.26668 12.0666 9.46668C12.4666 10.4667 13.0666 11.4 13.7333 12.2667C13.8666 12.4 13.9333 12.5333 14.0666 12.6C14.2666 12.7333 14.6 12.6 14.7333 12.4C14.7333 12.2667 14.6666 12.2 14.6 12.2Z" fill="url(#paint0_linear_0_5)"/>
<defs>
<linearGradient id="paint0_linear_0_5" x1="1.33331" y1="14.7333" x2="4.77472" y2="-0.863934" gradientUnits="userSpaceOnUse">
<stop stop-color="#FC9358"/>
<stop offset="1" stop-color="#FDD368"/>
</linearGradient>
</defs>
</svg>
