<svg width="160" height="100" viewBox="0 0 160 100" fill="none" xmlns="http://www.w3.org/2000/svg">
<g id="Bitcoin" clip-path="url(#clip0_485_6754)">
<g id="Bitcoin_2">
<rect id="Rectangle" width="160" height="100" fill="#F7931A"/>
<g id="Group">
<g id="Group_2">
<path id="Vector" d="M45.6618 71.6483C46.6223 71.6483 47.4522 71.8164 48.1496 72.1465C48.8504 72.4798 49.4285 72.9287 49.8924 73.4934C50.3499 74.0609 50.6904 74.7242 50.9103 75.4845C51.1287 76.2468 51.2383 77.0663 51.2383 77.9437C51.2383 79.2913 50.9855 80.5644 50.475 81.7646C49.9645 82.9665 49.272 84.0091 48.391 84.8983C47.5107 85.7865 46.4713 86.4867 45.2727 87.004C44.076 87.5216 42.7749 87.7805 41.3779 87.7805C41.1972 87.7805 40.8796 87.7754 40.431 87.7664C39.9823 87.7573 39.4667 87.7121 38.8892 87.6359C38.3081 87.5567 37.6936 87.4396 37.0447 87.2827C36.3962 87.1287 35.7802 86.9129 35.2002 86.6389L40.3869 65.3559L45.0325 64.6528L43.1754 72.2054C43.5729 72.0304 43.9734 71.8949 44.3732 71.7962C44.7734 71.699 45.2028 71.6483 45.6618 71.6483ZM41.765 84.1815C42.4647 84.1815 43.1239 84.0134 43.7432 83.6834C44.3643 83.353 44.9003 82.9069 45.3493 82.3513C45.7984 81.7931 46.1537 81.1645 46.4128 80.4621C46.6719 79.7598 46.803 79.027 46.803 78.2647C46.803 77.328 46.6427 76.5975 46.3232 76.0693C46.0038 75.5434 45.4126 75.2788 44.5542 75.2788C44.2729 75.2788 43.9105 75.3312 43.4611 75.4248C43.0103 75.5242 42.6068 75.7306 42.2451 76.0411L40.2677 84.0618C40.3869 84.0824 40.4924 84.102 40.5824 84.1204C40.6705 84.1403 40.7678 84.1544 40.8648 84.1641C40.9673 84.1754 41.0847 84.1811 41.2265 84.1811C41.3682 84.1811 41.5455 84.1815 41.765 84.1815Z" fill="white"/>
<path id="Vector_2" d="M56.0558 87.3744H51.6187L55.3658 71.9761H59.8333L56.0558 87.3744ZM58.215 70.0999C57.5957 70.0999 57.0341 69.9199 56.5359 69.5591C56.0336 69.2006 55.7848 68.6486 55.7848 67.9046C55.7848 67.4954 55.87 67.1115 56.0388 66.7493C56.2102 66.3878 56.4341 66.0766 56.7147 65.812C56.9949 65.5495 57.3195 65.3399 57.6882 65.1819C58.0591 65.0264 58.4537 64.9487 58.8742 64.9487C59.4931 64.9487 60.0517 65.1288 60.5518 65.4895C61.05 65.8521 61.3007 66.4041 61.3007 67.144C61.3007 67.5547 61.2159 67.94 61.0456 68.3015C60.8764 68.663 60.6525 68.9743 60.3719 69.2389C60.0939 69.5017 59.7663 69.7106 59.3984 69.8671C59.0271 70.0251 58.634 70.0999 58.215 70.0999Z" fill="white"/>
<path id="Vector_3" d="M63.7218 68.1391L68.3692 67.436L67.228 71.9749H72.2052L71.3065 75.5457H66.3592L65.0414 80.9318C64.92 81.3808 64.8512 81.8001 64.8319 82.1898C64.8101 82.5813 64.8608 82.9175 64.9807 83.2005C65.0999 83.4843 65.3143 83.703 65.6252 83.8577C65.9347 84.015 66.3777 84.0941 66.9589 84.0941C67.4375 84.0941 67.9039 84.0497 68.3548 83.9615C68.8031 83.8747 69.2572 83.754 69.717 83.596L70.0479 86.9347C69.4482 87.1494 68.799 87.3341 68.0994 87.4896C67.3986 87.6472 66.5691 87.7231 65.6104 87.7231C64.2319 87.7231 63.1632 87.5232 62.4018 87.1252C61.6415 86.7243 61.104 86.1767 60.7823 85.4833C60.4651 84.7925 60.3233 83.9962 60.3629 83.0989C60.404 82.1996 60.5428 81.2543 60.7823 80.2587L63.7218 68.1391Z" fill="white"/>
<path id="Vector_4" d="M72.0103 81.224C72.0103 79.8977 72.2301 78.6469 72.6695 77.4761C73.1082 76.3041 73.74 75.2793 74.5599 74.3998C75.3769 73.5246 76.3723 72.8313 77.5438 72.3223C78.7098 71.8162 80.0154 71.561 81.4542 71.561C82.3548 71.561 83.1592 71.6442 83.867 71.8108C84.5777 71.9789 85.2207 72.1962 85.8022 72.4687L84.2719 75.8667C83.8721 75.7084 83.4572 75.5689 83.0282 75.4423C82.5988 75.3133 82.0746 75.2511 81.4546 75.2511C79.9736 75.2511 78.8028 75.7496 77.9314 76.7433C77.0634 77.7378 76.6262 79.0764 76.6262 80.7555C76.6262 81.7507 76.8461 82.5553 77.2873 83.171C77.7263 83.7866 78.5373 84.0927 79.7148 84.0927C80.296 84.0927 80.8568 84.0335 81.3939 83.9178C81.9351 83.8007 82.413 83.6532 82.8338 83.4789L83.1651 86.9622C82.604 87.1748 81.9851 87.3667 81.3062 87.5348C80.6258 87.6971 79.8159 87.7814 78.8768 87.7814C77.6371 87.7814 76.5877 87.6042 75.7293 87.2554C74.8705 86.9012 74.1609 86.4309 73.602 85.8351C73.04 85.2379 72.6366 84.5406 72.3871 83.7403C72.1376 82.9407 72.0103 82.1006 72.0103 81.224Z" fill="white"/>
<path id="Vector_5" d="M91.7207 87.7814C90.6617 87.7814 89.7418 87.6238 88.9615 87.3118C88.1834 86.9998 87.539 86.5621 87.0293 85.9945C86.5188 85.4299 86.1368 84.7608 85.8751 83.9897C85.6134 83.219 85.4875 82.3656 85.4875 81.4304C85.4875 80.2574 85.6804 79.0847 86.0702 77.9153C86.4581 76.7433 87.0337 75.6903 87.7955 74.7544C88.5514 73.8171 89.4838 73.0507 90.5817 72.4532C91.6785 71.8596 92.9401 71.561 94.357 71.561C95.3968 71.561 96.3119 71.719 97.1029 72.031C97.8902 72.3422 98.5388 72.7836 99.0515 73.3482C99.5586 73.9158 99.9439 74.582 100.203 75.3541C100.464 76.1234 100.593 76.979 100.593 77.9149C100.593 79.0843 100.403 80.257 100.025 81.43C99.6471 82.5973 99.0863 83.6528 98.3459 84.5909C97.6071 85.5268 96.6832 86.2928 95.5734 86.8878C94.4651 87.4828 93.1799 87.7814 91.7207 87.7814ZM93.9384 75.2515C93.2806 75.2515 92.6991 75.438 92.2012 75.8063C91.7015 76.179 91.2817 76.6475 90.9434 77.2125C90.6014 77.7801 90.3478 78.3989 90.1764 79.0717C90.0065 79.7459 89.9232 80.3832 89.9232 80.9887C89.9232 81.9658 90.0846 82.7267 90.4018 83.2743C90.7235 83.8191 91.3013 84.0931 92.1412 84.0931C92.8012 84.0931 93.3798 83.908 93.8806 83.5357C94.3774 83.1659 94.7975 82.697 95.1385 82.1309C95.4783 81.5663 95.734 80.9456 95.9054 80.2718C96.0731 79.5998 96.1586 78.9589 96.1586 78.3545C96.1586 77.3799 95.998 76.6172 95.6778 76.0702C95.358 75.5255 94.7776 75.2515 93.9384 75.2515Z" fill="white"/>
<path id="Vector_6" d="M105.415 87.3744H100.974L104.722 71.9761H109.191L105.415 87.3744ZM107.571 70.0999C106.952 70.0999 106.391 69.9199 105.893 69.5591C105.394 69.2006 105.143 68.6486 105.143 67.9046C105.143 67.4954 105.229 67.1115 105.398 66.7493C105.567 66.3878 105.793 66.0766 106.073 65.812C106.352 65.5495 106.68 65.3399 107.048 65.1819C107.416 65.0264 107.811 64.9487 108.23 64.9487C108.85 64.9487 109.411 65.1288 109.91 65.4895C110.409 65.8521 110.661 66.4041 110.661 67.144C110.661 67.5547 110.572 67.94 110.404 68.3015C110.236 68.663 110.011 68.9743 109.731 69.2389C109.45 69.5017 109.126 69.7106 108.758 69.8671C108.386 70.0251 107.992 70.0999 107.571 70.0999Z" fill="white"/>
<path id="Vector_7" d="M112.403 72.6758C112.739 72.5796 113.116 72.464 113.525 72.3382C113.935 72.2124 114.394 72.0952 114.906 71.9897C115.413 71.8809 115.985 71.7927 116.614 71.7244C117.243 71.6546 117.959 71.6206 118.755 71.6206C121.096 71.6206 122.709 72.2861 123.599 73.6131C124.489 74.9402 124.643 76.7563 124.066 79.0582L122.025 87.3724H117.558L119.536 79.2332C119.657 78.7249 119.752 78.2337 119.822 77.7536C119.893 77.2779 119.888 76.8586 119.806 76.4956C119.727 76.137 119.541 75.8435 119.253 75.6161C118.96 75.3924 118.518 75.28 117.918 75.28C117.339 75.28 116.751 75.3407 116.15 75.4578L113.241 87.3721H108.773L112.403 72.6758Z" fill="white"/>
</g>
<g id="Bitcoin_3">
<g id="Group_3">
<path id="Vector_8" d="M99.9712 40.8388C97.1942 51.7151 85.9126 58.3342 74.7728 55.622C63.6374 52.9104 56.8586 41.8939 59.6369 31.0183C62.4126 20.1407 73.6942 13.5209 84.8308 16.2325C95.9701 18.9442 102.748 29.9619 99.9712 40.8388Z" fill="white"/>
<path id="Vector_9" d="M88.9712 33.0349C89.3851 30.3335 87.2786 28.8812 84.3983 27.9124L85.3326 24.253L83.0514 23.6978L82.1417 27.2609C81.542 27.1149 80.926 26.9773 80.314 26.8409L81.2301 23.2544L78.9502 22.6992L78.0152 26.3574C77.5188 26.247 77.0315 26.1379 76.5584 26.0231L76.561 26.0117L73.415 25.2446L72.8081 27.6238C72.8081 27.6238 74.5007 28.0025 74.465 28.026C75.3889 28.2512 75.5559 28.8482 75.5279 29.3215L74.4637 33.4905C74.5273 33.5063 74.6098 33.5292 74.7008 33.5647C74.6248 33.5463 74.5436 33.526 74.4598 33.5063L72.9679 39.3464C72.8549 39.6205 72.5683 40.0316 71.9225 39.8755C71.9452 39.9079 70.2643 39.4714 70.2643 39.4714L69.1318 42.0212L72.1005 42.7438C72.6528 42.879 73.1941 43.0205 73.7268 43.1537L72.7828 46.855L75.0614 47.4102L75.9964 43.7482C76.6189 43.9131 77.2231 44.0654 77.8144 44.2088L76.8827 47.8536L79.1639 48.4088L80.108 44.7144C83.998 45.4332 86.9232 45.1433 88.1545 41.7078C89.1466 38.9416 88.1051 37.346 86.0584 36.3055C87.5489 35.9699 88.6717 35.0125 88.9712 33.0349ZM83.7589 40.1718C83.054 42.938 78.2842 41.4426 76.7378 41.0676L77.9905 36.164C79.5369 36.5409 84.4957 37.287 83.7589 40.1718ZM84.4646 32.995C83.8213 35.5112 79.8514 34.2328 78.5636 33.9194L79.6993 29.4719C80.9871 29.7853 85.1344 30.3703 84.4646 32.995Z" fill="#F7931A"/>
</g>
</g>
</g>
</g>
</g>
<defs>
<clipPath id="clip0_485_6754">
<rect width="160" height="100" fill="white"/>
</clipPath>
</defs>
</svg>
