<svg width="160" height="100" viewBox="0 0 160 100" fill="none" xmlns="http://www.w3.org/2000/svg">
<g id="Qiwi" clip-path="url(#clip0_485_6825)">
<g id="Qiwi_2">
<rect id="Rectangle" width="160" height="100" fill="#FF8C00"/>
<g id="Group">
<path id="path5489" d="M78.7173 55.1242H80.7244V59.5171H82.1746L84.7768 55.1242H86.9711L83.8477 60.2799V60.3161L87.1571 65.9424H84.8888L82.2115 61.2222H80.7625V65.9424H78.7543V55.123H78.7173V55.1242ZM91.6555 57.9926C94.0705 57.9926 96.0418 59.6988 96.0418 62.0583C96.0418 64.4551 94.1086 66.1252 91.6925 66.1252C89.2751 66.1252 87.342 64.4551 87.342 62.0583C87.305 59.6627 89.2382 57.9926 91.6555 57.9926ZM97.6029 58.1732H99.4991V64.2734H101.99V58.1743H103.885V64.2734H106.377V58.1743H108.273V65.9424H97.6768V58.1732H97.6029ZM113.887 57.9926C116.155 57.9926 117.419 59.6266 117.419 61.66C117.412 61.9153 117.388 62.1698 117.345 62.4217H111.879C111.991 63.7645 113.069 64.4912 114.259 64.4912C115.076 64.4912 115.895 64.1279 116.527 63.6562L117.308 65.0362C116.49 65.7246 115.262 66.1613 114.11 66.1613C111.47 66.1613 109.835 64.3095 109.835 62.0944C109.835 59.6627 111.507 57.9926 113.887 57.9926ZM118.348 64.3095C119.315 64.164 120.021 63.3662 120.021 60.6061V58.1743H125.821V65.9424H123.85V59.7338H121.917V60.6049C121.917 63.9812 120.988 65.9424 118.348 66.0146V64.3084V64.3095ZM131.472 57.9926C133.739 57.9926 135.003 59.6266 135.003 61.66C134.997 61.9153 134.972 62.1698 134.929 62.4217H129.464C129.576 63.7645 130.654 64.4912 131.844 64.4912C132.661 64.4912 133.479 64.1279 134.111 63.6562L134.892 65.0362C134.074 65.7246 132.847 66.1613 131.695 66.1613C129.056 66.1613 127.42 64.3095 127.42 62.0944C127.42 59.6627 129.093 57.9926 131.472 57.9926ZM136.639 58.1732H138.609V61.1511H139.577L141.51 58.1743H143.703L141.175 61.8767V61.9139L144 65.9424H141.696L139.614 62.785H138.574V65.9424H136.601V58.1732H136.638H136.639ZM91.6555 64.4551C92.9566 64.4551 94.0347 63.4745 94.0347 62.0222C94.0347 60.6061 92.9566 59.5893 91.6543 59.5893C90.3544 59.5893 89.3133 60.5711 89.3133 62.0222C89.3133 63.4745 90.3532 64.4551 91.6555 64.4551ZM115.412 61.0789C115.412 60.0622 114.704 59.4449 113.812 59.4449C112.809 59.4449 112.065 60.0983 111.879 61.0789H115.412ZM132.996 61.0789C132.996 60.0622 132.29 59.4449 131.398 59.4449C130.393 59.4449 129.65 60.0983 129.464 61.0789H132.996Z" fill="#2D3540"/>
<path id="path5491" d="M106.489 31.5617V49.8963C106.49 49.9634 106.478 50.0301 106.452 50.0924C106.427 50.1547 106.389 50.2113 106.34 50.2588C106.291 50.3062 106.233 50.3436 106.17 50.3686C106.106 50.3935 106.038 50.4056 105.969 50.4041H102.14C102.071 50.4056 102.002 50.3935 101.939 50.3686C101.875 50.3436 101.817 50.3062 101.768 50.2588C101.72 50.2113 101.681 50.1547 101.656 50.0924C101.63 50.0301 101.618 49.9634 101.62 49.8963V31.5617C101.618 31.4945 101.63 31.4278 101.656 31.3655C101.681 31.3032 101.72 31.2466 101.768 31.1992C101.817 31.1517 101.875 31.1143 101.939 31.0894C102.002 31.0644 102.071 31.0523 102.14 31.0539H105.969C106.038 31.0523 106.106 31.0644 106.17 31.0894C106.233 31.1143 106.291 31.1517 106.34 31.1992C106.389 31.2466 106.427 31.3032 106.452 31.3655C106.478 31.4278 106.49 31.4945 106.489 31.5617ZM136.379 31.0539C136.529 31.0539 136.715 31.1261 136.899 31.2717C137.012 31.38 137.012 31.5617 136.975 31.7072L130.654 50.078C130.616 50.173 130.549 50.2548 130.463 50.3131C130.377 50.3713 130.276 50.4034 130.171 50.4052H126.751C126.528 50.4052 126.342 50.2957 126.268 50.078L122.585 39.3681L118.905 50.0768C118.866 50.1719 118.8 50.2537 118.714 50.312C118.628 50.3702 118.526 50.4023 118.422 50.4041H115.001C114.778 50.4041 114.592 50.2957 114.518 50.0768L108.198 31.7061C108.161 31.5617 108.161 31.4161 108.272 31.2717C108.347 31.1261 108.533 31.0539 108.681 31.0539H112.956C113.179 31.0539 113.365 31.1983 113.44 31.4161L116.823 42.2715L120.541 31.4161C120.579 31.321 120.646 31.2392 120.732 31.181C120.818 31.1227 120.919 31.0907 121.024 31.0888H124.035C124.258 31.0888 124.444 31.1983 124.518 31.4161L128.237 42.2715L131.62 31.4161C131.65 31.3133 131.714 31.2226 131.8 31.1574C131.887 31.0922 131.993 31.0559 132.103 31.0539H136.378H136.379ZM142.848 31.0539C143.108 31.0539 143.331 31.2717 143.368 31.5617V49.8963C143.37 49.9634 143.357 50.0301 143.332 50.0924C143.306 50.1547 143.268 50.2113 143.219 50.2588C143.171 50.3062 143.113 50.3436 143.049 50.3686C142.985 50.3935 142.917 50.4056 142.848 50.4041H139.019C138.95 50.4056 138.882 50.3935 138.818 50.3686C138.754 50.3436 138.696 50.3062 138.647 50.2588C138.599 50.2113 138.561 50.1547 138.535 50.0924C138.509 50.0301 138.497 49.9634 138.499 49.8963V31.5617C138.497 31.4945 138.509 31.4278 138.535 31.3655C138.561 31.3032 138.599 31.2466 138.647 31.1992C138.696 31.1517 138.754 31.1143 138.818 31.0894C138.882 31.0644 138.95 31.0523 139.019 31.0539H142.848ZM99.3882 49.7518C99.6113 50.0057 99.4252 50.368 99.0901 50.368H94.4057C94.3135 50.3704 94.2219 50.352 94.1381 50.3142C94.0543 50.2765 93.9806 50.2203 93.9227 50.1502L93.1427 49.2068C91.5065 50.2224 89.5722 50.8408 87.5281 50.8408C81.8037 50.8408 77.1563 46.3023 77.1563 40.7109C77.1563 35.1196 81.8037 30.5811 87.5281 30.5811C93.2537 30.5811 97.9011 35.1196 97.9011 40.7109C97.9011 42.7082 97.306 44.5961 96.2649 46.1928L99.3882 49.7507V49.7518ZM60.2397 58.6461C61.2069 59.0094 61.5789 60.4245 61.6529 61.0417C61.8019 62.1679 61.468 62.6035 61.0959 62.6035C60.7239 62.6035 60.2027 62.1679 59.6458 61.2967C59.0877 60.4245 58.8646 59.445 59.1628 58.9361C59.3477 58.6088 59.7567 58.4644 60.2409 58.6461H60.2397ZM54.5893 62.749C55.1844 62.749 55.8534 63.0029 56.4485 63.5107C57.6005 64.4552 57.9356 65.5441 57.3405 66.3431C57.0054 66.7425 56.4485 66.9964 55.8164 66.9964C55.1844 66.9964 54.5153 66.7786 54.0693 66.3792C53.0282 65.508 52.7312 64.0546 53.3991 63.2568C53.6602 62.9296 54.0693 62.749 54.5893 62.749ZM41.5783 73.2411C27.4499 73.2411 16 62.0584 16 48.2623C16 34.4662 27.4511 23.2847 41.5771 23.2847C55.7043 23.2847 67.1554 34.4673 67.1554 48.2623C67.1554 52.9453 65.8173 57.3394 63.5502 61.079C63.4751 61.1873 63.2891 61.1512 63.2521 61.0056C62.3601 54.8704 58.5307 51.493 52.9542 50.4774C52.4701 50.4041 52.3961 50.1141 53.0282 50.0418C54.7383 49.8963 57.1545 49.9324 58.4186 50.1502C58.4926 49.5329 58.5307 48.8796 58.5307 48.2262C58.5307 39.1131 50.946 31.7061 41.6141 31.7061C32.2834 31.7061 24.6986 39.1131 24.6986 48.2262C24.6986 57.3394 32.2834 64.7463 41.6153 64.7463H42.3952C42.1302 63.2723 42.018 61.776 42.0601 60.28C42.0983 59.2633 42.3213 59.1178 42.7673 59.9167C45.1095 63.8741 48.4558 67.432 54.9983 68.8482C60.3518 70.0104 65.7052 71.3533 71.4677 78.5052C71.9877 79.1225 71.2078 79.7758 70.6127 79.268C64.7392 74.1845 59.3858 72.5144 54.5153 72.5144C49.0498 72.5516 45.3325 73.2411 41.5771 73.2411H41.5783ZM90.0933 45.685L88.0481 43.2521C87.8262 42.9982 88.0123 42.5988 88.3462 42.5988H92.6586C92.8816 42.0176 92.9937 41.3643 92.9937 40.7109C92.9937 37.698 90.6884 35.0835 87.5281 35.0835C84.369 35.0835 82.0626 37.698 82.0626 40.7109C82.0626 43.7238 84.369 46.3023 87.5281 46.3023C88.4202 46.3384 89.3134 46.0845 90.0933 45.685Z" fill="white"/>
</g>
</g>
</g>
<defs>
<clipPath id="clip0_485_6825">
<rect width="160" height="100" fill="white"/>
</clipPath>
</defs>
</svg>
