<svg width="160" height="100" viewBox="0 0 160 100" fill="none" xmlns="http://www.w3.org/2000/svg">
<g id="PayPal" clip-path="url(#clip0_485_6770)">
<g id="PayPal_2">
<rect id="Rectangle" width="160" height="100" fill="#082069"/>
<g id="Group">
<g id="Group_2">
<path id="Vector" d="M48.6327 65.313H42.0001C41.5462 65.313 41.1602 65.635 41.0894 66.0726L38.4069 82.6817C38.3535 83.0094 38.6134 83.3049 38.9538 83.3049H42.1203C42.5742 83.3049 42.9602 82.9829 43.031 82.5444L43.7545 78.0646C43.8243 77.6261 44.2113 77.3041 44.6642 77.3041H46.7638C51.1329 77.3041 53.6544 75.2395 54.3129 71.148C54.6097 69.358 54.3255 67.9516 53.4672 66.9666C52.5246 65.885 50.8526 65.313 48.6327 65.313ZM49.3979 71.3791C49.0351 73.7033 47.2167 73.7033 45.4584 73.7033H44.4576L45.1597 69.3628C45.2014 69.1004 45.4342 68.9072 45.7057 68.9072H46.1645C47.3622 68.9072 48.492 68.9072 49.0759 69.574C49.424 69.9717 49.5307 70.5627 49.3979 71.3791Z" fill="white"/>
<path id="Vector_2" d="M68.459 71.302H65.2829C65.0123 71.302 64.7786 71.4952 64.7369 71.7575L64.5962 72.625L64.3742 72.3106C63.6865 71.3361 62.1533 71.0103 60.6229 71.0103C57.1131 71.0103 54.1154 73.6062 53.5315 77.2478C53.228 79.0643 53.6596 80.8013 54.7147 82.0126C55.6826 83.1264 57.0675 83.5905 58.7152 83.5905C61.5432 83.5905 63.1114 81.8147 63.1114 81.8147L62.9698 82.6765C62.9165 83.0061 63.1764 83.3016 63.5149 83.3016H66.3759C66.8307 83.3016 67.2148 82.9796 67.2865 82.5411L69.0031 71.9251C69.0574 71.5984 68.7985 71.302 68.459 71.302ZM64.0318 77.3387C63.7253 79.1107 62.2852 80.3003 60.4483 80.3003C59.526 80.3003 58.7889 80.0114 58.3157 79.464C57.8463 78.9204 57.6678 78.1466 57.8172 77.2847C58.1033 75.5279 59.5677 74.2995 61.3764 74.2995C62.2784 74.2995 63.0115 74.5922 63.4945 75.1443C63.9785 75.7021 64.1705 76.4807 64.0318 77.3387Z" fill="white"/>
<path id="Vector_3" d="M85.3746 71.3018H82.1829C81.8783 71.3018 81.5922 71.4495 81.4196 71.6967L77.0176 78.029L75.1517 71.9439C75.0343 71.5632 74.6745 71.3018 74.2672 71.3018H71.1308C70.7496 71.3018 70.4849 71.6654 70.6061 72.0159L74.1217 82.091L70.8166 86.6475C70.5567 87.0064 70.8185 87.4999 71.2675 87.4999H74.4553C74.7579 87.4999 75.0411 87.3559 75.2128 87.1135L85.8284 72.1494C86.0825 71.7914 85.8216 71.3018 85.3746 71.3018Z" fill="white"/>
<path id="Vector_4" d="M95.9413 65.3105H89.3077C88.8548 65.3105 88.4688 65.6326 88.398 66.0701L85.7155 82.6792C85.6621 83.0069 85.922 83.3024 86.2605 83.3024H89.6646C89.9807 83.3024 90.2513 83.077 90.3008 82.7702L91.0621 78.0622C91.1319 77.6237 91.5189 77.3017 91.9718 77.3017H94.0705C98.4405 77.3017 100.961 75.237 101.621 71.1456C101.918 69.3556 101.632 67.9491 100.774 66.9642C99.8322 65.8826 98.1612 65.3105 95.9413 65.3105ZM96.7064 71.3767C96.3447 73.7008 94.5263 73.7008 92.767 73.7008H91.7672L92.4703 69.3603C92.512 69.098 92.7428 68.9048 93.0153 68.9048H93.474C94.6708 68.9048 95.8016 68.9048 96.3854 69.5715C96.7336 69.9693 96.8393 70.5603 96.7064 71.3767Z" fill="white"/>
<path id="Vector_5" d="M115.767 71.302H112.592C112.32 71.302 112.088 71.4952 112.047 71.7575L111.907 72.625L111.684 72.3106C110.996 71.3361 109.464 71.0103 107.933 71.0103C104.424 71.0103 101.427 73.6062 100.843 77.2478C100.54 79.0643 100.97 80.8013 102.025 82.0126C102.995 83.1264 104.378 83.5905 106.026 83.5905C108.854 83.5905 110.422 81.8147 110.422 81.8147L110.28 82.6765C110.227 83.0061 110.487 83.3016 110.827 83.3016H113.687C114.14 83.3016 114.526 82.9796 114.597 82.5411L116.315 71.9251C116.367 71.5984 116.107 71.302 115.767 71.302ZM111.339 77.3387C111.035 79.1107 109.593 80.3003 107.756 80.3003C106.836 80.3003 106.097 80.0114 105.623 79.464C105.154 78.9204 104.977 78.1466 105.125 77.2847C105.413 75.5279 106.875 74.2995 108.684 74.2995C109.586 74.2995 110.319 74.5922 110.802 75.1443C111.288 75.7021 111.48 76.4807 111.339 77.3387Z" fill="white"/>
<path id="Vector_6" d="M119.511 65.7661L116.789 82.6792C116.736 83.0069 116.996 83.3024 117.334 83.3024H120.071C120.526 83.3024 120.912 82.9804 120.981 82.5419L123.666 65.9337C123.719 65.606 123.459 65.3096 123.121 65.3096H120.056C119.786 65.3105 119.553 65.5037 119.511 65.7661Z" fill="white"/>
</g>
<g id="Group_3">
<path id="Vector_7" opacity="0.68" d="M97.4072 23.1994C97.9334 19.9232 97.4037 17.6944 95.5892 15.675C93.5916 13.4522 89.9829 12.5 85.3657 12.5H71.9629C71.0194 12.5 70.2156 13.1704 70.0689 14.0811L64.4876 48.6415C64.3778 49.3235 64.9176 49.9399 65.6239 49.9399H73.8982L73.3272 53.4764C73.231 54.0731 73.7027 54.6123 74.3212 54.6123H81.2957C82.121 54.6123 82.8238 54.0259 82.9525 53.2294L83.021 52.8828L84.3348 44.7467L84.4195 44.2972C84.5482 43.5011 85.251 42.9139 86.0763 42.9139H87.1195C93.8762 42.9139 99.1668 40.2334 100.712 32.4808C101.359 29.2415 101.024 26.5374 99.3161 24.6364C98.8 24.0625 98.157 23.5872 97.4072 23.1994Z" fill="white"/>
<path id="Vector_8" opacity="0.7" d="M97.4072 23.1994C97.9334 19.9232 97.4037 17.6944 95.5892 15.675C93.5916 13.4522 89.9829 12.5 85.3657 12.5H71.9629C71.0194 12.5 70.2156 13.1704 70.0689 14.0811L64.4876 48.6415C64.3778 49.3235 64.9176 49.9399 65.6239 49.9399H73.8982L75.9766 37.0687L75.9121 37.4723C76.0592 36.5621 76.8555 35.8913 77.7994 35.8913H81.7323C89.4558 35.8913 95.5036 32.8269 97.2702 23.9651C97.3229 23.7034 97.3672 23.4491 97.4072 23.1994Z" fill="white"/>
<path id="Vector_9" d="M78.2097 23.2428C78.298 22.6954 78.6581 22.2468 79.1426 22.0203C79.3627 21.9173 79.6091 21.8599 79.8669 21.8599H90.3729C91.6177 21.8599 92.7781 21.9396 93.8389 22.1065C94.142 22.1541 94.4371 22.209 94.7239 22.2712C95.0103 22.3334 95.2888 22.4025 95.558 22.4797C95.6929 22.5178 95.8251 22.5586 95.9555 22.6006C96.4765 22.7696 96.9618 22.9687 97.4081 23.1999C97.9343 19.9236 97.4046 17.6949 95.5901 15.6754C93.5916 13.4522 89.9829 12.5 85.3657 12.5H71.9629C71.0194 12.5 70.2156 13.1704 70.0689 14.0811L64.4876 48.6415C64.3778 49.3235 64.9176 49.9399 65.6239 49.9399H73.8982L75.9766 37.0687L78.2097 23.2428Z" fill="white"/>
</g>
</g>
</g>
</g>
<defs>
<clipPath id="clip0_485_6770">
<rect width="160" height="100" fill="white"/>
</clipPath>
</defs>
</svg>
