<svg width="160" height="100" viewBox="0 0 160 100" fill="none" xmlns="http://www.w3.org/2000/svg">
<g id="Visa" clip-path="url(#clip0_485_6809)">
<g id="Visa_2">
<rect id="Rectangle" width="160" height="100" fill="#00579F"/>
<g id="Group">
<path id="polygon9" d="M71.8932 66.3604H62.0427L68.2039 31.8745H78.0538L71.8932 66.3604Z" fill="white"/>
<path id="path11" d="M107.602 32.7182C105.659 32.0204 102.577 31.25 98.7668 31.25C89.0392 31.25 82.189 35.9457 82.147 42.6592C82.0662 47.6123 87.0515 50.3635 90.7801 52.015C94.5911 53.7026 95.8866 54.8041 95.8866 56.3084C95.8478 58.6187 92.8071 59.6837 89.971 59.6837C86.0383 59.6837 83.9311 59.1346 80.7287 57.8493L79.4316 57.2983L78.0532 65.0396C80.3635 65.9924 84.62 66.8379 89.0392 66.875C99.3749 66.875 106.104 62.2519 106.184 55.0977C106.223 51.1719 103.59 48.1638 97.9152 45.7058C94.4699 44.1279 92.36 43.0639 92.36 41.4494C92.4004 39.9817 94.1446 38.4784 98.0337 38.4784C101.236 38.4047 103.589 39.1015 105.371 39.7988L106.262 40.165L107.602 32.7182Z" fill="white"/>
<path id="path13" d="M120.694 54.1433C121.505 52.1621 124.626 44.4944 124.626 44.4944C124.585 44.5681 125.436 42.4767 125.922 41.1928L126.611 44.1643C126.611 44.1643 128.476 52.4191 128.881 54.1433C127.342 54.1433 122.639 54.1433 120.694 54.1433ZM132.853 31.8745H125.233C122.884 31.8745 121.099 32.4977 120.085 34.7358L105.453 66.36H115.789C115.789 66.36 117.491 62.1036 117.857 61.1869C118.99 61.1869 129.045 61.1869 130.504 61.1869C130.786 62.3976 131.679 66.36 131.679 66.36H140.8L132.853 31.8745Z" fill="white"/>
<path id="path15" d="M53.815 31.8745L44.1682 55.3906L43.114 50.6213C41.3305 45.1181 35.7371 39.139 29.4951 36.166L38.3313 66.3239H48.7478L64.231 31.8745H53.815Z" fill="white"/>
<path id="path17" d="M35.2105 31.8745H19.3621L19.2 32.5713C31.5627 35.4331 39.7503 42.3314 43.1142 50.6227L39.669 34.7734C39.1018 32.5708 37.3587 31.9472 35.2105 31.8745Z" fill="#FAA61A"/>
</g>
</g>
</g>
<defs>
<clipPath id="clip0_485_6809">
<rect width="160" height="100" fill="white"/>
</clipPath>
</defs>
</svg>
