<svg width="160" height="100" viewBox="0 0 160 100" fill="none" xmlns="http://www.w3.org/2000/svg">
<g id="Yandex.Money (&#208;&#175;&#208;&#189;&#208;&#180;&#208;&#181;&#208;&#186;&#209;&#129;.&#208;&#148;&#208;&#181;&#208;&#189;&#209;&#140;&#208;&#179;&#208;&#184;)" clip-path="url(#clip0_485_6818)">
<g id="Yandex.Money (&#208;&#175;&#208;&#189;&#208;&#180;&#208;&#181;&#208;&#186;&#209;&#129;.&#208;&#148;&#208;&#181;&#208;&#189;&#209;&#140;&#208;&#179;&#208;&#184;)_2">
<rect id="Rectangle" width="160" height="100" fill="#F7C700"/>
<g id="Group">
<path id="Vector" d="M22.1664 50.6844L18.601 58.5051H16L19.9162 50.143C19.0005 49.6865 18.2597 49.0158 17.6957 48.1308C17.1299 47.2459 16.8478 46.0431 16.8478 44.5206C16.8478 43.4555 17.008 42.5187 17.3301 41.7094C17.6513 40.9019 18.09 40.2303 18.6445 39.6973C19.199 39.1643 19.8475 38.7656 20.59 38.4987C21.3383 38.231 22.1294 38.0957 22.9263 38.0992H26.2863V58.5051H24.037V50.6844H22.1655H22.1664ZM24.037 39.9268H22.8384C22.3901 39.9268 21.9514 40.0076 21.524 40.17C21.0966 40.3323 20.7145 40.5899 20.3837 40.9435C20.0529 41.2963 19.7848 41.7638 19.5802 42.3461C19.3748 42.9284 19.2738 43.6484 19.2738 44.5079C19.2738 45.3282 19.3652 46.0159 19.5506 46.5693C19.7361 47.1227 19.9894 47.5723 20.3106 47.9149C20.6326 48.2584 21.0122 48.5015 21.4509 48.6451C21.8985 48.7894 22.3671 48.8617 22.8384 48.8593H24.037V39.926V39.9268ZM37.1289 44.1211V58.5042H34.8779V52.0548H31.4883V58.5051H29.2094V44.1219H31.4883V50.2288H34.8779V44.1211H37.1289ZM48.848 61.3298H46.8024V58.5051H40.4898V61.3298H38.4442V56.6783H39.3495C39.6811 55.9175 39.944 55.0759 40.139 54.1527C40.3331 53.2304 40.4846 52.2792 40.5916 51.2982C40.6987 50.3189 40.7666 49.3201 40.7971 48.3026C40.8258 47.2842 40.8406 46.2998 40.8406 45.3477V44.1211H47.679V56.6783H48.848V61.3298ZM45.4288 45.947H42.8871V46.2037C42.8871 46.9628 42.8714 47.7934 42.8418 48.6944C42.8117 49.6119 42.7484 50.5279 42.652 51.441C42.5553 52.3617 42.4188 53.2781 42.2429 54.1876C42.082 55.0389 41.8372 55.873 41.5117 56.6783H45.4288V45.947ZM58.7549 57.5343C58.2714 57.9044 57.7284 58.1936 57.148 58.3903C56.5439 58.5994 55.871 58.7048 55.1311 58.7048C53.6113 58.7048 52.4135 58.1293 51.5361 56.9783C50.6595 55.8274 50.2216 54.1383 50.2216 51.9119C50.2216 50.7525 50.3035 49.6865 50.4697 48.7157C50.636 47.7449 50.898 46.9033 51.2593 46.1901C51.6188 45.4761 52.0818 44.9201 52.6477 44.5206C53.2117 44.1211 53.8837 43.9213 54.6628 43.9213C55.2669 43.9213 55.8223 44.0403 56.3297 44.2783C56.8355 44.5164 57.2637 44.9014 57.6154 45.4344C57.9653 45.9666 58.2378 46.656 58.4337 47.5026C58.6278 48.3493 58.7253 49.3813 58.7253 50.5994V51.8261H52.5885C52.5885 53.4633 52.8174 54.6993 53.2761 55.5366C53.7331 56.374 54.4199 56.7922 55.3357 56.7922C55.9781 56.7922 56.5482 56.6834 57.0453 56.4641C57.5414 56.2456 57.9366 56.0314 58.2291 55.8223L58.7549 57.5343ZM54.6637 45.7481C53.9621 45.7481 53.4659 46.1332 53.1734 46.9042C52.8801 47.6744 52.6947 48.7063 52.6172 50.0001H56.3881C56.3881 49.3915 56.3585 48.8253 56.3001 48.3026C56.2545 47.8426 56.1615 47.3884 56.0225 46.9467C55.8954 46.5659 55.7204 46.2709 55.4967 46.0618C55.3858 45.9582 55.2551 45.8771 55.112 45.8231C54.9688 45.7691 54.8162 45.7433 54.6628 45.7472L54.6637 45.7481ZM63.3422 51.3415V58.5051H61.0642V44.1219H63.344V50.7703L66.8798 44.1211H69.1883L65.5358 50.8851L69.715 58.5051H67.2315L63.344 51.3415H63.3422ZM75.0622 58.704C73.4832 58.704 72.2463 58.0911 71.3506 56.8636C70.454 55.6361 70.0057 53.7863 70.0057 51.3126C70.0057 50.1906 70.1189 49.173 70.3426 48.2592C70.5654 47.3462 70.897 46.571 71.3349 45.9334C71.7502 45.317 72.3119 44.8078 72.9722 44.4492C73.6251 44.0973 74.3798 43.9213 75.2372 43.9213C75.8988 43.9213 76.4359 43.9927 76.8441 44.1355C77.2541 44.2783 77.6232 44.4543 77.9557 44.6626L77.6336 46.775C77.3023 46.4888 76.9335 46.2469 76.5368 46.0558C76.1249 45.8522 75.6694 45.7467 75.2076 45.7481C74.3894 45.7481 73.7174 46.1978 73.1916 47.0963C72.665 47.9957 72.4021 49.3626 72.4021 51.1979C72.4021 53.0153 72.6223 54.4162 73.0593 55.4006C73.498 56.3867 74.1848 56.878 75.1206 56.878C75.6846 56.878 76.173 56.7845 76.5812 56.5975C76.9903 56.4122 77.3316 56.2005 77.604 55.9651L78.1298 57.6202C77.7356 57.9462 77.2922 58.2108 76.8154 58.4048C76.3279 58.6045 75.743 58.704 75.0622 58.704Z" fill="black"/>
<g id="Group_2">
<path id="Vector_2" d="M93.6197 58.505H84.6765L84.4728 61.901H83.3325V57.3634H83.9462C84.4528 56.9443 84.8419 56.2013 85.1152 55.1336C85.3886 54.0668 85.6018 52.7993 85.7585 51.3321C85.9143 49.808 86.0214 47.9361 86.0797 45.7157C86.138 43.4962 86.1868 40.957 86.2251 38.0991H93.5309V57.3634H94.9637V61.901H93.8234L93.6197 58.505ZM92.0703 39.2408H87.5404C87.5092 41.5365 87.4509 43.8319 87.3654 46.1263C87.2871 48.1019 87.1896 49.8335 87.0738 51.3219C86.9363 52.8691 86.7465 54.1425 86.5036 55.1447C86.2599 56.1469 85.9431 56.8865 85.554 57.3634H92.0703V39.2408ZM97.7693 51.5412C97.8076 53.5287 98.0905 55.0435 98.6162 56.0857C99.1429 57.1279 99.9411 57.6481 101.013 57.6481C101.5 57.6481 101.928 57.5716 102.298 57.4161C102.668 57.2614 102.981 57.0769 103.234 56.8635C103.527 56.651 103.779 56.3892 103.994 56.0789L104.432 57.1636C104.198 57.4866 103.916 57.7629 103.585 57.9907C103.292 58.2007 102.932 58.386 102.504 58.5475C102.074 58.709 101.568 58.7898 100.984 58.7898C99.4249 58.7898 98.2759 58.1335 97.5351 56.821C96.7952 55.5077 96.4253 53.6724 96.4253 51.3126C96.4253 50.1335 96.5323 49.082 96.7465 48.1588C96.9606 47.2365 97.2574 46.4519 97.6378 45.8041C98.0173 45.1581 98.47 44.6676 98.9958 44.3344C99.5081 44.0059 100.108 43.8324 100.721 43.8354C101.363 43.8354 101.938 43.9969 102.445 44.3199C102.951 44.6446 103.37 45.1292 103.702 45.7761C104.032 46.423 104.266 47.2272 104.403 48.1877C104.539 49.1483 104.549 50.267 104.432 51.5412H97.7693ZM100.721 44.977C99.9411 44.977 99.2743 45.4454 98.7189 46.383C98.1636 47.3198 97.8563 48.6867 97.798 50.4855H103.146C103.264 48.5728 103.074 47.1778 102.577 46.2972C102.08 45.4174 101.461 44.977 100.721 44.977ZM113.433 51.6271H108.406V58.5042H107.033V44.1219H108.406V50.4863H113.433V44.121H114.806V58.5042H113.433V51.6271ZM118.049 44.121H119.423V49.4577H120.504C121.907 49.4577 123.027 49.8292 123.864 50.5713C124.702 51.3126 125.122 52.4355 125.122 53.9384C125.122 55.4609 124.683 56.6026 123.806 57.3634C122.929 58.1242 121.799 58.505 120.416 58.505H118.049V44.1219V44.121ZM119.423 50.5135V57.4492H120.3C121.332 57.4492 122.169 57.1772 122.813 56.6357C123.457 56.0934 123.777 55.2042 123.777 53.9665C123.777 52.7492 123.485 51.8694 122.901 51.327C122.317 50.7847 121.498 50.5135 120.446 50.5135H119.423ZM128.834 45.2626V58.505H127.49V44.1219H133.714V45.2626H128.834ZM142.685 48.487C142.685 48.107 142.694 47.7593 142.714 47.4456C142.733 47.1319 142.762 46.8225 142.801 46.519H142.714C142.616 46.8421 142.499 47.1506 142.363 47.4456C142.228 47.7406 142.081 48.0492 141.925 48.373L137.133 58.505H135.963V44.1219H137.249V54.1102C137.252 54.7873 137.213 55.464 137.133 56.1367H137.22C137.317 55.8128 137.434 55.4941 137.571 55.1804C137.706 54.8659 137.853 54.5471 138.009 54.2241L142.801 44.121H144V58.5042H142.685V48.4887V48.487Z" fill="black"/>
</g>
</g>
</g>
</g>
<defs>
<clipPath id="clip0_485_6818">
<rect width="160" height="100" fill="white"/>
</clipPath>
</defs>
</svg>
