<svg width="32" height="32" viewBox="0 0 32 32" fill="none" xmlns="http://www.w3.org/2000/svg">
<path d="M27.6547 27.6671C27.6547 30.5205 21.5118 32 15.6813 32C9.8507 32 3.70778 30.5205 3.70778 27.6671C3.70778 25.8705 6.51895 24.2853 10.996 23.6512V27.5614C10.996 28.9352 12.1413 29.9921 13.4948 29.9921H17.7636C19.1171 29.9921 20.3665 28.9352 20.3665 27.5614V23.6512C24.7394 24.391 27.6547 25.8705 27.6547 27.6671ZM5.47778 6.42514C5.68601 6.42514 5.99836 6.6365 5.99836 6.95354C5.99836 7.1649 5.79013 7.48195 5.47778 7.48195C5.16542 7.48195 4.95719 7.27059 4.95719 6.95354C5.06131 6.6365 5.16542 6.53082 5.47778 6.42514ZM5.47778 7.90467C5.68601 7.90467 5.99836 8.11604 5.99836 8.43308C5.99836 8.64444 5.79013 8.96149 5.47778 8.96149C5.16542 8.8558 5.06131 8.64444 5.06131 8.43308C5.06131 8.11604 5.16542 7.90467 5.47778 7.90467ZM5.47778 13.8228C5.68601 13.8228 5.99836 14.0342 5.99836 14.3512C5.99836 14.6683 5.79013 14.8796 5.47778 14.8796C5.16542 14.8796 4.95719 14.6683 4.95719 14.3512C5.06131 13.9285 5.16542 13.8228 5.47778 13.8228ZM5.47778 15.3024C5.68601 15.3024 5.99836 15.5137 5.99836 15.8308C5.99836 16.1478 5.79013 16.3592 5.47778 16.3592C5.16542 16.3592 4.95719 16.1478 4.95719 15.8308C4.95719 15.5137 5.16542 15.3024 5.47778 15.3024ZM5.06131 12.766C5.06131 12.5546 5.26954 12.2376 5.58189 12.2376C5.89424 12.2376 6.10248 12.449 6.10248 12.766C6.10248 13.0831 5.79013 13.2944 5.47778 13.2944C5.16542 13.2944 5.06131 13.0831 5.06131 12.766ZM5.06131 9.91262C5.06131 9.70125 5.26954 9.38421 5.58189 9.38421C5.89424 9.38421 6.10248 9.59557 6.10248 9.91262C6.10248 10.124 5.89424 10.441 5.58189 10.441C5.26954 10.441 5.06131 10.124 5.06131 9.91262ZM5.06131 11.3922C5.06131 11.1808 5.26954 10.8637 5.58189 10.8637C5.89424 10.8637 6.10248 11.0751 6.10248 11.3922C6.10248 11.7092 5.79013 11.8149 5.47778 11.8149C5.16542 11.8149 5.06131 11.6035 5.06131 11.3922ZM5.06131 17.2046C5.06131 16.9933 5.26954 16.6762 5.58189 16.6762C5.89424 16.6762 6.10248 16.8876 6.10248 17.2046C6.10248 17.416 5.89424 17.733 5.58189 17.733C5.26954 17.733 5.06131 17.5217 5.06131 17.2046ZM5.06131 18.6842C5.06131 18.4728 5.26954 18.1558 5.58189 18.1558C5.89424 18.1558 6.10248 18.3671 6.10248 18.6842C6.10248 18.8955 5.89424 19.2126 5.58189 19.2126C5.26954 19.2126 5.06131 18.8955 5.06131 18.6842ZM5.47778 19.6353C5.58189 19.6353 5.68601 19.6353 5.79013 19.741C5.89424 19.8467 5.89424 19.9523 5.89424 20.058C5.89424 20.1637 5.79013 20.2694 5.79013 20.3751C5.58189 20.5864 5.26954 20.5864 5.16542 20.3751C5.06131 20.2694 5.06131 20.1637 5.06131 20.058C5.06131 19.9523 5.06131 19.8467 5.16542 19.741C5.16542 19.741 5.37366 19.6353 5.47778 19.6353ZM7.456 8.11603L5.47778 6.10809L3.49955 8.11603C3.29132 8.3274 2.97897 8.3274 2.87485 8.11603C2.77073 7.90467 2.66661 7.58763 2.77073 7.48195L5.16542 5.15696C5.37366 4.9456 5.68601 4.9456 5.79013 5.15696L8.0807 7.48195C8.28894 7.69331 8.28894 8.01035 8.0807 8.11603C7.97659 8.3274 7.66424 8.3274 7.456 8.11603ZM12.3527 3.59316C12.3527 1.58522 13.9144 0 15.8926 0C17.8709 0 19.4326 1.58522 19.4326 3.59316C19.4326 5.60111 17.8709 7.18633 15.8926 7.18633C13.9144 7.18633 12.3527 5.60111 12.3527 3.59316ZM26.6136 18.6842C26.6136 18.4728 26.8218 18.1558 27.1341 18.1558C27.3424 18.1558 27.6547 18.3671 27.6547 18.6842C27.6547 18.8955 27.4465 19.2126 27.1341 19.2126C26.8218 19.1069 26.6136 18.8955 26.6136 18.6842ZM26.6136 9.91262C26.6136 9.70125 26.8218 9.38421 27.1341 9.38421C27.3424 9.38421 27.6547 9.59557 27.6547 9.91262C27.6547 10.124 27.4465 10.441 27.1341 10.441C26.8218 10.3353 26.6136 10.124 26.6136 9.91262ZM27.1341 15.3024C27.3424 15.3024 27.6547 15.5137 27.6547 15.8308C27.6547 16.1478 27.4465 16.3592 27.1341 16.3592C26.8218 16.3592 26.6136 16.0421 26.6136 15.7251C26.6136 15.408 26.8218 15.3024 27.1341 15.3024ZM27.1341 13.8228C27.3424 13.8228 27.6547 14.0342 27.6547 14.3512C27.6547 14.6683 27.4465 14.8796 27.1341 14.8796C26.8218 14.8796 26.6136 14.5626 26.6136 14.2455C26.6136 13.9285 26.8218 13.8228 27.1341 13.8228ZM27.1341 7.90467C27.3424 7.90467 27.6547 8.11604 27.6547 8.43308C27.6547 8.64444 27.4465 8.96149 27.1341 8.96149C26.8218 8.96149 26.6136 8.64444 26.6136 8.43308C26.6136 8.11604 26.8218 7.90467 27.1341 7.90467ZM26.6136 17.2046C26.6136 16.9933 26.8218 16.6762 27.1341 16.6762C27.3424 16.6762 27.6547 16.8876 27.6547 17.2046C27.6547 17.416 27.4465 17.733 27.1341 17.733C26.8218 17.733 26.6136 17.5217 26.6136 17.2046ZM27.1341 19.6353C27.2383 19.6353 27.3424 19.6353 27.4465 19.741C27.5506 19.8467 27.5506 19.9523 27.5506 20.058C27.5506 20.1637 27.5506 20.2694 27.4465 20.3751C27.2383 20.5864 26.9259 20.5864 26.8218 20.3751C26.7177 20.3751 26.6136 20.2694 26.6136 20.1637C26.6136 20.058 26.7177 19.9523 26.7177 19.8467C26.8218 19.741 27.03 19.6353 27.1341 19.6353ZM27.1341 6.42514C27.3424 6.42514 27.6547 6.6365 27.6547 6.95354C27.6547 7.1649 27.4465 7.48195 27.1341 7.48195C26.8218 7.48195 26.6136 7.1649 26.6136 6.95354C26.6136 6.6365 26.8218 6.42514 27.1341 6.42514ZM21.4077 11.7092V21.2205C21.4077 21.5376 21.1995 21.7489 20.9912 21.7489H19.3254V27.6671C19.3254 28.5125 18.7007 29.1466 17.8677 29.1466H13.5989C12.766 29.1466 12.0372 28.4068 12.0372 27.5614V21.7489H10.3713C10.163 21.7489 9.95481 21.5376 9.95481 21.2205V11.7092C9.95481 9.59557 11.3083 7.90467 13.0783 7.90467H18.1801C19.9501 7.79899 21.4077 9.59557 21.4077 11.7092ZM29.7371 8.11603C29.5288 8.3274 29.2165 8.3274 29.1124 8.11603L27.1341 6.10809L25.1559 8.11603C24.9477 8.3274 24.6353 8.3274 24.5312 8.11603C24.4271 7.90467 24.323 7.58763 24.5312 7.48195L26.9259 5.15696C27.1341 4.9456 27.4465 4.9456 27.5506 5.15696L29.7371 7.48195C29.9453 7.58763 29.9453 7.90467 29.7371 8.11603ZM26.6136 11.3922C26.6136 11.1808 26.8218 10.8637 27.1341 10.8637C27.3424 10.8637 27.6547 11.0751 27.6547 11.3922C27.6547 11.7092 27.3424 11.8149 27.1341 11.8149C26.8218 11.8149 26.6136 11.6035 26.6136 11.3922ZM26.6136 12.766C26.6136 12.5546 26.8218 12.2376 27.1341 12.2376C27.3424 12.2376 27.6547 12.449 27.6547 12.766C27.6547 13.0831 27.4465 13.2944 27.1341 13.2944C26.8218 13.2944 26.6136 13.0831 26.6136 12.766Z" fill="url(#paint0_linear_3_16)"/>
<defs>
<linearGradient id="paint0_linear_3_16" x1="29.8932" y1="0" x2="-4.66334" y2="16.7709" gradientUnits="userSpaceOnUse">
<stop stop-color="#FE7E27"/>
<stop offset="1" stop-color="#C748F3"/>
</linearGradient>
</defs>
</svg>
