<svg width="32" height="32" viewBox="0 0 32 32" fill="none" xmlns="http://www.w3.org/2000/svg">
<path d="M15.9993 0C7.1881 0 0 7.18841 0 16C0 24.8116 7.1881 32 15.9993 32C24.8105 32 31.9986 24.8116 31.9986 16C32.1146 7.18841 24.9265 0 15.9993 0ZM15.0718 30.029V20.1739C14.4921 19.942 13.9124 19.7101 13.2168 19.5942C12.4053 20.2899 11.3618 20.6377 10.2025 20.7536C9.15902 20.7536 8.11559 20.2899 7.18809 19.5942C5.68091 19.942 4.17373 20.5217 3.01436 21.5652C0.115937 14.3768 3.47811 6.14493 10.6662 3.13043C17.8543 0.115942 25.9699 3.47826 28.9843 10.6667C30.4914 14.1449 30.4914 18.087 28.9843 21.5652C27.7089 20.6377 26.3177 19.942 24.8105 19.5942C23.0715 21.1014 20.5209 21.1014 18.8977 19.5942C18.318 19.7101 17.6224 19.942 17.0427 20.1739V30.1449C16.6949 30.1449 16.3471 30.1449 15.9993 30.1449C15.7674 30.1449 15.4196 30.029 15.0718 30.029ZM10.2025 9.15942C12.7531 9.15942 14.8399 11.2464 14.8399 13.7971C14.8399 16.3478 12.7531 18.4348 10.2025 18.4348C7.65184 18.4348 5.56498 16.3478 5.56498 13.7971C5.56498 11.2464 7.65184 9.15942 10.2025 9.15942ZM21.9121 9.15942C24.4627 9.15942 26.5496 11.2464 26.5496 13.7971C26.5496 16.3478 24.4627 18.4348 21.9121 18.4348C19.3615 18.4348 17.2746 16.3478 17.2746 13.7971C17.2746 11.2464 19.2455 9.15942 21.9121 9.15942Z" fill="url(#paint0_linear_3_24)"/>
<defs>
<linearGradient id="paint0_linear_3_24" x1="32" y1="0" x2="-5.90551" y2="21.67" gradientUnits="userSpaceOnUse">
<stop stop-color="#FE7E27"/>
<stop offset="1" stop-color="#C748F3"/>
</linearGradient>
</defs>
</svg>
