<svg width="32" height="32" viewBox="0 0 32 32" fill="none" xmlns="http://www.w3.org/2000/svg">
<path d="M19.897 11.728L16.6762 13.4331C16.5815 13.5278 16.392 13.5278 16.2025 13.5278C15.8236 13.4331 15.5394 13.0542 15.6342 12.6752L16.2973 9.07554C16.2973 8.88608 16.2973 8.60189 16.1078 8.41243L13.4554 5.85474C13.2659 5.76001 13.2659 5.66529 13.1712 5.47583C13.0765 5.09691 13.3607 4.71799 13.7396 4.62326L17.3393 4.05489C17.5288 4.05489 17.8129 3.86543 17.9077 3.67597L19.5181 0.36045C19.6128 0.265721 19.7075 0.0762628 19.8023 0.0762628C20.1812 -0.113196 20.5601 0.0762628 20.7495 0.36045L22.3599 3.67597C22.4547 3.86543 22.6441 4.05489 22.9283 4.05489L26.528 4.62326C26.7175 4.62326 26.8122 4.71799 26.9069 4.81272C27.1911 5.09691 27.1911 5.57056 26.9069 5.85474L24.2545 8.41243C24.2545 8.60189 24.1598 8.88608 24.2545 9.07554L24.9176 12.6752C24.9176 12.8647 24.9176 12.9594 24.8229 13.1489C24.6334 13.5278 24.1598 13.6225 23.8756 13.4331L20.6548 11.728C20.3706 11.6332 20.0864 11.6332 19.897 11.728ZM8.71894 14.4751L6.54017 15.6118C6.44544 15.7066 6.35071 15.7066 6.25598 15.7066C5.97179 15.7066 5.78233 15.4224 5.87706 15.1382L6.25598 12.77C6.25598 12.5805 6.25598 12.4858 6.16125 12.3911L4.45613 10.6859C4.3614 10.5912 4.26667 10.4965 4.26667 10.4017C4.26667 10.1176 4.3614 9.9281 4.64558 9.83337L7.10854 9.45445C7.298 9.45445 7.39273 9.35972 7.48746 9.17027L8.52948 6.99149C8.52948 6.89676 8.62421 6.80204 8.71894 6.80204C8.9084 6.70731 9.19259 6.80204 9.38204 6.99149L10.4241 9.17027C10.5188 9.26499 10.6135 9.35972 10.803 9.45445L13.1712 9.83337C13.2659 9.83337 13.3607 9.9281 13.4554 9.9281C13.6449 10.1176 13.6449 10.4017 13.4554 10.5912L11.7503 12.2963C11.6555 12.3911 11.5608 12.5805 11.6555 12.6752L12.0345 15.0435C12.0345 15.1382 12.0345 15.2329 11.9397 15.3277C11.845 15.5171 11.5608 15.6118 11.2766 15.5171L9.09786 14.3804C9.00313 14.4751 8.81367 14.4751 8.71894 14.4751ZM21.0337 23.6638C21.2232 23.3796 21.3179 23.0007 21.3179 22.6218C21.3179 21.864 21.2232 21.0114 21.1285 20.2536C21.1285 20.1588 21.1285 20.1589 21.1285 20.0641C20.939 19.6852 20.5601 19.401 20.0864 19.5905C18.9497 19.9694 18.9497 21.4851 19.1392 22.2429C19.2339 22.8113 19.2339 23.2849 19.1392 23.8533C19.0444 24.2322 18.9497 24.5164 18.855 24.8953V24.99C18.855 25.0848 18.9497 25.0848 19.0444 25.0848C19.3286 24.99 19.5181 24.8953 19.7075 24.8006C19.897 24.7059 20.0864 24.6111 20.1812 24.5164C20.5601 24.2322 20.7495 23.948 21.0337 23.6638ZM17.3393 25.7479C17.6235 25.7479 17.7182 25.5584 17.8129 25.369C17.9077 24.4217 17.9077 23.3796 17.8129 22.4324V22.3376C17.7182 21.9587 17.3393 21.6745 16.8657 21.7692C15.7289 22.0534 15.7289 23.6638 15.7289 24.4217C15.7289 24.6111 15.6342 24.8953 15.4447 25.1795C15.4447 25.1795 15.4447 25.1795 15.4447 25.2742C15.4447 25.4637 15.5394 25.5584 15.6342 25.6531C16.2025 25.6531 16.7709 25.7479 17.3393 25.7479ZM25.3913 21.864C25.486 21.5798 25.2965 21.2009 24.9176 21.2009C23.4967 20.822 22.8336 22.1482 22.5494 23.0955C22.2652 24.0427 21.6968 24.8953 20.8443 25.369C20.6548 25.4637 20.5601 25.5584 20.3706 25.6531C19.8023 25.9373 19.1392 26.2215 18.476 26.2215C15.5394 26.5057 13.929 25.6531 13.0765 24.8006C12.4134 24.1375 12.1292 23.2849 12.3186 22.3376C12.4134 22.0534 12.4134 21.864 12.4134 21.6745C12.5081 21.2956 12.5081 21.0114 12.4134 20.6325C12.1292 18.9274 11.1819 18.359 10.5188 18.1695H10.4241C10.1399 18.1695 9.85569 18.359 9.85569 18.6432C9.85569 19.4957 9.76096 20.3483 9.5715 21.2009C9.66623 21.864 9.38204 22.4324 9.00313 22.8113C8.52948 23.2849 8.24529 23.7586 7.96111 24.3269C7.96111 24.4217 7.86638 24.5164 7.86638 24.5164C7.298 25.369 6.25598 25.7479 5.6876 25.8426C5.40342 26.0321 5.21396 26.2215 5.21396 26.5057V31.4316C5.21396 31.7158 5.49815 32 5.78233 32C7.01381 32 8.15056 31.9053 9.38204 31.7158C10.0451 31.6211 11.0872 31.3369 11.7503 31.2422C13.0765 30.8633 14.4027 30.5791 15.7289 30.2949C17.434 30.1054 19.7075 29.537 20.6548 29.3476C20.939 29.2529 21.1285 29.1581 21.2232 28.9687C22.0758 27.9266 23.2125 27.3583 23.8756 26.9794C24.2545 26.7899 24.444 26.5057 24.5387 26.1268C24.7282 24.4217 25.2018 22.7165 25.3913 21.864Z" fill="url(#paint0_linear_3_18)"/>
<defs>
<linearGradient id="paint0_linear_3_18" x1="27.1201" y1="0" x2="-3.66641" y2="12.5695" gradientUnits="userSpaceOnUse">
<stop stop-color="#FE7E27"/>
<stop offset="1" stop-color="#C748F3"/>
</linearGradient>
</defs>
</svg>
