<svg width="32" height="32" viewBox="0 0 32 32" fill="none" xmlns="http://www.w3.org/2000/svg">
<path d="M16.6194 28.763C16.5269 28.763 16.5269 28.763 16.4344 28.763C16.3419 28.763 16.2495 28.763 16.2495 28.763C3.20899 23.2139 5.42864 7.95376 5.42864 7.76879C5.52113 7.58381 5.7061 7.39884 5.89107 7.30636C11.7177 6.84393 15.972 3.14451 15.972 3.05202C16.157 2.86705 16.4344 2.86705 16.6194 3.05202C16.6194 3.05202 20.9662 6.75145 26.7003 7.30636C26.9778 7.30636 27.1627 7.49133 27.1627 7.76879C27.3477 7.95376 29.4749 23.2139 16.6194 28.763ZM29.8448 5.64162C22.9084 4.90173 17.7292 1.10983 16.3419 0C14.9547 1.10983 9.86795 4.90173 2.83905 5.64162C2.65407 6.93642 2.37662 11.1908 3.48644 16C5.24367 23.5838 9.59049 28.948 16.3419 32C23.0934 29.0405 27.4402 23.6763 29.1974 16C30.3073 11.1908 29.9373 6.93642 29.8448 5.64162ZM19.8564 12.3006L15.6021 16.4624C15.4171 16.6474 15.0471 16.6474 14.8622 16.4624L13.0125 14.7052C12.8275 14.5202 12.55 14.4277 12.2726 14.4277C11.9951 14.4277 11.7177 14.5202 11.5327 14.7977C11.1627 15.2601 11.1627 15.9075 11.5327 16.2775L14.4922 19.1445C14.8622 19.5145 15.6021 19.5145 15.972 19.1445L21.3362 13.9653C21.5211 13.7803 21.6136 13.5029 21.6136 13.2254C21.6136 12.948 21.5211 12.6705 21.3362 12.4855C20.9662 11.9306 20.2263 11.9306 19.8564 12.3006ZM22.076 14.6127L16.7119 19.7919C16.3419 20.1619 15.787 20.4393 15.2321 20.4393C14.6772 20.4393 14.1223 20.2543 13.7523 19.8844L10.7928 17.0173C9.96043 16.185 9.96043 14.8902 10.7928 14.0578C11.6252 13.2254 12.92 13.2254 13.7523 14.0578L15.2321 15.4451L19.1165 11.6532C19.9489 10.8208 21.2437 10.8208 22.076 11.6532C22.446 12.0231 22.7234 12.578 22.7234 13.1329C22.7234 13.6879 22.446 14.1503 22.076 14.6127ZM16.3419 4.16185C15.2321 5.08671 11.4402 7.76879 6.44598 8.3237C6.16853 10.7283 5.52113 22.9364 16.3419 27.7457C27.1627 22.9364 26.5153 10.6358 26.3304 8.3237C21.2437 7.76879 17.4518 5.08671 16.3419 4.16185Z" fill="url(#paint0_linear_3_33)"/>
<defs>
<linearGradient id="paint0_linear_3_33" x1="29.9784" y1="0" x2="-4.69274" y2="16.917" gradientUnits="userSpaceOnUse">
<stop stop-color="#FE7E27"/>
<stop offset="1" stop-color="#C748F3"/>
</linearGradient>
</defs>
</svg>
