<svg width="0" height="0" class="hidden">
  <symbol xmlns="http://www.w3.org/2000/svg" viewBox="0 0 24 24" id="search">
    <path fill-rule="evenodd" clip-rule="evenodd" d="M4.40554 10.3936C4.40554 7.6037 6.68576 5.33199 9.52897 5.33199C12.3722 5.33199 14.6524 7.6037 14.6524 10.3936C14.6524 13.1834 12.3722 15.4552 9.52897 15.4552C6.68576 15.4552 4.40554 13.1834 4.40554 10.3936ZM9.52897 4.33199C6.14308 4.33199 3.40554 7.04187 3.40554 10.3936C3.40554 13.7453 6.14308 16.4552 9.52897 16.4552C12.9149 16.4552 15.6524 13.7453 15.6524 10.3936C15.6524 7.04187 12.9149 4.33199 9.52897 4.33199ZM20.1019 18.7396L16.0677 14.746L14.6606 16.1674L18.6949 20.1609L20.1019 18.7396Z"></path>
  </symbol>
  <symbol xmlns="http://www.w3.org/2000/svg" viewBox="0 0 24 24" id="arrow-type-3">
    <path fill-rule="evenodd" clip-rule="evenodd" d="M11.4999 6.6555L6.86858 11.7079L6.13142 11.0321L11.6314 5.0321L12 4.63L12.3686 5.0321L17.8686 11.0321L17.1314 11.7079L12.4999 6.6553L12.4999 19.37L11.4999 19.37L11.4999 6.6555Z"></path>
  </symbol>
  <symbol fill="none" xmlns="http://www.w3.org/2000/svg" viewBox="0 0 24 24" id="coin-type-1-gradient">
    <path fill-rule="evenodd" clip-rule="evenodd" d="M12.5 4.4C13.3 4.2 14.1 4 15 4C19.4 4 23 7.6 23 12C23 16.4 19.4 20 15 20C14.1 20 13.3 19.9 12.5 19.6C11.7 19.9 10.9 20 10 20C5.6 20 2 16.4 2 12C2 7.6 5.6 4 10 4C10.9 4 11.7 4.1 12.5 4.4ZM10 5C6.1 5 3 8.1 3 12C3 15.9 6.1 19 10 19C13.9 19 17 15.9 17 12C17 8.1 13.9 5 10 5ZM15.5 17.8C15 18.2 14.6 18.5 14.1 18.8C14.4 18.9 14.7 18.9 15 18.9C18.8 18.9 21.9 15.8 21.9 12C21.9 8.2 18.8 5.1 15 5.1C14.85 5.1 14.7 5.125 14.55 5.15C14.4 5.175 14.25 5.2 14.1 5.2C14.6 5.5 15.1 5.8 15.5 6.2C18.5 6.4 20.9 8.9 20.9 12C20.9 15 18.5 17.6 15.5 17.8ZM10 18C13.3137 18 16 15.3137 16 12C16 8.68629 13.3137 6 10 6C6.68629 6 4 8.68629 4 12C4 15.3137 6.68629 18 10 18ZM12 11.4C12.4 11 12.6 10.5 12.6 10C12.6 8.9 11.7 8 10.6 8H8V16H10.5C11.6 16 12.6 15.4 13 14.3C13.1 14 13.1 13.8 13.1 13.5C13.1 12.6 12.7 11.9 12 11.4ZM10.6 9C11.2 9 11.6 9.4 11.6 10C11.6 10.6 11.2 11 10.6 11H9V9H10.6ZM12 14C11.8 14.6 11.2 15 10.5 15H9V12H10.6C11.4 12 12.1 12.7 12.1 13.5C12.1 13.7 12.1 13.8 12 14Z" fill="url(#paint0_linear_1_21)"></path>
    <defs>
      <linearGradient id="paint0_linear_1_21" x1="2" y1="20" x2="5.19295" y2="1.0065" gradientUnits="userSpaceOnUse">
        <stop stop-color="#FC9358"></stop>
        <stop offset="1" stop-color="#FDD368"></stop>
      </linearGradient>
    </defs>
  </symbol>
  <symbol fill="none" xmlns="http://www.w3.org/2000/svg" viewBox="0 0 24 24" id="star-type-1-gradient">
    <path fill-rule="evenodd" clip-rule="evenodd" d="M9.55778 9.32272L4.52959 10.3433L8.03105 14.2904L7.40745 19.5662L12 17.322L16.5925 19.5662L15.969 14.2904L19.4704 10.3433L14.4405 9.32238L12.0076 4.71873L9.55778 9.32272ZM12.5747 3.65172L12.3406 3.20872C12.1892 2.93043 11.8108 2.93043 11.6783 3.20872L8.89656 8.43653L3.31418 9.56956C3.0114 9.62919 2.89787 10.0069 3.10602 10.2454L6.98531 14.6185L6.28514 20.542C6.2473 20.8601 6.55008 21.0986 6.83393 20.9594L12 18.435L17.1661 20.9594C17.431 21.0986 17.7527 20.8601 17.7149 20.542L17.0147 14.6185L20.894 10.2454C21.1021 10.0069 20.9886 9.62919 20.6858 9.56956L15.1034 8.43653L12.5747 3.65172Z" fill="url(#paint0_linear_1_27)"></path>
    <path d="M10.2759 10.5203L7.17454 11.1498C7.00633 11.1829 6.94326 11.3927 7.0589 11.5252L9.21406 13.9547L8.82508 17.2456C8.80405 17.4223 8.97226 17.5548 9.12996 17.4775L12 16.075L14.87 17.4775C15.0172 17.5548 15.1959 17.4223 15.1749 17.2456L14.7859 13.9547L16.9411 11.5252C17.0567 11.3927 16.9937 11.1829 16.8255 11.1498L13.7241 10.5203L12.1892 7.61595C12.1051 7.46135 11.8949 7.46135 11.8213 7.61595L10.2759 10.5203Z" fill="url(#paint1_linear_1_27)"></path>
    <defs>
      <linearGradient id="paint0_linear_1_27" x1="3" y1="21" x2="7.62278" y2="0.0484328" gradientUnits="userSpaceOnUse">
        <stop stop-color="#FC9358"></stop>
        <stop offset="1" stop-color="#FDD368"></stop>
      </linearGradient>
      <linearGradient id="paint1_linear_1_27" x1="7" y1="17.5" x2="9.56821" y2="5.86024" gradientUnits="userSpaceOnUse">
        <stop stop-color="#FC9358"></stop>
        <stop offset="1" stop-color="#FDD368"></stop>
      </linearGradient>
    </defs>
  </symbol>
  <symbol xmlns="http://www.w3.org/2000/svg" viewBox="0 0 24 24" id="lock">
    <path d="M16.2934 11.2506V14.3386C16.2934 16.912 14.2347 18.9707 11.6614 18.9707C9.08803 18.9707 7.02934 16.912 7.02934 14.3386V11.2506H16.2934ZM17.3228 10.2212H6V14.3386C6 17.4781 8.52189 20 11.6614 20C14.8009 20 17.3228 17.4781 17.3228 14.3386V10.2212Z"></path>
    <path fill-rule="evenodd" clip-rule="evenodd" d="M11.0241 4.06493C13.7004 3.66018 16.0214 5.75565 16.0214 8.36843C16.0214 8.64457 15.7976 8.86843 15.5214 8.86843C15.2453 8.86843 15.0214 8.64457 15.0214 8.36843C15.0214 6.3505 13.2275 4.74115 11.1705 5.05417L11.1622 5.05543C9.52935 5.27608 8.30136 6.79299 8.30136 8.47136V10.4786C8.30136 10.7547 8.0775 10.9786 7.80136 10.9786C7.52522 10.9786 7.30136 10.7547 7.30136 10.4786V8.47136C7.30136 6.34252 8.85064 4.3609 11.0241 4.06493Z"></path>
    <path d="M11.6614 15.368C12.2299 15.368 12.6907 14.9071 12.6907 14.3386C12.6907 13.7701 12.2299 13.3093 11.6614 13.3093C11.0929 13.3093 10.632 13.7701 10.632 14.3386C10.632 14.9071 11.0929 15.368 11.6614 15.368Z"></path>
    <path d="M11.6614 16.912C11.3526 16.912 11.1467 16.7061 11.1467 16.3973V14.3386H12.1761V16.3973C12.1761 16.6546 11.9702 16.912 11.6614 16.912Z"></path>
  </symbol>
  <symbol xmlns="http://www.w3.org/2000/svg" viewBox="0 0 24 24" id="view">
    <path fill-rule="evenodd" clip-rule="evenodd" d="M19.7173 12.3296C19.7315 12.3477 19.7414 12.3604 19.7468 12.3671L20 12.7468L19.731 13.1266C18.8608 14.25 17.8323 15.231 16.6772 16.038L15.5538 16.7025C14.6203 17.2089 13.576 17.4778 12.5 17.4937C8.67108 17.4937 5.65922 13.6272 5.29984 13.1658C5.28497 13.1468 5.27465 13.1335 5.26899 13.1266L5 12.7468L5.26899 12.3671C6.13924 11.2595 7.16772 10.2627 8.32278 9.4557L9.4462 8.79114C10.3797 8.28481 11.4241 8.01582 12.5 8C16.3339 8 19.3632 11.8765 19.7173 12.3296ZM14.6203 15.7532L15.7753 15.1202C16.7722 14.4557 17.6582 13.6646 18.4335 12.7468C17.6108 11.7816 15.2215 9.26582 12.5158 9.26582C11.788 9.28164 11.0759 9.43987 10.4114 9.74051L9.25633 10.3734C8.25949 11.038 7.37342 11.8291 6.61392 12.7468C7.42089 13.712 9.81013 16.2278 12.5158 16.2278C13.2437 16.212 13.9557 16.0538 14.6203 15.7532ZM10.7912 12.7468C10.7912 13.6804 11.5506 14.4557 12.5 14.4557C13.4494 14.4557 14.2247 13.6962 14.2089 12.7468C14.2089 11.8133 13.4494 11.038 12.5 11.038C11.5665 11.038 10.7912 11.7975 10.7912 12.7468ZM9.52533 12.7468C9.52533 11.1013 10.8544 9.77215 12.5 9.77215C14.1456 9.77215 15.4905 11.1013 15.4747 12.7468C15.4747 14.3924 14.1456 15.7215 12.5 15.7215C10.8544 15.7215 9.52533 14.3924 9.52533 12.7468Z"></path>
  </symbol>
  <symbol xmlns="http://www.w3.org/2000/svg" viewBox="0 0 24 24" id="info">
    <path d="M13.3371 6.27565C13.1099 6.45173 12.9461 6.6975 12.8706 6.97564C12.7534 7.51765 13.1268 7.95961 13.7046 7.9628C13.9915 7.96002 14.2696 7.86324 14.4967 7.68715C14.7239 7.51106 14.8877 7.26529 14.9632 6.98716C15.0804 6.44514 14.707 6.00319 14.1292 6C13.8423 6.00278 13.5642 6.09956 13.3371 6.27565Z"></path>
    <path d="M13.1201 15.5085C12.8987 16.5321 13.812 16.4339 14.8456 15.8358C14.8668 15.8239 14.8915 15.8199 14.9154 15.8244C14.9393 15.829 14.9608 15.8418 14.9763 15.8606C14.9918 15.8795 15.0001 15.9032 15 15.9276C14.9999 15.9521 14.9912 15.9757 14.9755 15.9943C14.3869 16.6959 13.6695 17.2771 12.8624 17.7062C11.7382 18.2801 10.4839 18.0083 10.7163 16.9338L11.8798 11.5546C12.1012 10.5311 11.188 10.6293 10.1544 11.2273C10.1332 11.2392 10.1085 11.2432 10.0846 11.2387C10.0607 11.2342 10.0392 11.2214 10.0237 11.2025C10.0083 11.1837 9.99986 11.1599 10 11.1355C10.0001 11.1111 10.0088 11.0875 10.0245 11.0688C10.6131 10.3673 11.3305 9.78609 12.1376 9.357C13.2618 8.78301 14.5161 9.05484 14.2837 10.1293L13.1201 15.5085Z"></path>
  </symbol>
  <symbol xmlns="http://www.w3.org/2000/svg" viewBox="0 0 24 24" id="bookmark-fill">
    <path fill-rule="evenodd" clip-rule="evenodd" d="M6 6.2061C6 5.65382 6.44772 5.2061 7 5.2061H17C17.5523 5.2061 18 5.65382 18 6.2061V17.7919C18 18.6828 16.9229 19.129 16.2929 18.499L12.7071 14.9132C12.3166 14.5227 11.6834 14.5227 11.2929 14.9132L7.70711 18.499C7.07714 19.129 6 18.6828 6 17.7919V6.2061ZM9 8.2061H15V9.2061H9V8.2061ZM15 10.2061H9V11.2061H15V10.2061Z"></path>
  </symbol>
  <symbol xmlns="http://www.w3.org/2000/svg" viewBox="0 0 24 24" id="bookmark-outline">
    <path fill-rule="evenodd" clip-rule="evenodd" d="M17 6.20609H7V17.7919L10.5858 14.2061C11.3668 13.4251 12.6332 13.4251 13.4142 14.2061L17 17.7919V6.20609ZM7 5.20609C6.44772 5.20609 6 5.65381 6 6.20609V17.7919C6 18.6828 7.07714 19.129 7.70711 18.499L11.2929 14.9132C11.6834 14.5227 12.3166 14.5227 12.7071 14.9132L16.2929 18.499C16.9229 19.129 18 18.6828 18 17.7919V6.20609C18 5.65381 17.5523 5.20609 17 5.20609H7ZM9 8.20609H15V9.20609H9V8.20609ZM15 10.2061H9V11.2061H15V10.2061Z"></path>
  </symbol>
  <symbol xmlns="http://www.w3.org/2000/svg" viewBox="0 0 24 24" id="close">
    <path fill-rule="evenodd" clip-rule="evenodd" d="M12 12.7071L18.6464 19.3536L19.3536 18.6465L12.7071 12L19.3536 5.35357L18.6464 4.64646L12 11.2929L5.35355 4.64646L4.64645 5.35357L11.2929 12L4.64645 18.6465L5.35355 19.3536L12 12.7071Z"></path>
  </symbol>
  <symbol xmlns="http://www.w3.org/2000/svg" viewBox="0 0 12 12" id="arrow-type-1">
    <path fill-rule="evenodd" clip-rule="evenodd" d="M4.9997 2.63749L4.9997 10.9992L6.9997 10.9992L6.9997 2.63749L4.9997 2.63749Z"></path>
    <path fill-rule="evenodd" clip-rule="evenodd" d="M6 1.00081L1.11204 5.88877L2.52626 7.30298L6 3.82924L9.47374 7.30298L10.888 5.88877L6 1.00081Z"></path>
  </symbol>
  <symbol xmlns="http://www.w3.org/2000/svg" viewBox="0 0 24 24" id="vk">
    <path d="M12.6277 15.554C12.6277 15.554 12.8587 15.5288 12.977 15.4041C13.0854 15.2898 13.0816 15.0741 13.0816 15.0741C13.0816 15.0741 13.0672 14.0669 13.5436 13.9182C14.0132 13.7719 14.616 14.8922 15.2559 15.323C15.7392 15.6487 16.106 15.5774 16.106 15.5774L17.8158 15.554C17.8158 15.554 18.7098 15.5 18.2859 14.8098C18.2509 14.7533 18.0386 14.2992 17.0151 13.3663C15.9426 12.3898 16.0866 12.5478 17.3775 10.8584C18.1639 9.82972 18.4781 9.20167 18.3798 8.93313C18.2866 8.67625 17.7081 8.74447 17.7081 8.74447L15.7836 8.75614C15.7836 8.75614 15.6409 8.73709 15.5351 8.79916C15.4318 8.86 15.3648 9.00195 15.3648 9.00195C15.3648 9.00195 15.0605 9.79777 14.6542 10.475C13.7972 11.9031 13.4547 11.9787 13.3145 11.8902C12.9883 11.6831 13.0697 11.0594 13.0697 10.6163C13.0697 9.23179 13.2838 8.65475 12.6534 8.50542C12.4443 8.45564 12.2903 8.42307 11.755 8.41754C11.0682 8.41078 10.4872 8.42 10.1579 8.57793C9.93883 8.68301 9.7698 8.91776 9.8731 8.93128C10.0002 8.94787 10.2882 9.00748 10.4409 9.21151C10.6381 9.47514 10.6312 10.0663 10.6312 10.0663C10.6312 10.0663 10.7446 11.696 10.3664 11.8982C10.1072 12.0371 9.75164 11.7538 8.98724 10.4578C8.59596 9.79408 8.30046 9.06033 8.30046 9.06033C8.30046 9.06033 8.24349 8.92329 8.14144 8.84955C8.01811 8.76044 7.84595 8.73279 7.84595 8.73279L6.01726 8.74447C6.01726 8.74447 5.74243 8.75184 5.64163 8.86922C5.55211 8.97307 5.63475 9.18877 5.63475 9.18877C5.63475 9.18877 7.06652 12.4771 8.68798 14.1345C10.1749 15.6536 11.8627 15.554 11.8627 15.554H12.6277Z"></path>
  </symbol>
  <symbol xmlns="http://www.w3.org/2000/svg" viewBox="0 0 24 24" id="twitter">
    <path d="M11.8323 9.75375L11.8574 10.169L11.4377 10.1181C9.91008 9.92323 8.57548 9.26225 7.44232 8.15216L6.88833 7.60135L6.74564 8.0081C6.44346 8.91482 6.63652 9.87238 7.26605 10.5164C7.6018 10.8723 7.52626 10.9232 6.94709 10.7113C6.74564 10.6435 6.56937 10.5927 6.55258 10.6181C6.49383 10.6774 6.69528 11.4486 6.85476 11.7536C7.07299 12.1773 7.51786 12.5925 8.0047 12.8383L8.41599 13.0332L7.92916 13.0417C7.45911 13.0417 7.44232 13.0501 7.49268 13.2281C7.66056 13.7789 8.32366 14.3636 9.06231 14.6178L9.58273 14.7958L9.12946 15.067C8.45796 15.4568 7.66895 15.6771 6.87994 15.694C6.50222 15.7025 6.19165 15.7364 6.19165 15.7618C6.19165 15.8466 7.21569 16.3211 7.81164 16.5075C9.59951 17.0584 11.7231 16.8211 13.3179 15.8805C14.4511 15.211 15.5843 13.8806 16.1131 12.5925C16.3985 11.9061 16.6838 10.652 16.6838 10.0503C16.6838 9.66053 16.709 9.60969 17.1791 9.14362C17.4561 8.87245 17.7163 8.57586 17.7666 8.49112C17.8506 8.33011 17.8422 8.33011 17.4141 8.47417C16.7006 8.72839 16.5999 8.69449 16.9524 8.31316C17.2126 8.04199 17.5232 7.5505 17.5232 7.40644C17.5232 7.38102 17.3973 7.42339 17.2546 7.49966C17.1035 7.5844 16.7678 7.71151 16.516 7.78777L16.0627 7.93183L15.6514 7.65219C15.4248 7.49966 15.1058 7.33018 14.9379 7.27933C14.5099 7.1607 13.8551 7.17764 13.469 7.31323C12.4198 7.69456 11.7567 8.67755 11.8323 9.75375Z"></path>
  </symbol>
  <symbol xmlns="http://www.w3.org/2000/svg" viewBox="0 0 24 24" id="telegram">
    <path d="M10.5876 13.7506L10.3835 16.8095C10.6835 16.8095 10.816 16.6723 10.9835 16.5095L12.4248 15.108L15.4235 17.3234C15.9753 17.6279 16.3736 17.4702 16.5111 16.8111L18.4796 7.53475C18.6811 6.72673 18.1716 6.36025 17.6436 6.59993L6.08463 11.057C5.29562 11.3735 5.30022 11.8137 5.94081 12.0098L8.9071 12.9357L15.7744 8.60316C16.0986 8.40657 16.3961 8.51226 16.1519 8.729L10.5875 13.7505L10.5876 13.7506Z"></path>
  </symbol>
  <symbol xmlns="http://www.w3.org/2000/svg" viewBox="0 0 24 24" id="star-type-1">
    <path fill-rule="evenodd" clip-rule="evenodd" d="M9.55778 9.32272L4.52959 10.3433L8.03105 14.2904L7.40745 19.5662L12 17.322L16.5925 19.5662L15.969 14.2904L19.4704 10.3433L14.4405 9.32238L12.0076 4.71873L9.55778 9.32272ZM12.5747 3.65172L12.3406 3.20872C12.1892 2.93043 11.8108 2.93043 11.6783 3.20872L8.89656 8.43653L3.31418 9.56956C3.0114 9.62919 2.89787 10.0069 3.10602 10.2454L6.98531 14.6185L6.28514 20.542C6.2473 20.8601 6.55008 21.0986 6.83393 20.9594L12 18.435L17.1661 20.9594C17.431 21.0986 17.7527 20.8601 17.7149 20.542L17.0147 14.6185L20.894 10.2454C21.1021 10.0069 20.9886 9.62919 20.6858 9.56956L15.1034 8.43653L12.5747 3.65172Z"></path>
    <path d="M10.2759 10.5203L7.17454 11.1498C7.00633 11.1829 6.94326 11.3927 7.0589 11.5252L9.21406 13.9547L8.82508 17.2456C8.80405 17.4223 8.97226 17.5548 9.12996 17.4775L12 16.075L14.87 17.4775C15.0172 17.5548 15.1959 17.4223 15.1749 17.2456L14.7859 13.9547L16.9411 11.5252C17.0567 11.3927 16.9937 11.1829 16.8255 11.1498L13.7241 10.5203L12.1892 7.61595C12.1051 7.46135 11.8949 7.46135 11.8213 7.61595L10.2759 10.5203Z"></path>
  </symbol>
  <symbol xmlns="http://www.w3.org/2000/svg" viewBox="0 0 24 24" id="share">
    <path fill-rule="evenodd" clip-rule="evenodd" d="M15.5 6.5C14.6356 6.5 14 7.13562 14 8C14 8.86438 14.6356 9.5 15.5 9.5C16.3644 9.5 17 8.86438 17 8C17 7.13562 16.3644 6.5 15.5 6.5ZM13 8C13 6.58333 14.0833 5.5 15.5 5.5C16.9167 5.5 18 6.58333 18 8C18 9.41667 16.9167 10.5 15.5 10.5C14.5935 10.5 13.8235 10.0564 13.3865 9.36579L10.6682 10.7249C10.8802 11.0947 11 11.5289 11 12C11 12.4711 10.8802 12.9053 10.6682 13.2751L13.3865 14.6342C13.8235 13.9436 14.5935 13.5 15.5 13.5C16.9167 13.5 18 14.5833 18 16C18 17.4167 16.9167 18.5 15.5 18.5C14.0833 18.5 13 17.4167 13 16C13 15.8548 13.0114 15.7131 13.0333 15.5757L9.96979 14.0439C9.56161 14.3328 9.05653 14.5 8.5 14.5C7.08333 14.5 6 13.4167 6 12C6 10.5833 7.08333 9.5 8.5 9.5C9.05653 9.5 9.56161 9.66719 9.96979 9.95609L13.0333 8.42431C13.0114 8.28692 13 8.14521 13 8ZM8.5 10.5C7.63562 10.5 7 11.1356 7 12C7 12.8644 7.63562 13.5 8.5 13.5C9.36438 13.5 10 12.8644 10 12C10 11.1356 9.36438 10.5 8.5 10.5ZM15.5 14.5C14.6356 14.5 14 15.1356 14 16C14 16.8644 14.6356 17.5 15.5 17.5C16.3644 17.5 17 16.8644 17 16C17 15.1356 16.3644 14.5 15.5 14.5Z"></path>
  </symbol>
  <symbol xmlns="http://www.w3.org/2000/svg" viewBox="0 0 24 24" id="people">
    <path d="M3.80357 18H14.125C14.2768 18 14.3527 17.8537 14.4286 17.7805C14.4286 14.8537 12 12.5122 8.96429 12.5122C5.92857 12.5122 3.5 14.8537 3.5 17.7073C3.5 17.8537 3.65179 18 3.80357 18Z"></path>
    <path d="M12.1518 9C12.1518 7.39024 10.7857 6 9.04019 6C7.29465 6 5.92858 7.39024 5.92858 9C5.92858 10.6098 7.29465 12.0732 9.04019 12.0732C10.7857 12.0732 12.1518 10.6829 12.1518 9Z"></path>
    <path d="M15.4152 18H20.1964C20.3482 18 20.4241 17.8537 20.5 17.7805C20.5 15.5854 18.6786 13.8293 16.4018 13.8293C15.6429 13.8293 14.9598 14.0488 14.3527 14.3415"></path>
    <path d="M18.7545 10.9024C18.7545 9.58537 17.692 8.56098 16.3259 8.56098C14.9598 8.56098 13.9732 9.65854 13.9732 10.9024C13.9732 12.1463 15.0357 13.2439 16.4018 13.2439C17.692 13.2439 18.7545 12.2195 18.7545 10.9024Z"></path>
  </symbol>
  <symbol xmlns="http://www.w3.org/2000/svg" viewBox="0 0 24 24" id="notification">
    <path fill-rule="evenodd" clip-rule="evenodd" d="M13 5.35616C12.6 5.26027 12.3 5.26027 11.9 5.26027C11.6 5.26027 11.2 5.26027 11 5.35616L10.7 5.45205L10.1 5.64384C7.79995 6.50685 6.69995 8.23288 6.69995 10.726C6.69995 12.4521 6.49995 13.9863 6.19995 15.137H12H17.8C17.5 13.9863 17.3 12.5479 17.3 10.726C17.3 8.23288 16.2 6.50685 13.9 5.64384L13.3 5.45205L13 5.35616ZM9.49995 4.20548C9.49995 2.9589 10.6 2 11.9 2C13.2 2 14.3 2.9589 14.3 4.20548C14.3 4.30137 14.275 4.37329 14.25 4.44521C14.225 4.51712 14.2 4.58904 14.2 4.68493C15.9 5.35616 18.2 6.89041 18.2 10.6301C18.2 13.3151 18.6 14.9452 19.1 16H11.9H4.69995C5.19995 15.0411 5.59995 13.411 5.59995 10.6301C5.59995 6.9863 7.79995 5.35616 9.59995 4.68493C9.49995 4.58904 9.49995 4.39726 9.49995 4.20548ZM10.6 4.20548V4.39726C10.9 4.39726 11.4 4.30137 11.9 4.20548C12.1456 4.24473 12.3576 4.26792 12.5431 4.28819C12.8107 4.31744 13.0228 4.34062 13.2 4.39726V4.20548C13.2 3.53425 12.6 2.9589 11.9 2.9589C11.2 2.9589 10.6 3.53425 10.6 4.20548ZM12 22C10.963 22 10.1481 21.1304 10 20H12H14C13.8519 21.1304 13.037 22 12 22ZM10.4 7.85981C10.4 7.85981 8.79999 8.85981 8.59999 10.3598C8.59999 10.6598 8.29999 10.7598 8.09999 10.7598H7.99999C7.69999 10.7598 7.49999 10.4598 7.59999 10.2598C7.89999 8.25981 9.89999 7.05981 9.89999 7.05981C10.2 6.95981 10.5 6.95981 10.6 7.25981C10.7 7.35981 10.6 7.65981 10.4 7.85981ZM4 17C3.44772 17 3 17.4477 3 18C3 18.5523 3.44772 19 4 19H20C20.5523 19 21 18.5523 21 18C21 17.4477 20.5523 17 20 17H4Z"></path>
  </symbol>
  <symbol xmlns="http://www.w3.org/2000/svg" viewBox="0 0 24 24" id="facebook">
    <path d="M13.0049 18.5279V11.9992H14.8071L15.0459 9.74944H13.0049L13.0079 8.62339C13.0079 8.03661 13.0637 7.7222 13.9065 7.7222H15.0331V5.47214H13.2307C11.0657 5.47214 10.3036 6.56353 10.3036 8.39892V9.74969H8.9541V11.9995H10.3036V18.5279H13.0049Z"></path>
  </symbol>
  <symbol xmlns="http://www.w3.org/2000/svg" viewBox="0 0 24 24" id="coin-type-1">
    <path fill-rule="evenodd" clip-rule="evenodd" d="M12.5 4.4C13.3 4.2 14.1 4 15 4C19.4 4 23 7.6 23 12C23 16.4 19.4 20 15 20C14.1 20 13.3 19.9 12.5 19.6C11.7 19.9 10.9 20 10 20C5.6 20 2 16.4 2 12C2 7.6 5.6 4 10 4C10.9 4 11.7 4.1 12.5 4.4ZM10 5C6.1 5 3 8.1 3 12C3 15.9 6.1 19 10 19C13.9 19 17 15.9 17 12C17 8.1 13.9 5 10 5ZM15.5 17.8C15 18.2 14.6 18.5 14.1 18.8C14.4 18.9 14.7 18.9 15 18.9C18.8 18.9 21.9 15.8 21.9 12C21.9 8.2 18.8 5.1 15 5.1C14.85 5.1 14.7 5.125 14.55 5.15C14.4 5.175 14.25 5.2 14.1 5.2C14.6 5.5 15.1 5.8 15.5 6.2C18.5 6.4 20.9 8.9 20.9 12C20.9 15 18.5 17.6 15.5 17.8ZM10 18C13.3137 18 16 15.3137 16 12C16 8.68629 13.3137 6 10 6C6.68629 6 4 8.68629 4 12C4 15.3137 6.68629 18 10 18ZM12 11.4C12.4 11 12.6 10.5 12.6 10C12.6 8.9 11.7 8 10.6 8H8V16H10.5C11.6 16 12.6 15.4 13 14.3C13.1 14 13.1 13.8 13.1 13.5C13.1 12.6 12.7 11.9 12 11.4ZM10.6 9C11.2 9 11.6 9.4 11.6 10C11.6 10.6 11.2 11 10.6 11H9V9H10.6ZM12 14C11.8 14.6 11.2 15 10.5 15H9V12H10.6C11.4 12 12.1 12.7 12.1 13.5C12.1 13.7 12.1 13.8 12 14Z"></path>
  </symbol>
  <symbol xmlns="http://www.w3.org/2000/svg" viewBox="0 0 12 12" id="checked">
    <path fill-rule="evenodd" clip-rule="evenodd" d="M12 3.16356L4.4583 10.7053L0 6.24696L1.86882 4.37814L4.4583 6.96762L10.1312 1.29474L12 3.16356Z"></path>
  </symbol>
  <symbol xmlns="http://www.w3.org/2000/svg" viewBox="0 0 24 24" id="arrow-type-2-flip-x">
    <path fill-rule="evenodd" clip-rule="evenodd" d="M6.65546 12.5001L11.7079 17.1314L11.0321 17.8686L5.03213 12.3686L4.63005 12L5.03213 11.6314L11.0321 6.13142L11.7079 6.86858L6.65533 11.5001L19.37 11.5001V12.5001L6.65546 12.5001Z"></path>
  </symbol>
  <symbol xmlns="http://www.w3.org/2000/svg" viewBox="0 0 24 24" id="action-icon-4">
    <path d="M22.65 3.75V21.75V22.75H21.65H2.64997V21.75H5.64997V18.75H8.64997V21.75H9.64997V16.75H12.65V21.75H13.65V14.75H16.65V21.75H17.65V12.75H20.65V21.75H21.65V3.75H22.65V3.75ZM14.55 11.45C14.95 11.45 15.25 11.45 15.65 11.35C15.35 10.85 14.55 9.75 13.05 9.15C12.95 9.15 11.15 8.25 10.75 6.65C10.55 5.75 10.75 4.85 11.45 3.95C11.45 3.85 12.25 2.75 13.55 2.55C14.45 2.45 15.25 2.85 16.15 3.75C16.65 4.55 18.15 6.35 19.55 6.45V6.25C19.55 3.45 17.35 1.25 14.55 1.25C11.75 1.25 9.54998 3.55 9.54998 6.25C9.54998 9.25 11.75 11.45 14.55 11.45ZM15.55 4.45C14.85 3.75 14.25 3.45 13.65 3.55C12.75 3.65 12.05 4.55 12.05 4.55C11.55 5.25 11.35 5.95 11.45 6.55C11.75 7.75 13.25 8.55 13.25 8.55C15.15 9.35 16.05 10.75 16.35 11.25C17.95 10.65 19.15 9.25 19.45 7.55C17.55 7.35 15.85 4.75 15.55 4.45ZM7.94998 16.65C8.14998 14.45 9.04998 11.65 10.05 9.65C7.94998 10.55 5.14998 11.45 2.94998 11.55L5.84998 12.95C4.64998 13.75 3.24998 14.55 1.34998 15.25L1.64997 16.15C3.64997 15.45 5.24998 14.55 6.44998 13.65L7.94998 16.65Z"></path>
  </symbol>
  <symbol xmlns="http://www.w3.org/2000/svg" viewBox="0 0 24 24" id="action-icon-2">
    <path d="M6 14.65C2.7 14.65 0 11.95 0 8.64999C0 5.34999 2.7 2.64999 6 2.64999C9.3 2.64999 12 5.34999 12 8.64999V8.84999C10.4 8.84999 8.6 6.54999 8 5.64999C7 4.64999 5.99999 4.14999 4.89999 4.24999C3.29999 4.44999 2.4 5.84999 2.3 5.84999C1.5 6.94999 1.19999 8.04999 1.39999 9.04999C1.89999 10.95 4 11.95 4.1 12.05C5.9 12.85 6.9 14.15 7.2 14.65C6.8 14.55 6.4 14.65 6 14.65ZM15 14.35H11V18.35H12V16.35L12.2 16.15L16.3 20.25L23.7 11.75L22.9 11.05L16.2 18.75L12.8 15.35H15V14.35ZM4.5 11.05C6.8 12.05 7.9 13.75 8.2 14.25C10.1 13.55 11.5 11.85 11.9 9.74999C9.59999 9.64999 7.5 6.54999 7.2 6.14999C6.4 5.34999 5.59999 4.94999 4.89999 5.04999C3.79999 5.14999 3 6.24999 3 6.24999C2.4 7.04999 2.1 7.84999 2.3 8.64999C2.6 10.15 4.5 11.05 4.5 11.05ZM0 21.35H24V20.35H0V21.35Z"></path>
  </symbol>
  <symbol xmlns="http://www.w3.org/2000/svg" viewBox="0 0 24 24" id="action-icon-1">
    <path d="M9.57946 3.3C9.57946 2.6 10.1795 2 10.8795 2C11.5795 2 12.1795 2.6 12.1795 3.3C12.1795 4 11.5795 4.6 10.8795 4.6C10.1795 4.6 9.57946 3.9 9.57946 3.3ZM8.67946 9.4C8.67946 8.3 9.57946 7.4 10.6795 7.4C11.7795 7.4 12.6795 8.3 12.6795 9.4C12.6795 10.5 11.7795 11.4 10.6795 11.4C9.57946 11.4 8.67946 10.5 8.67946 9.4ZM21.1795 20.8C21.1795 21.5 20.6795 22 19.9795 22C19.2795 22 18.7795 21.5 18.7795 20.8V18.4L17.5795 17.2L13.3795 21.5C12.8795 22 12.0795 22 11.6795 21.5C11.1795 21 11.1795 20.2 11.6795 19.8L14.7795 16.6L12.4795 14.3L10.4795 16.3C10.3795 16.4 10.1795 16.4 10.0795 16.3L7.77946 14C7.37946 13.6 7.37946 13.1 7.57946 12.6L6.17946 9.8C4.97946 10.1 3.67946 8.7 3.17946 7.7C2.57946 6.5 2.67946 5 3.87946 4.4C5.07946 3.8 6.27946 4.7 6.87946 5.9C7.37946 7 7.67946 8.8 6.67946 9.5L7.97946 12.1C8.37946 11.9 8.87946 12 9.17946 12.3L10.0795 13.2L16.4795 7C16.8795 6.6 17.6795 6.6 18.1795 7C18.6795 7.5 18.6795 8.2 18.1795 8.7L15.3795 11.5L21.0795 17.6C21.1795 17.6 21.1795 17.5 21.1795 20.8Z"></path>
  </symbol>
  <symbol xmlns="http://www.w3.org/2000/svg" viewBox="0 0 24 24" id="arrow-type-2">
    <path fill-rule="evenodd" clip-rule="evenodd" d="M17.3445 11.4999L12.2921 6.86858L12.9679 6.13142L18.9679 11.6314L19.37 12L18.9679 12.3686L12.9679 17.8686L12.2921 17.1314L17.3447 12.4999H4.63V11.4999H17.3445Z"></path>
  </symbol>
  <symbol xmlns="http://www.w3.org/2000/svg" viewBox="0 0 24 24" id="action-icon-3">
    <path fill-rule="evenodd" clip-rule="evenodd" d="M12.5 4H13.5C14 4 14.5 3.6 14.5 3C14.5 2.4 14.1 2 13.5 2H10.5C9.9 2 9.5 2.4 9.5 3C9.5 3.6 9.9 4 10.5 4H11.5V5H12C10.1614 5 8.46051 5.58152 7.07096 6.57096L5.5 5L3.5 7L5.07096 8.57096C4.08152 9.96051 3.5 11.6614 3.5 13.5C3.5 18.2 7.3 22 12 22C16.7 22 20.5 18.2 20.5 13.5C20.5 11.6614 19.9185 9.96051 18.929 8.57096L20.5 7L18.5 5L16.929 6.57096C15.5395 5.58152 13.8386 5 12 5H12.5V4ZM19.5 13.5C19.5 9.4 16.1 6 12 6C7.8 6 4.5 9.4 4.5 13.5C4.5 17.6 7.9 21 12 21C16.1 21 19.5 17.6 19.5 13.5ZM5.5 14H7.5V13H5.5V14ZM16.5 13H18.5V14H16.5V13ZM12.5 20V18H11.5V20H12.5ZM8.85359 17.3536L7.45359 18.7536L6.74648 18.0464L8.14649 16.6464L8.85359 17.3536ZM17.2412 18.0345L15.7412 16.6345L15.0589 17.3655L16.5589 18.7655L17.2412 18.0345ZM7.45359 8.24645L8.85359 9.64645L8.14648 10.3536L6.74648 8.95356L7.45359 8.24645ZM17.1935 9.39172C16.2076 8.39292 14.8326 7 12.5 7V13.5L17.4 9.6C17.333 9.53304 17.2643 9.4634 17.1935 9.39172Z"></path>
  </symbol>
  <symbol xmlns="http://www.w3.org/2000/svg" viewBox="0 0 24 24" id="tennis">
    <path fill-rule="evenodd" clip-rule="evenodd" d="M12.0787 19C8.14607 19 5 15.8889 5 12C5 8.18889 8.14607 5 11.9213 5C15.8539 5 19 8.11111 19 12V12.2333C17.1124 12.2333 14.9888 9.58889 14.2809 8.5V8.42222C13.1011 7.25556 11.9213 6.71111 10.6629 6.78889C9.02299 6.92991 7.9648 8.28541 7.72274 8.59547C7.69779 8.62743 7.68151 8.64829 7.67416 8.65556C6.73034 9.9 6.41573 11.1444 6.65169 12.3111C7.13761 14.3019 9.21653 15.4444 9.75202 15.7387C9.82325 15.7778 9.86717 15.802 9.8764 15.8111C12 16.6667 13.1798 18.2222 13.573 18.8444C13.1011 18.9222 12.6292 19 12.0787 19ZM11.0541 8.00994C11.8946 7.92972 12.8114 8.33081 13.6518 9.37367C13.9574 9.85498 16.4023 13.4649 19 13.6253C18.618 16.1121 16.9371 18.1176 14.7979 19C14.4923 18.3582 13.1934 16.2725 10.5957 15.1495C10.5957 15.1495 8.45646 14.1066 8.07444 12.3418C7.84524 11.4594 8.15085 10.4967 8.91487 9.45389C8.91487 9.45389 9.7553 8.09016 11.0541 8.00994Z"></path>
  </symbol>
  <symbol xmlns="http://www.w3.org/2000/svg" viewBox="0 0 24 24" id="chart">
    <path fill-rule="evenodd" clip-rule="evenodd" d="M13.3536 11.8536L19.3535 5.85356L18.6464 5.14645L13 10.7929L10.3536 8.14645L10 7.7929L9.64645 8.14645L4.64645 13.1464L5.35356 13.8536L10 9.20711L12.6464 11.8536L13 12.2071L13.3536 11.8536ZM7 14L6.00001 15V18H7V14ZM14 13L15 12V18H14V13ZM9 12L8 13V18H9V12ZM16 11L17 10V18H16V11ZM10 11L11 12V18H10V11ZM18 9L19 8.00001V18H18V9ZM12 13L13 14V18H12V13Z"></path>
  </symbol>
  <symbol xmlns="http://www.w3.org/2000/svg" viewBox="0 0 24 24" id="arrow-type-5">
    <path fill-rule="evenodd" clip-rule="evenodd" d="M17 11.9142L17.0858 12L17 12.0858V11.9142ZM16.0858 11H3V13H16.0858L12.2929 16.7929L13.7071 18.2071L19.2071 12.7071L19.9142 12L19.2071 11.2929L13.7071 5.79289L12.2929 7.20711L16.0858 11Z"></path>
  </symbol>
  <symbol xmlns="http://www.w3.org/2000/svg" viewBox="0 0 24 24" id="filter">
    <path d="M10.5 12.5V20L13.5 17V12.5L19 6H5L10.5 12.5ZM12.737 11.854L12.5 12.134V12.5H11.5V12.134L11.263 11.854L7.157 7H16.844L12.737 11.854Z"></path>
  </symbol>
  <symbol xmlns="http://www.w3.org/2000/svg" viewBox="0 0 60 60" id="info-card-1">
    <path d="M52.9167 24.2224C52.9658 21.8342 52.6719 19.4513 52.0442 17.1466C51.202 14.282 49.4541 11.7674 47.0625 9.97991C42.3583 6.29408 37.9617 4.76658 32.8217 5.02741C30.1103 5.21519 27.4162 5.60037 24.7608 6.17991C21.0017 6.93575 18.2708 8.25741 16.4117 10.2207C14.9383 11.7897 13.8007 13.6427 13.0683 15.6666C12.7579 16.5583 12.5052 17.4691 12.3117 18.3932L12.245 18.6816C12.0695 19.3307 11.8326 19.9616 11.5375 20.5657C11.3658 20.9507 11.1933 21.3357 11.0442 21.7324C10.851 22.1725 10.7738 22.6548 10.82 23.1332C10.9896 23.8777 11.4211 24.5363 12.0358 24.9891C12.445 25.3641 12.7133 25.6266 12.7158 25.8666C12.6833 25.9909 12.6342 26.1103 12.57 26.2216C11.572 28.3257 10.3488 30.3154 8.92167 32.1557C8.32334 32.8866 7.69667 33.7391 7.82417 34.6049C8.00629 35.262 8.44018 35.8207 9.03167 36.1599C9.30741 36.3498 9.59808 36.517 9.90084 36.6599C10.26 36.8432 10.8625 37.1499 10.9008 37.3707C10.9548 37.6513 10.9232 37.9417 10.81 38.2041C10.6858 38.4641 10.56 38.6891 10.4475 38.8849C10.1417 39.4257 9.62917 40.3324 10.4 40.9807C10.58 41.1391 10.8883 41.3816 11.17 41.5974C10.9619 41.9634 10.8684 42.3835 10.9017 42.8032C10.9469 43.1295 11.1244 43.4227 11.3925 43.6141C11.5792 43.7466 11.7783 43.8641 11.9758 43.9741C12.4658 44.2532 12.6567 44.3841 12.7258 44.6407C12.7708 44.9802 12.7401 45.3254 12.6358 45.6516C12.5875 45.8707 12.5408 46.0891 12.5117 46.3074C12.4272 47.0654 12.5229 47.8326 12.7908 48.5466C13.2217 50.1304 14.8179 51.0989 16.4217 50.7499C18.8011 50.1761 21.1479 49.4743 23.4517 48.6474C25.325 49.7541 26.5092 53.1016 26.8175 54.3574C26.9088 54.7301 27.2429 54.9923 27.6267 54.9924L48.5433 54.9349C48.8072 54.9341 49.055 54.8084 49.2116 54.596C49.3681 54.3836 49.4148 54.1097 49.3375 53.8574C49.1309 53.2887 48.845 52.752 48.4883 52.2632C48.2914 51.9805 48.1132 51.6852 47.955 51.3791C47.5793 50.6105 47.2645 49.8136 47.0133 48.9957C46.5377 47.386 46.2091 45.7365 46.0317 44.0674C45.7364 41.5755 46.1127 39.05 47.1217 36.7524C47.7385 35.4802 48.4975 34.282 49.3842 33.1807C49.8842 32.5032 50.4067 31.8032 50.875 31.0641C52.1901 29.023 52.8981 26.6504 52.9167 24.2224ZM48.0467 32.1949C47.0839 33.3969 46.2614 34.7048 45.595 36.0932C44.4674 38.6632 44.0473 41.488 44.3783 44.2749C44.5649 46.0429 44.9125 47.7901 45.4167 49.4949C45.6929 50.3931 46.0384 51.2685 46.45 52.1132C46.6396 52.486 46.8542 52.8454 47.0925 53.1891L47.1525 53.2799L28.2567 53.3332C27.7016 51.3558 26.6962 49.5338 25.3192 48.0099C25.5317 47.9357 25.7358 47.8666 25.92 47.7999C26.5517 47.5791 27.0292 47.4116 27.2675 47.3366C30.84 46.2149 32.6267 44.5916 32.5783 42.5107C32.5513 42.0576 32.1789 41.7023 31.725 41.6966C31.504 41.7018 31.2941 41.7947 31.1415 41.9547C30.989 42.1148 30.9063 42.3289 30.9117 42.5499C30.9317 43.4082 30.2292 44.6599 26.7667 45.7466C26.5167 45.8249 26.0242 45.9966 25.3683 46.2274C24.7742 46.4357 24.045 46.6907 23.2475 46.9632C20.9001 47.8123 18.5086 48.5339 16.0833 49.1249C15.3025 49.2754 14.5426 48.7813 14.3633 48.0066C14.1834 47.5388 14.1146 47.0355 14.1625 46.5366C14.185 46.3641 14.2242 46.1916 14.2625 46.0182C14.4335 45.4399 14.4604 44.8285 14.3408 44.2374C14.1016 43.4723 13.5404 42.8496 12.8042 42.5324L12.6258 42.4299C12.7151 42.2479 12.822 42.0752 12.945 41.9141C13.0836 41.737 13.1448 41.5115 13.1147 41.2886C13.0846 41.0658 12.9657 40.8646 12.785 40.7307C12.585 40.5824 12.1083 40.2257 11.7667 39.9516C11.8092 39.8741 11.8567 39.7849 11.9008 39.7107C12.0292 39.4849 12.175 39.2241 12.3175 38.9266C12.584 38.3439 12.6624 37.6926 12.5417 37.0632C12.3475 36.0407 11.375 35.5424 10.6575 35.1791C10.4156 35.0644 10.1837 34.9298 9.96417 34.7766C9.79144 34.6564 9.62768 34.5238 9.47417 34.3799C9.47417 34.2549 9.6075 33.9499 10.2483 33.1674C11.7373 31.2476 13.0139 29.1722 14.0558 26.9774C14.2565 26.6339 14.3687 26.2459 14.3825 25.8482C14.2976 25.0094 13.852 24.249 13.1617 23.7649C12.8283 23.4566 12.5067 23.1649 12.4708 22.9082C12.4741 22.7066 12.5196 22.5079 12.6042 22.3249C12.7408 21.9632 12.9 21.6082 13.0592 21.2532C13.3989 20.5522 13.6699 19.8199 13.8683 19.0666L13.9358 18.7757C14.1138 17.9203 14.3465 17.0772 14.6325 16.2516C15.2857 14.4366 16.3029 12.7743 17.6217 11.3666C19.2358 9.66658 21.6792 8.49991 25.0892 7.81408C27.6642 7.25053 30.277 6.87564 32.9067 6.69241C37.6217 6.44241 41.6692 7.87075 46.0325 11.2941C48.1527 12.8572 49.7007 15.0737 50.4383 17.6024C51.023 19.7509 51.2963 21.9721 51.25 24.1982C51.2354 26.3211 50.6172 28.3961 49.4675 30.1807C49.0308 30.8657 48.5292 31.5416 48.0442 32.1949H48.0467Z"></path>
    <path d="M24.5834 19.1666H25.4167C25.8769 19.1666 26.25 18.7935 26.25 18.3332C26.25 17.873 25.8769 17.4999 25.4167 17.4999H24.5834C23.2027 17.4999 22.0834 18.6192 22.0834 19.9999V20.8332C22.0834 22.2139 23.2027 23.3332 24.5834 23.3332H25.4167C25.8769 23.3332 26.25 22.9601 26.25 22.4999C26.25 22.0397 25.8769 21.6666 25.4167 21.6666H24.5834C24.1231 21.6666 23.75 21.2935 23.75 20.8332V19.9999C23.75 19.5397 24.1231 19.1666 24.5834 19.1666Z"></path>
    <path d="M30.4167 16.6666C29.9564 16.6666 29.5833 17.0397 29.5833 17.4999V19.1666C29.5833 19.6268 29.2102 19.9999 28.75 19.9999H27.9166C27.4564 19.9999 27.0833 20.373 27.0833 20.8332C27.0833 21.2935 27.4564 21.6666 27.9166 21.6666H28.75C30.1307 21.6666 31.25 20.5473 31.25 19.1666V17.4999C31.25 17.0397 30.8769 16.6666 30.4167 16.6666Z"></path>
    <path d="M33.75 16.6666V15.8333C33.75 14.4525 32.6307 13.3333 31.25 13.3333H29.5833C28.2026 13.3333 27.0833 14.4525 27.0833 15.8333V16.6666C27.0833 17.1268 27.4564 17.4999 27.9166 17.4999C28.3769 17.4999 28.75 17.1268 28.75 16.6666V15.8333C28.75 15.373 29.1231 14.9999 29.5833 14.9999H31.25C31.7102 14.9999 32.0833 15.373 32.0833 15.8333V16.6666C32.0833 17.1268 32.4564 17.4999 32.9167 17.4999C33.3769 17.4999 33.75 17.1268 33.75 16.6666Z"></path>
    <path d="M36.25 22.4999H35.4167C34.9565 22.4999 34.5834 22.1268 34.5834 21.6666V20.8332C34.5834 20.373 34.2103 19.9999 33.75 19.9999C33.2898 19.9999 32.9167 20.373 32.9167 20.8332V21.6666C32.9167 23.0473 34.036 24.1666 35.4167 24.1666H36.25C36.7103 24.1666 37.0834 23.7935 37.0834 23.3332C37.0834 22.873 36.7103 22.4999 36.25 22.4999Z"></path>
    <path d="M40.4167 19.9999C40.4167 19.5397 40.0436 19.1666 39.5833 19.1666H38.75C38.2898 19.1666 37.9167 18.7935 37.9167 18.3333C37.9167 17.873 38.2898 17.4999 38.75 17.4999H39.5833C40.0436 17.4999 40.4167 17.1268 40.4167 16.6666C40.4167 16.2063 40.0436 15.8333 39.5833 15.8333H38.75C37.3693 15.8333 36.25 16.9525 36.25 18.3333C36.25 19.714 37.3693 20.8333 38.75 20.8333H39.5833C40.0436 20.8333 40.4167 20.4602 40.4167 19.9999Z"></path>
    <path d="M42.9167 19.9999C42.4564 19.9999 42.0833 20.373 42.0833 20.8332V22.4999C42.0833 22.9601 41.7102 23.3332 41.25 23.3332H40.4166C39.9564 23.3332 39.5833 23.7063 39.5833 24.1666C39.5833 24.6268 39.9564 24.9999 40.4166 24.9999H41.25C42.6307 24.9999 43.75 23.8806 43.75 22.4999V20.8332C43.75 20.373 43.3769 19.9999 42.9167 19.9999Z"></path>
    <path d="M49.55 22.4999C49.55 22.4866 49.5433 22.4758 49.5425 22.4624C49.4678 20.9733 49.2308 19.4968 48.8358 18.0591C48.1917 15.8721 46.8469 13.9572 45.0083 12.6091C41.2392 9.65242 37.8217 8.33325 33.9242 8.33325C33.6175 8.33325 33.3075 8.34159 32.99 8.35659C32.7058 8.37159 32.4217 8.40409 32.1375 8.42742C32.1183 8.42742 32.1025 8.41659 32.0833 8.41659C32.0396 8.42141 31.9964 8.43006 31.9542 8.44242C29.7578 8.65427 27.5751 8.99009 25.4167 9.44825C24.47 9.63469 23.5386 9.89123 22.63 10.2158C22.6108 10.2233 22.5917 10.2274 22.5733 10.2358C21.1684 10.6979 19.8887 11.4772 18.8333 12.5133C17.8117 13.6105 16.9979 14.8842 16.4317 16.2724C16.4061 16.3194 16.3852 16.3688 16.3692 16.4199C16.3133 16.5566 16.2492 16.6858 16.1975 16.8249C15.9417 17.5191 15.5392 19.2474 15.4883 19.4649C15.3008 20.3974 14.8358 23.5933 16.7267 25.5983C17.9267 26.8699 19.7617 27.3399 22.1717 26.9983L23.2933 26.8383C28.64 26.0691 31.3233 25.6833 33.6325 27.9416C34.0767 28.3758 34.5317 28.8191 35.005 29.2499C34.4808 30.8983 33.8008 34.4166 36.5883 36.4999C39.5833 38.7499 39.5833 39.3591 39.5833 40.8333C39.5817 41.1229 39.7306 41.3925 39.9765 41.5455C40.2224 41.6984 40.5301 41.7127 40.7892 41.5833C41.0075 41.4699 42.9167 40.4066 42.9167 36.6666C42.9167 34.6208 44.4417 32.8524 45.9475 31.3891L45.9725 31.3666C46.7891 30.8061 47.4953 30.0998 48.0558 29.2833C48.6604 28.3302 49.0928 27.2784 49.3333 26.1758C49.3826 26.0683 49.4082 25.9515 49.4083 25.8333C49.513 25.2866 49.5715 24.7322 49.5833 24.1758C49.5917 23.6166 49.5792 23.0624 49.5492 22.5149C49.5498 22.51 49.5501 22.5049 49.55 22.4999ZM41.25 36.6666C41.2641 37.3597 41.165 38.0504 40.9567 38.7116C40.5675 37.7374 39.6658 36.7283 37.5833 35.1658C35.9275 33.9258 36.0442 31.8641 36.4017 30.4158C37.9629 31.669 39.8997 32.3618 41.9017 32.3833C42.2263 32.3809 42.5506 32.3619 42.8733 32.3266C41.872 33.5567 41.3018 35.0813 41.25 36.6666ZM46.65 28.3949C46.0668 29.2691 45.2419 29.9547 44.2758 30.3683C42.7464 30.8606 41.0974 30.836 39.5833 30.2983V29.1666C39.5833 28.7064 39.9564 28.3333 40.4167 28.3333H42.9167C43.3769 28.3333 43.75 27.9602 43.75 27.4999C43.75 27.0397 43.3769 26.6666 42.9167 26.6666H40.4167C39.0359 26.6666 37.9167 27.7859 37.9167 29.1666V29.4258C36.7974 28.6306 35.7528 27.7353 34.7958 26.7508C33.8283 25.7701 32.5963 25.0922 31.25 24.7999V24.1666C31.25 23.7064 30.8769 23.3333 30.4167 23.3333C29.9564 23.3333 29.5833 23.7064 29.5833 24.1666V24.5966C27.3937 24.601 25.2088 24.7993 23.0542 25.1891L21.9358 25.3483C21.4331 25.4223 20.9244 25.4486 20.4167 25.4266V24.9999C20.4167 24.5397 20.0436 24.1666 19.5833 24.1666C19.1231 24.1666 18.75 24.5397 18.75 24.9999V25.0399C18.4457 24.8961 18.1699 24.6985 17.9358 24.4566C17.4582 23.9041 17.1526 23.2239 17.0567 22.4999H17.9167C19.2974 22.4999 20.4167 21.3806 20.4167 19.9999C20.4167 19.5397 20.0436 19.1666 19.5833 19.1666C19.1231 19.1666 18.75 19.5397 18.75 19.9999C18.75 20.4602 18.3769 20.8333 17.9167 20.8333H16.9825C17.0052 20.4922 17.0494 20.1529 17.115 19.8174C17.2242 19.3441 17.5317 18.0674 17.7258 17.4999H20.4167C20.8769 17.4999 21.25 17.1268 21.25 16.6666C21.25 16.2064 20.8769 15.8333 20.4167 15.8333H18.485C18.9075 15.0444 19.4305 14.3136 20.0408 13.6591C20.6309 13.0683 21.3228 12.5889 22.0833 12.2441V13.3333C22.0833 14.714 23.2026 15.8333 24.5833 15.8333C25.0436 15.8333 25.4167 15.4602 25.4167 14.9999C25.4167 14.5397 25.0436 14.1666 24.5833 14.1666C24.1231 14.1666 23.75 13.7935 23.75 13.3333V11.5916C24.4071 11.3865 25.0747 11.2169 25.75 11.0833C26.46 10.9399 27.1867 10.8024 27.9167 10.6716V10.8333C27.9167 11.2935 28.2898 11.6666 28.75 11.6666C29.2102 11.6666 29.5833 11.2935 29.5833 10.8333V10.3941C30.1383 10.3108 30.6942 10.2341 31.25 10.1733V10.8333C31.25 11.2935 31.6231 11.6666 32.0833 11.6666C32.5436 11.6666 32.9167 11.2935 32.9167 10.8333V10.0349C32.9692 10.0349 33.0225 10.0249 33.0742 10.0216C33.5892 9.99992 34.09 9.99992 34.5833 10.0208V13.3333C34.5833 13.7935 34.9564 14.1666 35.4167 14.1666H37.0833C37.5436 14.1666 37.9167 13.7935 37.9167 13.3333C37.9167 12.873 37.5436 12.4999 37.0833 12.4999H36.25V10.2024C37.7081 10.4495 39.1179 10.9254 40.4275 11.6124C40.4275 11.6316 40.4167 11.6474 40.4167 11.6666V14.1666C40.4167 14.6268 40.7898 14.9999 41.25 14.9999C41.7102 14.9999 42.0833 14.6268 42.0833 14.1666V12.5749C42.63 12.9291 43.1833 13.3158 43.75 13.7516V15.8333C43.75 16.2935 43.3769 16.6666 42.9167 16.6666C42.4564 16.6666 42.0833 17.0397 42.0833 17.4999C42.0833 17.9602 42.4564 18.3333 42.9167 18.3333C44.2974 18.3333 45.4167 17.214 45.4167 15.8333V15.2624C46.2636 16.1919 46.8849 17.304 47.2325 18.5124C47.5151 19.545 47.7058 20.6005 47.8025 21.6666H46.25C45.7898 21.6666 45.4167 22.0397 45.4167 22.4999C45.4167 22.9602 45.7898 23.3333 46.25 23.3333H47.8992C47.905 23.6058 47.9183 23.8766 47.9142 24.1516C47.91 24.4416 47.8783 24.7208 47.8467 24.9999H46.25C45.7898 24.9999 45.4167 25.373 45.4167 25.8333C45.4167 26.2935 45.7898 26.6666 46.25 26.6666H47.47C47.2655 27.2729 46.9902 27.853 46.65 28.3949Z"></path>
  </symbol>
  <symbol xmlns="http://www.w3.org/2000/svg" viewBox="0 0 32 32" id="quote">
    <path d="M31.8564 7H20.7868C21.5049 15.377 17.8948 21.2608 16 23.1555C17.3962 23.7539 20.727 25.2498 22.8811 26.4465C31.4974 20.2236 32.4547 10.8893 31.8564 7Z"></path>
    <path d="M15.8564 7H4.78683C5.50485 15.377 1.89479 21.2608 0 23.1555C1.39616 23.7539 4.72699 25.2498 6.88107 26.4465C15.4974 20.2236 16.4547 10.8893 15.8564 7Z"></path>
  </symbol>
  <symbol xmlns="http://www.w3.org/2000/svg" viewBox="0 0 60 60" id="info-card-2">
    <path d="M30 35.645C27.7768 35.645 25.9678 37.454 25.9678 39.6773C25.9678 41.9005 27.7768 43.7095 30 43.7095C32.2233 43.7095 34.0323 41.9005 34.0323 39.6773C34.0323 37.454 32.2233 35.645 30 35.645ZM30 42.0966C28.6663 42.0966 27.5807 41.011 27.5807 39.6773C27.5807 38.3436 28.6663 37.2579 30 37.2579C31.3337 37.2579 32.4194 38.3436 32.4194 39.6773C32.4194 41.011 31.3337 42.0966 30 42.0966Z"></path>
    <path d="M29.1936 8.22559H35.6452V9.83849H29.1936V8.22559Z"></path>
    <path d="M29.1936 11.4517H35.6452V13.0646H29.1936V11.4517Z"></path>
    <path d="M24.3547 14.6772H35.6451V16.2901H24.3547V14.6772Z"></path>
    <path d="M24.3547 17.9033H35.6451V19.5162H24.3547V17.9033Z"></path>
    <path d="M24.3547 21.1289H35.6451V22.7418H24.3547V21.1289Z"></path>
    <path d="M55 30.8065V24.3548H43.7097V30.8065H48.5484V38.871H38.871V37.4829L36.8911 36.8225L37.8243 34.9564L34.721 31.8531L32.8541 32.7871L32.1945 30.8065H30.8065V25.9677H38.871V16.2903H48.5484V20.7951L46.6992 18.9459L45.5588 20.0863L49.3548 23.8823L53.1508 20.0863L52.0105 18.9459L50.1613 20.7951V14.6774H38.871V5H26.4403L21.129 10.3112V14.6774H9.83871V20.7951L7.98954 18.9459L6.84917 20.0863L10.6452 23.8823L14.4412 20.0863L13.3008 18.9459L11.4516 20.7951V16.2903H21.129V25.9677H29.1935V30.8065H27.8055L27.1459 32.7871L25.279 31.8531L22.1757 34.9564L23.1089 36.8225L21.129 37.4829V38.871H11.4516V30.8065H16.2903V24.3548H5V30.8065H9.83871V43.8243C8.45065 44.1846 7.41935 45.4372 7.41935 46.9355C7.41935 48.7146 8.86608 50.1613 10.6452 50.1613C12.4242 50.1613 13.871 48.7146 13.871 46.9355C13.871 45.4372 12.8397 44.1846 11.4516 43.8243V40.4839H16.2903V50.3097C15.3539 50.6437 14.6774 51.5308 14.6774 52.5806C14.6774 53.9144 15.7631 55 17.0968 55C18.4305 55 19.5161 53.9144 19.5161 52.5806C19.5161 51.5308 18.8396 50.6437 17.9032 50.3097V40.4839H21.129V41.8719L23.1089 42.5323L22.1757 44.3984L25.279 47.5017L27.1459 46.5677L27.8055 48.5484H32.1937L32.8533 46.5677L34.7202 47.5017L37.8235 44.3984L36.8903 42.5323L38.871 41.8719V40.4839H42.0968V50.3097C41.1604 50.6437 40.4839 51.5308 40.4839 52.5806C40.4839 53.9144 41.5695 55 42.9032 55C44.2369 55 45.3226 53.9144 45.3226 52.5806C45.3226 51.5308 44.6461 50.6437 43.7097 50.3097V40.4839H48.5484V43.8243C47.1603 44.1846 46.129 45.4372 46.129 46.9355C46.129 48.7146 47.5758 50.1613 49.3548 50.1613C51.1339 50.1613 52.5806 48.7146 52.5806 46.9355C52.5806 45.4372 51.5493 44.1846 50.1613 43.8243V30.8065H55ZM25.9677 7.75328V9.83871H23.8823L25.9677 7.75328ZM22.7419 11.4516H27.5806V6.6129H37.2581V24.3548H22.7419V11.4516ZM6.6129 25.9677H14.6774V29.1935H6.6129V25.9677ZM12.2581 46.9355C12.2581 47.825 11.5347 48.5484 10.6452 48.5484C9.75562 48.5484 9.03226 47.825 9.03226 46.9355C9.03226 46.0459 9.75562 45.3226 10.6452 45.3226C11.5347 45.3226 12.2581 46.0459 12.2581 46.9355ZM17.0968 53.3871C16.6518 53.3871 16.2903 53.0248 16.2903 52.5806C16.2903 52.1365 16.6518 51.7742 17.0968 51.7742C17.5417 51.7742 17.9032 52.1365 17.9032 52.5806C17.9032 53.0248 17.5417 53.3871 17.0968 53.3871ZM37.2581 40.7087L35.4081 41.3258L35.2719 41.6813C35.2313 41.7845 35.1911 41.8873 35.1466 41.9869L34.9903 42.3362L35.8621 44.0798L34.4032 45.5388L32.6596 44.6669L32.3107 44.8233C32.2114 44.8678 32.1106 44.9079 32.0083 44.9469L31.6491 45.0824L31.0313 46.9355H28.9679L28.3501 45.0824L27.991 44.9469C27.8886 44.9079 27.7878 44.8678 27.6885 44.8233L27.3397 44.6669L25.596 45.5388L24.1371 44.0798L25.0089 42.3362L24.8526 41.9869C24.8073 41.8861 24.7679 41.7845 24.7274 41.6813L24.5911 41.3258L22.7419 40.7087V38.6453L24.5919 38.0283L24.7281 37.6727C24.7687 37.5695 24.8089 37.4668 24.8534 37.3667L25.0097 37.0179L24.1379 35.2742L25.5968 33.8153L27.3404 34.6871L27.6893 34.5308C27.7886 34.4863 27.8894 34.4461 27.9917 34.4071L28.3509 34.2717L28.9687 32.4194H31.0321L31.6499 34.2725L32.009 34.4079C32.1114 34.4469 32.2122 34.4871 32.3115 34.5316L32.6603 34.6879L34.404 33.8161L35.8629 35.275L34.9911 37.0187L35.1474 37.3679C35.1927 37.4687 35.2321 37.5703 35.2726 37.6735L35.4089 38.0291L37.2581 38.6461V40.7087ZM42.9032 53.3871C42.4583 53.3871 42.0968 53.0248 42.0968 52.5806C42.0968 52.1365 42.4583 51.7742 42.9032 51.7742C43.3482 51.7742 43.7097 52.1365 43.7097 52.5806C43.7097 53.0248 43.3482 53.3871 42.9032 53.3871ZM50.9677 46.9355C50.9677 47.825 50.2444 48.5484 49.3548 48.5484C48.4653 48.5484 47.7419 47.825 47.7419 46.9355C47.7419 46.0459 48.4653 45.3226 49.3548 45.3226C50.2444 45.3226 50.9677 46.0459 50.9677 46.9355ZM45.3226 25.9677H53.3871V29.1935H45.3226V25.9677Z"></path>
  </symbol>
  <symbol xmlns="http://www.w3.org/2000/svg" viewBox="0 0 60 60" id="phone-type-1">
    <path d="M46.7495 13.0863L24.2175 7.0489C22.8315 6.6775 21.4174 7.44848 21.0638 8.76836L20.5864 10.5499C20.5812 10.5694 20.5709 10.5806 20.5656 10.6001L11.7553 43.4806C11.7501 43.5001 11.7449 43.5196 11.7482 43.5345L11.2674 45.329C10.9137 46.6489 11.7528 48.0236 13.1389 48.395L35.6708 54.4324C37.0569 54.8038 38.4709 54.0328 38.8246 52.7129L48.621 16.1523C48.9746 14.8324 48.1355 13.4577 46.7495 13.0863ZM32.0429 11.1512L37.9206 12.7261C38.2034 12.8019 38.3742 13.0818 38.3021 13.351C38.2299 13.6202 37.942 13.7772 37.6593 13.7014L31.7816 12.1265C31.4989 12.0507 31.3281 11.7709 31.4002 11.5016C31.4723 11.2324 31.7602 11.0754 32.0429 11.1512ZM27.8456 50.3268L21.9679 48.7519C21.6852 48.6761 21.5143 48.3962 21.5865 48.127C21.6586 47.8578 21.9465 47.7008 22.2292 47.7766L28.1069 49.3515C28.3896 49.4273 28.5605 49.7071 28.4883 49.9764C28.4162 50.2456 28.1283 50.4026 27.8456 50.3268ZM36.5867 50.1401L14.4918 44.2198L14.6501 43.6291L14.6467 43.6142L23.2288 11.5855L23.3012 11.3378L45.3973 17.2585L36.5867 50.1401V50.1401Z"></path>
    <path d="M29.918 27.3763C29.6989 27.3177 29.4793 27.4491 29.4219 27.6631C29.3632 27.8824 29.4891 28.1007 29.7082 28.1594C31.8202 28.7253 33.0848 30.9106 32.5183 33.0249C32.4609 33.2389 32.5855 33.4626 32.8045 33.5213C33.0183 33.5785 33.2432 33.4485 33.3005 33.2345C33.9832 30.6869 32.4629 28.0583 29.918 27.3763Z"></path>
    <path fill-rule="evenodd" clip-rule="evenodd" d="M27.4883 38.4055L27.4902 38.4076C28.7641 39.8222 30.6574 40.1541 32.0538 39.8343C32.7605 39.6725 33.1996 39.376 33.3841 39.1262C33.467 39.0142 33.4927 38.9223 33.495 38.8443C33.4973 38.7652 33.4776 38.6284 33.3533 38.4264L32.3039 36.7645C32.0564 36.3725 31.4005 36.1967 30.9901 36.4125L30.9048 36.4573C30.8862 36.4675 30.8648 36.479 30.8424 36.4907C30.7283 36.5499 30.5528 36.6314 30.3337 36.6861C29.8619 36.804 29.2273 36.7818 28.6273 36.3105L28.6201 36.3048L28.6201 36.3048C26.9273 34.9495 25.6987 33.1036 25.2263 30.9189L25.2259 30.9173C25.1216 30.4307 25.1784 29.9448 25.478 29.5267C25.7071 29.207 26.0331 29.0104 26.1927 28.9141C26.2013 28.9089 26.2094 28.904 26.2171 28.8994C26.583 28.6773 26.6778 28.6079 26.7409 28.3725C26.7856 28.2058 26.7648 28.013 26.6538 27.8255C26.4103 27.4874 26.2201 27.1738 26.0614 26.9047C26.0282 26.8483 25.997 26.7952 25.9676 26.745C25.8447 26.5354 25.7512 26.3759 25.6516 26.2299C25.4485 25.9324 25.2942 25.7987 24.9962 25.7127C24.7971 25.6652 24.4846 25.6902 24.0885 25.8913C23.6931 26.0921 23.28 26.4387 22.94 26.9057C22.2661 27.8313 21.9413 29.1339 22.5079 30.5189L22.5089 30.5214L22.5089 30.5214C23.7044 33.4656 25.4254 36.1277 27.4883 38.4055ZM25.2536 24.7462C26.0938 24.9819 26.4086 25.5193 26.8378 26.2519C27.0179 26.5594 27.2182 26.9013 27.4859 27.2697C27.7489 27.6862 27.8295 28.1734 27.7068 28.6313C27.5358 29.2697 27.1206 29.5212 26.766 29.736C26.3912 29.9631 26.084 30.1492 26.2037 30.7076C26.6234 32.6482 27.7155 34.2996 29.2451 35.5242C29.7791 35.9437 30.2839 35.6595 30.4634 35.5585C30.4934 35.5416 30.5143 35.5298 30.5248 35.5273C31.3969 35.0689 32.6234 35.3976 33.1494 36.2306L34.2015 37.8967C35.8927 40.6293 29.8631 42.5371 26.7471 39.0767C24.6104 36.7175 22.8245 33.9567 21.5824 30.8976C20.1492 27.3946 23.2563 24.2363 25.2536 24.7462Z"></path>
    <path d="M30.5799 24.8683C30.3664 24.8111 30.1446 24.9679 30.0794 25.2112C30.0126 25.4605 30.1279 25.7012 30.3414 25.7584C33.8536 26.6995 35.8216 30.8011 34.7229 34.9015C34.6578 35.1448 34.7714 35.3915 34.9849 35.4487C35.1933 35.5045 35.4202 35.3491 35.4854 35.1058C36.7144 30.5189 34.514 25.9225 30.5799 24.8683Z"></path>
    <path d="M29.8139 22.8847C35.3306 24.3628 38.6162 30.0569 37.1388 35.5708C37.0767 35.8024 37.2116 36.0444 37.4488 36.1079C37.6802 36.17 37.9237 36.0293 37.9858 35.7977C39.5888 29.815 36.0264 23.641 30.041 22.0372C29.8095 21.9752 29.566 22.1159 29.504 22.3475C29.4404 22.5848 29.5824 22.8226 29.8139 22.8847Z"></path>
    <path d="M12.7028 17.3919C12.357 17.2992 12.0106 17.4695 11.9295 17.7722L7.85892 32.9637C7.77783 33.2663 7.99264 33.587 8.3385 33.6797C8.68435 33.7724 9.03074 33.602 9.11183 33.2994L13.1824 18.1079C13.2635 17.8052 13.0487 17.4845 12.7028 17.3919Z"></path>
    <path d="M9.52605 19.2268C9.1802 19.1341 8.84549 19.2609 8.7788 19.5098L5.99895 29.8843C5.93226 30.1332 6.15875 30.4103 6.5046 30.503C6.85046 30.5957 7.18517 30.4689 7.25186 30.2201L10.0317 19.8455C10.0984 19.5966 9.87191 19.3195 9.52605 19.2268Z"></path>
    <path d="M50.29 27.4633C49.9441 27.3707 49.5977 27.541 49.5166 27.8436L45.4461 43.0352C45.365 43.3378 45.5798 43.6585 45.9257 43.7512C46.2715 43.8438 46.6179 43.6735 46.699 43.3709L50.7695 28.1793C50.8506 27.8767 50.6358 27.556 50.29 27.4633Z"></path>
    <path d="M52.1247 30.6412C51.7788 30.5485 51.4441 30.6753 51.3774 30.9242L48.5976 41.2987C48.5309 41.5476 48.7574 41.8247 49.1032 41.9174C49.4491 42.0101 49.7838 41.8833 49.8505 41.6344L52.6303 31.2599C52.697 31.011 52.4705 30.7339 52.1247 30.6412Z"></path>
  </symbol>
  <symbol xmlns="http://www.w3.org/2000/svg" viewBox="0 0 60 60" id="support-type-1">
    <path d="M35.3 33.1V31.2C36.9 29.9 38.2 27.9 38.9 25.7H41.6C43 25.7 44.1 24.6 44.1 23.2V19.7C44.1 18.5 43.3 17.5 42.1 17.2C40.7 11.3 35.8 7 30 7C24.2 7 19.3 11.3 17.9 17.2C16.8 17.4 15.9 18.4 15.9 19.7V23.2C15.9 24.6 17 25.6 18.3 25.7V26C18.3 27.3 19.4 28.4 20.7 28.4H27.7C28 28.7 28.3 28.8 28.7 28.8H30.6C31.4 28.8 32 28.2 32 27.4C32 26.6 31.4 26 30.6 26H28.7C28.3 26 27.9 26.2 27.7 26.4H23.5C22.9 25 22.5 23.5 22.5 21.9C22.5 16.8 25.8 12.7 29.9 12.7C34 12.7 37.3 16.8 37.3 21.9C37.3 27 34 31.1 29.9 31.1C28.3 31.1 26.9 30.5 25.6 29.4C25.2 29 24.6 29.1 24.2 29.5C23.8 29.9 23.9 30.5 24.3 30.9C24.4 31 24.5 31.1 24.6 31.2V33C14.9 34.7 14 42.2 14 51V52H45.9V51C45.9 43.3 45.1 35.1 35.3 33.1ZM20.7 26.5C20.5 26.5 20.3 26.3 20.3 26.1V25.8H21.1C21.2 26.1 21.2 26.3 21.3 26.6H20.7V26.5ZM30 10.8C26.3 10.8 23 13.4 21.5 17.2H19.9C21.2 12.5 25.2 9.1 30 9.1C34.8 9.1 38.7 12.5 40.1 17.2H38.5C37 13.4 33.7 10.8 30 10.8ZM30 33.2C31.2 33.2 32.3 32.9 33.3 32.5V34.8C33.3 36.6 31.8 38.1 30 38.1C28.2 38.1 26.7 36.6 26.7 34.8V32.6C27.7 32.9 28.9 33.2 30 33.2ZM16.1 50C16.2 42.2 17.1 36.6 24.8 35.1C25 37.8 27.3 40 30.1 40C32.9 40 35.1 37.9 35.3 35.2C42.3 36.7 43.9 41.8 44 50H16.1V50Z"></path>
  </symbol>
  <symbol xmlns="http://www.w3.org/2000/svg" viewBox="0 0 24 24" id="arrow-type-4">
    <path fill-rule="evenodd" clip-rule="evenodd" d="M6.29291 10.7071L7.70712 9.29291L12 13.5858L16.2929 9.29291L17.7071 10.7071L12 16.4142L6.29291 10.7071Z"></path>
  </symbol>
  <symbol xmlns="http://www.w3.org/2000/svg" viewBox="0 0 14 14" id="cup">
    <path fill-rule="evenodd" clip-rule="evenodd" d="M10.08 1.84285H4.06572C3.94842 1.84285 3.85511 1.78192 3.85511 1.7053V1.39537C3.85511 1.3205 3.94842 1.25781 4.06572 1.25781H10.08C10.1947 1.25781 10.2906 1.31875 10.2906 1.39537V1.7053C10.2906 1.78017 10.1973 1.84285 10.08 1.84285ZM9.84566 2.78024H10.9879C11.4936 2.78024 11.9029 3.19224 11.9 3.69801V5.11303C11.9 6.81218 10.519 8.19595 8.82274 8.19595H8.58121C7.87371 9.2359 7.77994 10.1139 7.83961 10.6992C7.91427 11.4209 8.2338 11.8574 8.264 11.8987L8.26582 11.9011C8.43631 12.1228 8.66646 12.2734 8.85115 12.3927C8.98469 12.4808 9.13529 12.5803 9.16086 12.6485C9.16086 12.6485 9.16108 12.652 9.16133 12.6541C9.16233 12.6628 9.16375 12.6751 9.15233 12.691C9.13813 12.7166 9.09835 12.7422 9.04152 12.7422H4.95843C4.9016 12.7422 4.86466 12.7138 4.84761 12.691C4.83056 12.6683 4.83625 12.6541 4.83909 12.6485C4.86112 12.5823 5.00593 12.4869 5.1364 12.4009L5.1488 12.3927L5.15722 12.3871C5.34044 12.2659 5.56623 12.1167 5.73413 11.9011L5.73596 11.8987C5.76614 11.8574 6.08568 11.4209 6.16034 10.6992C6.22285 10.1168 6.12624 9.2359 5.41873 8.19595H5.17722C3.4809 8.19595 2.09998 6.81503 2.09998 5.11303V3.69517C2.09998 3.19224 2.51198 2.78024 3.01491 2.78024H4.15715V2.4279H9.84566V2.78024ZM2.97513 3.69801V5.11303C2.97513 6.20128 3.76504 7.10769 4.79931 7.28954C4.37878 6.51384 4.15715 5.66426 4.15715 4.80331V3.65823H3.01491C2.99502 3.65823 2.97513 3.67812 2.97513 3.69801ZM9.20349 7.2867C10.2378 7.10769 11.0277 6.20128 11.0277 5.11303V3.69801C11.0277 3.67812 11.0077 3.65823 10.9879 3.65823H9.84566V4.80048C9.84566 5.66142 9.62401 6.51099 9.20349 7.2867Z"></path>
  </symbol>
</svg>