<svg width="44" height="44" viewBox="0 0 44 44" fill="none" xmlns="http://www.w3.org/2000/svg"><path fill-rule="evenodd" clip-rule="evenodd" d="M43.9948 22.4816L40.9955 22.4171C40.9985 22.2785 41 22.1395 41 22C41 21.8605 40.9985 21.7215 40.9955 21.5829L43.9948 21.5184C43.9983 21.6785 44 21.8391 44 22C44 22.1609 43.9983 22.3215 43.9948 22.4816ZM43.871 19.6039L40.8885 19.9269C40.8586 19.6511 40.8228 19.3772 40.7813 19.1052L43.747 18.6525C43.795 18.9675 43.8364 19.2847 43.871 19.6039ZM43.3743 16.7688L40.4597 17.4796C40.3941 17.2107 40.3228 16.9439 40.2458 16.6796L43.1263 15.8413C43.2155 16.1478 43.2982 16.457 43.3743 16.7688ZM42.5095 14.0238L39.7138 15.1118C39.6135 14.8541 39.5077 14.5991 39.3966 14.3469L42.1418 13.1372C42.2706 13.4294 42.3932 13.725 42.5095 14.0238ZM41.2917 11.4165L38.6628 12.8618C38.5296 12.6194 38.3912 12.3802 38.2477 12.1444L40.811 10.5857C40.9771 10.8588 41.1374 11.1358 41.2917 11.4165ZM39.7431 8.99052L37.3252 10.7664C37.1614 10.5434 36.9929 10.324 36.8197 10.1085L39.1582 8.22933C39.3585 8.47866 39.5536 8.73245 39.7431 8.99052ZM37.8921 6.78671L35.7252 8.86155C35.5339 8.66173 35.3383 8.46609 35.1385 8.27476L37.2133 6.10794C37.4444 6.32926 37.6707 6.55558 37.8921 6.78671ZM35.7707 4.84181L33.8914 7.18031C33.676 7.00714 33.4566 6.83859 33.2336 6.6748L35.0095 4.25688C35.2676 4.44642 35.5213 4.64146 35.7707 4.84181ZM33.4143 3.18897L31.8556 5.75226C31.6198 5.60884 31.3806 5.47043 31.1382 5.33718L32.5835 2.70828C32.8642 2.86262 33.1412 3.02291 33.4143 3.18897ZM30.8628 1.85816L29.6531 4.60344C29.4009 4.49231 29.1459 4.38653 28.8882 4.28622L29.9762 1.49049C30.275 1.60676 30.5706 1.72937 30.8628 1.85816ZM28.1587 0.873661L27.3204 3.75416C27.0561 3.67723 26.7893 3.6059 26.5204 3.54029L27.2312 0.625729C27.543 0.70178 27.8522 0.784477 28.1587 0.873661ZM25.3475 0.253049L24.8948 3.21869C24.6228 3.17718 24.3489 3.14141 24.0731 3.11154L24.3961 0.128983C24.7154 0.16356 25.0325 0.204964 25.3475 0.253049ZM22.4816 0.00516622L22.4171 3.00447C22.2785 3.0015 22.1395 3 22 3C21.8605 3 21.7215 3.0015 21.5829 3.00447L21.5184 0.00516618C21.6785 0.00172791 21.8391 0 22 0C22.1609 0 22.3215 0.00172792 22.4816 0.00516622ZM19.6039 0.128983L19.9269 3.11154C19.6511 3.14141 19.3772 3.17718 19.1052 3.21869L18.6525 0.253049C18.9675 0.204964 19.2847 0.163559 19.6039 0.128983ZM16.7688 0.625729L17.4796 3.54029C17.2107 3.6059 16.9439 3.67723 16.6796 3.75416L15.8413 0.873661C16.1478 0.784477 16.457 0.70178 16.7688 0.625729ZM14.0238 1.49049L15.1118 4.28622C14.8541 4.38653 14.5991 4.49231 14.3469 4.60344L13.1372 1.85816C13.4294 1.72937 13.725 1.60676 14.0238 1.49049ZM11.4165 2.70828L12.8618 5.33718C12.6194 5.47043 12.3802 5.60884 12.1444 5.75226L10.5857 3.18897C10.8588 3.02291 11.1358 2.86262 11.4165 2.70828ZM8.99052 4.25688L10.7664 6.6748C10.5434 6.83859 10.324 7.00714 10.1085 7.18031L8.22933 4.84182C8.47866 4.64146 8.73245 4.44642 8.99052 4.25688ZM6.78672 6.10794C6.55558 6.32927 6.32927 6.55558 6.10794 6.78672L8.27476 8.86155C8.46609 8.66174 8.66173 8.46609 8.86155 8.27476L6.78672 6.10794ZM4.84181 8.22934L7.18031 10.1086C7.00714 10.324 6.83859 10.5434 6.6748 10.7664L4.25688 8.99052C4.44642 8.73245 4.64146 8.47866 4.84181 8.22934ZM3.18897 10.5857L5.75226 12.1444C5.60884 12.3802 5.47043 12.6194 5.33718 12.8618L2.70828 11.4165C2.86262 11.1358 3.02291 10.8588 3.18897 10.5857ZM1.85816 13.1372L4.60344 14.3469C4.49231 14.5991 4.38653 14.8541 4.28622 15.1118L1.49049 14.0238C1.60676 13.725 1.72937 13.4294 1.85816 13.1372ZM0.873661 15.8413L3.75416 16.6796C3.67723 16.9439 3.6059 17.2107 3.54029 17.4796L0.625729 16.7688C0.70178 16.457 0.784477 16.1478 0.873661 15.8413ZM0.253049 18.6525L3.21869 19.1052C3.17718 19.3772 3.14141 19.6511 3.11154 19.9269L0.128983 19.6039C0.16356 19.2846 0.204964 18.9675 0.253049 18.6525ZM0.00516622 21.5184C0.00172792 21.6785 0 21.8391 0 22C0 22.1609 0.00172791 22.3215 0.00516618 22.4816L3.00447 22.4171C3.0015 22.2785 3 22.1395 3 22C3 21.8605 3.0015 21.7215 3.00447 21.5829L0.00516622 21.5184ZM0.128983 24.3961L3.11154 24.0731C3.14141 24.3489 3.17718 24.6228 3.21869 24.8948L0.253049 25.3475C0.204964 25.0325 0.163559 24.7153 0.128983 24.3961ZM0.625729 27.2312L3.54029 26.5204C3.6059 26.7893 3.67723 27.0561 3.75416 27.3204L0.873661 28.1587C0.784477 27.8522 0.70178 27.543 0.625729 27.2312ZM1.49049 29.9762L4.28622 28.8882C4.38653 29.1459 4.49231 29.4009 4.60344 29.6531L1.85816 30.8628C1.72937 30.5706 1.60676 30.275 1.49049 29.9762ZM2.70828 32.5835L5.33718 31.1382C5.47043 31.3806 5.60884 31.6198 5.75226 31.8556L3.18897 33.4143C3.02291 33.1412 2.86262 32.8642 2.70828 32.5835ZM4.25688 35.0095L6.6748 33.2336C6.83859 33.4566 7.00714 33.676 7.18031 33.8915L4.84182 35.7707C4.64146 35.5213 4.44642 35.2676 4.25688 35.0095ZM6.10794 37.2133L8.27476 35.1385C8.46609 35.3383 8.66174 35.5339 8.86155 35.7252L6.78672 37.8921C6.55558 37.6707 6.32927 37.4444 6.10794 37.2133ZM8.22934 39.1582L10.1086 36.8197C10.324 36.9929 10.5434 37.1614 10.7664 37.3252L8.99052 39.7431C8.73245 39.5536 8.47866 39.3585 8.22934 39.1582ZM10.5857 40.811C10.8588 40.9771 11.1358 41.1374 11.4165 41.2917L12.8618 38.6628C12.6194 38.5296 12.3802 38.3912 12.1444 38.2477L10.5857 40.811ZM13.1372 42.1418C13.4294 42.2706 13.725 42.3932 14.0238 42.5095L15.1118 39.7138C14.8541 39.6135 14.5991 39.5077 14.3469 39.3966L13.1372 42.1418ZM15.8413 43.1263L16.6796 40.2458C16.9439 40.3228 17.2107 40.3941 17.4796 40.4597L16.7688 43.3743C16.457 43.2982 16.1478 43.2155 15.8413 43.1263ZM18.6525 43.747L19.1052 40.7813C19.3772 40.8228 19.6511 40.8586 19.9269 40.8885L19.6039 43.871C19.2846 43.8364 18.9675 43.795 18.6525 43.747ZM21.5184 43.9948L21.5829 40.9955C21.7215 40.9985 21.8605 41 22 41C22.1395 41 22.2785 40.9985 22.4171 40.9955L22.4816 43.9948C22.3215 43.9983 22.1609 44 22 44C21.8391 44 21.6785 43.9983 21.5184 43.9948ZM24.3961 43.871L24.0731 40.8885C24.3489 40.8586 24.6228 40.8228 24.8948 40.7813L25.3475 43.747C25.0325 43.795 24.7153 43.8364 24.3961 43.871ZM27.2312 43.3743L26.5204 40.4597C26.7893 40.3941 27.0561 40.3228 27.3204 40.2458L28.1587 43.1263C27.8522 43.2155 27.543 43.2982 27.2312 43.3743ZM29.9762 42.5095L28.8882 39.7138C29.1459 39.6135 29.4009 39.5077 29.6531 39.3966L30.8628 42.1418C30.5706 42.2706 30.275 42.3932 29.9762 42.5095ZM32.5835 41.2917L31.1382 38.6628C31.3806 38.5296 31.6198 38.3912 31.8556 38.2477L33.4143 40.811C33.1412 40.9771 32.8642 41.1374 32.5835 41.2917ZM35.0095 39.7431L33.2336 37.3252C33.4566 37.1614 33.676 36.9929 33.8915 36.8197L35.7707 39.1582C35.5213 39.3585 35.2676 39.5536 35.0095 39.7431ZM37.2133 37.8921L35.1385 35.7252C35.3383 35.5339 35.5339 35.3383 35.7252 35.1385L37.8921 37.2133C37.6707 37.4444 37.4444 37.6707 37.2133 37.8921ZM39.1582 35.7707L36.8197 33.8914C36.9929 33.676 37.1614 33.4566 37.3252 33.2336L39.7431 35.0095C39.5536 35.2675 39.3585 35.5213 39.1582 35.7707ZM40.811 33.4143L38.2477 31.8556C38.3912 31.6198 38.5296 31.3806 38.6628 31.1382L41.2917 32.5835C41.1374 32.8642 40.9771 33.1412 40.811 33.4143ZM42.1418 30.8628C42.2706 30.5706 42.3932 30.275 42.5095 29.9762L39.7138 28.8882C39.6135 29.1459 39.5077 29.4009 39.3966 29.6531L42.1418 30.8628ZM43.1263 28.1587L40.2458 27.3204C40.3228 27.0561 40.3941 26.7893 40.4597 26.5204L43.3743 27.2312C43.2982 27.543 43.2155 27.8522 43.1263 28.1587ZM43.747 25.3475L40.7813 24.8948C40.8228 24.6228 40.8586 24.3489 40.8885 24.0731L43.871 24.3961C43.8364 24.7154 43.795 25.0325 43.747 25.3475Z" fill="#ABB0BA"/></svg>