<?xml version="1.0" standalone="no"?>
<!DOCTYPE svg PUBLIC "-//W3C//DTD SVG 20010904//EN"
 "http://www.w3.org/TR/2001/REC-SVG-20010904/DTD/svg10.dtd">
<svg version="1.0" xmlns="http://www.w3.org/2000/svg"
 width="700.000000pt" height="700.000000pt" viewBox="0 0 700.000000 700.000000"
 preserveAspectRatio="xMidYMid meet">
<metadata>
Created by potrace 1.14, written by Peter Selinger 2001-2017
</metadata>
<g transform="translate(0.000000,700.000000) scale(0.100000,-0.100000)"
fill="#000000" stroke="none">
<path d="M0 3500 l0 -3500 3500 0 3500 0 0 3500 0 3500 -3500 0 -3500 0 0
-3500z m6224 1439 c46 -36 37 -68 -75 -265 -56 -99 -110 -187 -121 -196 -29
-25 -80 -23 -105 5 -11 12 -64 100 -118 196 -108 192 -116 219 -71 258 27 23
31 23 245 23 206 0 220 -1 245 -21z m-3870 -81 c32 -29 276 -456 276 -484 0
-18 -233 -429 -1119 -1976 -153 -265 -199 -339 -220 -348 -19 -7 -111 -10
-284 -8 -249 3 -257 4 -278 25 -13 12 -22 34 -22 50 0 38 1537 2737 1567 2751
33 16 53 14 80 -10z m1343 -1 c29 -29 263 -459 263 -483 0 -35 -1293 -2299
-1325 -2320 -19 -13 -65 -14 -290 -12 -267 3 -267 3 -286 27 -10 13 -19 35
-19 49 0 16 119 235 300 552 165 289 512 898 773 1355 338 594 480 833 497
842 27 14 67 9 87 -10z m1327 1 c30 -28 1268 -2193 1273 -2228 5 -30 -231
-451 -272 -488 -31 -26 -65 -28 -93 -4 -32 27 -1272 2208 -1272 2237 0 36 256
484 283 495 36 14 54 11 81 -12z m-666 -1165 c31 -28 272 -460 272 -488 0 -39
-636 -1140 -667 -1154 -15 -7 -116 -11 -284 -11 l-260 0 -24 25 c-14 13 -25
36 -25 51 0 36 875 1569 904 1582 32 16 62 14 84 -5z m664 -1167 c30 -22 228
-378 228 -409 0 -16 -10 -38 -25 -52 l-24 -25 -220 0 c-216 0 -220 0 -247 23
-18 16 -27 34 -27 54 0 34 181 364 220 401 27 24 69 28 95 8z"/>
</g>
</svg>
