<svg width="24" height="24" viewBox="0 0 24 24" xmlns="http://www.w3.org/2000/svg">
<path fill-rule="evenodd" clip-rule="evenodd" d="M12.5 4H13.5C14 4 14.5 3.6 14.5 3C14.5 2.4 14.1 2 13.5 2H10.5C9.9 2 9.5 2.4 9.5 3C9.5 3.6 9.9 4 10.5 4H11.5V5H12C10.1614 5 8.46051 5.58152 7.07096 6.57096L5.5 5L3.5 7L5.07096 8.57096C4.08152 9.96051 3.5 11.6614 3.5 13.5C3.5 18.2 7.3 22 12 22C16.7 22 20.5 18.2 20.5 13.5C20.5 11.6614 19.9185 9.96051 18.929 8.57096L20.5 7L18.5 5L16.929 6.57096C15.5395 5.58152 13.8386 5 12 5H12.5V4ZM19.5 13.5C19.5 9.4 16.1 6 12 6C7.8 6 4.5 9.4 4.5 13.5C4.5 17.6 7.9 21 12 21C16.1 21 19.5 17.6 19.5 13.5ZM5.5 14H7.5V13H5.5V14ZM16.5 13H18.5V14H16.5V13ZM12.5 20V18H11.5V20H12.5ZM8.85359 17.3536L7.45359 18.7536L6.74648 18.0464L8.14649 16.6464L8.85359 17.3536ZM17.2412 18.0345L15.7412 16.6345L15.0589 17.3655L16.5589 18.7655L17.2412 18.0345ZM7.45359 8.24645L8.85359 9.64645L8.14648 10.3536L6.74648 8.95356L7.45359 8.24645ZM17.1935 9.39172C16.2076 8.39292 14.8326 7 12.5 7V13.5L17.4 9.6C17.333 9.53304 17.2643 9.4634 17.1935 9.39172Z"/>
</svg>
