<svg width="24" height="24" viewBox="0 0 24 24" xmlns="http://www.w3.org/2000/svg">
<path d="M6 14.65C2.7 14.65 0 11.95 0 8.64999C0 5.34999 2.7 2.64999 6 2.64999C9.3 2.64999 12 5.34999 12 8.64999V8.84999C10.4 8.84999 8.6 6.54999 8 5.64999C7 4.64999 5.99999 4.14999 4.89999 4.24999C3.29999 4.44999 2.4 5.84999 2.3 5.84999C1.5 6.94999 1.19999 8.04999 1.39999 9.04999C1.89999 10.95 4 11.95 4.1 12.05C5.9 12.85 6.9 14.15 7.2 14.65C6.8 14.55 6.4 14.65 6 14.65ZM15 14.35H11V18.35H12V16.35L12.2 16.15L16.3 20.25L23.7 11.75L22.9 11.05L16.2 18.75L12.8 15.35H15V14.35ZM4.5 11.05C6.8 12.05 7.9 13.75 8.2 14.25C10.1 13.55 11.5 11.85 11.9 9.74999C9.59999 9.64999 7.5 6.54999 7.2 6.14999C6.4 5.34999 5.59999 4.94999 4.89999 5.04999C3.79999 5.14999 3 6.24999 3 6.24999C2.4 7.04999 2.1 7.84999 2.3 8.64999C2.6 10.15 4.5 11.05 4.5 11.05ZM0 21.35H24V20.35H0V21.35Z"/>
</svg>
