<svg width="24" height="24" viewBox="0 0 24 24" xmlns="http://www.w3.org/2000/svg"><path fill-rule="evenodd" clip-rule="evenodd" d="M17 6.20609H7V17.7919L10.5858 14.2061C11.3668 13.4251 12.6332 13.4251 13.4142 14.2061L17 17.7919V6.20609ZM7 5.20609C6.44772 5.20609 6 5.65381 6 6.20609V17.7919C6 18.6828 7.07714 19.129 7.70711 18.499L11.2929 14.9132C11.6834 14.5227 12.3166 14.5227 12.7071 14.9132L16.2929 18.499C16.9229 19.129 18 18.6828 18 17.7919V6.20609C18 5.65381 17.5523 5.20609 17 5.20609H7ZM9 8.20609H15V9.20609H9V8.20609ZM15 10.2061H9V11.2061H15V10.2061Z"/></svg>