<svg width="24" height="24" viewBox="0 0 24 24" xmlns="http://www.w3.org/2000/svg"><path fill-rule="evenodd" clip-rule="evenodd" d="M12.5 4.4C13.3 4.2 14.1 4 15 4C19.4 4 23 7.6 23 12C23 16.4 19.4 20 15 20C14.1 20 13.3 19.9 12.5 19.6C11.7 19.9 10.9 20 10 20C5.6 20 2 16.4 2 12C2 7.6 5.6 4 10 4C10.9 4 11.7 4.1 12.5 4.4ZM10 5C6.1 5 3 8.1 3 12C3 15.9 6.1 19 10 19C13.9 19 17 15.9 17 12C17 8.1 13.9 5 10 5ZM15.5 17.8C15 18.2 14.6 18.5 14.1 18.8C14.4 18.9 14.7 18.9 15 18.9C18.8 18.9 21.9 15.8 21.9 12C21.9 8.2 18.8 5.1 15 5.1C14.85 5.1 14.7 5.125 14.55 5.15C14.4 5.175 14.25 5.2 14.1 5.2C14.6 5.5 15.1 5.8 15.5 6.2C18.5 6.4 20.9 8.9 20.9 12C20.9 15 18.5 17.6 15.5 17.8ZM10 18C13.3137 18 16 15.3137 16 12C16 8.68629 13.3137 6 10 6C6.68629 6 4 8.68629 4 12C4 15.3137 6.68629 18 10 18ZM12 11.4C12.4 11 12.6 10.5 12.6 10C12.6 8.9 11.7 8 10.6 8H8V16H10.5C11.6 16 12.6 15.4 13 14.3C13.1 14 13.1 13.8 13.1 13.5C13.1 12.6 12.7 11.9 12 11.4ZM10.6 9C11.2 9 11.6 9.4 11.6 10C11.6 10.6 11.2 11 10.6 11H9V9H10.6ZM12 14C11.8 14.6 11.2 15 10.5 15H9V12H10.6C11.4 12 12.1 12.7 12.1 13.5C12.1 13.7 12.1 13.8 12 14Z"/></svg>