<svg width="14" height="14" viewBox="0 0 14 14" xmlns="http://www.w3.org/2000/svg"><path fill-rule="evenodd" clip-rule="evenodd" d="M10.08 1.84285H4.06572C3.94842 1.84285 3.85511 1.78192 3.85511 1.7053V1.39537C3.85511 1.3205 3.94842 1.25781 4.06572 1.25781H10.08C10.1947 1.25781 10.2906 1.31875 10.2906 1.39537V1.7053C10.2906 1.78017 10.1973 1.84285 10.08 1.84285ZM9.84566 2.78024H10.9879C11.4936 2.78024 11.9029 3.19224 11.9 3.69801V5.11303C11.9 6.81218 10.519 8.19595 8.82274 8.19595H8.58121C7.87371 9.2359 7.77994 10.1139 7.83961 10.6992C7.91427 11.4209 8.2338 11.8574 8.264 11.8987L8.26582 11.9011C8.43631 12.1228 8.66646 12.2734 8.85115 12.3927C8.98469 12.4808 9.13529 12.5803 9.16086 12.6485C9.16086 12.6485 9.16108 12.652 9.16133 12.6541C9.16233 12.6628 9.16375 12.6751 9.15233 12.691C9.13813 12.7166 9.09835 12.7422 9.04152 12.7422H4.95843C4.9016 12.7422 4.86466 12.7138 4.84761 12.691C4.83056 12.6683 4.83625 12.6541 4.83909 12.6485C4.86112 12.5823 5.00593 12.4869 5.1364 12.4009L5.1488 12.3927L5.15722 12.3871C5.34044 12.2659 5.56623 12.1167 5.73413 11.9011L5.73596 11.8987C5.76614 11.8574 6.08568 11.4209 6.16034 10.6992C6.22285 10.1168 6.12624 9.2359 5.41873 8.19595H5.17722C3.4809 8.19595 2.09998 6.81503 2.09998 5.11303V3.69517C2.09998 3.19224 2.51198 2.78024 3.01491 2.78024H4.15715V2.4279H9.84566V2.78024ZM2.97513 3.69801V5.11303C2.97513 6.20128 3.76504 7.10769 4.79931 7.28954C4.37878 6.51384 4.15715 5.66426 4.15715 4.80331V3.65823H3.01491C2.99502 3.65823 2.97513 3.67812 2.97513 3.69801ZM9.20349 7.2867C10.2378 7.10769 11.0277 6.20128 11.0277 5.11303V3.69801C11.0277 3.67812 11.0077 3.65823 10.9879 3.65823H9.84566V4.80048C9.84566 5.66142 9.62401 6.51099 9.20349 7.2867Z"/></svg>