<svg width="60" height="60" viewBox="0 0 60 60" xmlns="http://www.w3.org/2000/svg"><path d="M52.9167 24.2224C52.9658 21.8342 52.6719 19.4513 52.0442 17.1466C51.202 14.282 49.4541 11.7674 47.0625 9.97991C42.3583 6.29408 37.9617 4.76658 32.8217 5.02741C30.1103 5.21519 27.4162 5.60037 24.7608 6.17991C21.0017 6.93575 18.2708 8.25741 16.4117 10.2207C14.9383 11.7897 13.8007 13.6427 13.0683 15.6666C12.7579 16.5583 12.5052 17.4691 12.3117 18.3932L12.245 18.6816C12.0695 19.3307 11.8326 19.9616 11.5375 20.5657C11.3658 20.9507 11.1933 21.3357 11.0442 21.7324C10.851 22.1725 10.7738 22.6548 10.82 23.1332C10.9896 23.8777 11.4211 24.5363 12.0358 24.9891C12.445 25.3641 12.7133 25.6266 12.7158 25.8666C12.6833 25.9909 12.6342 26.1103 12.57 26.2216C11.572 28.3257 10.3488 30.3154 8.92167 32.1557C8.32334 32.8866 7.69667 33.7391 7.82417 34.6049C8.00629 35.262 8.44018 35.8207 9.03167 36.1599C9.30741 36.3498 9.59808 36.517 9.90084 36.6599C10.26 36.8432 10.8625 37.1499 10.9008 37.3707C10.9548 37.6513 10.9232 37.9417 10.81 38.2041C10.6858 38.4641 10.56 38.6891 10.4475 38.8849C10.1417 39.4257 9.62917 40.3324 10.4 40.9807C10.58 41.1391 10.8883 41.3816 11.17 41.5974C10.9619 41.9634 10.8684 42.3835 10.9017 42.8032C10.9469 43.1295 11.1244 43.4227 11.3925 43.6141C11.5792 43.7466 11.7783 43.8641 11.9758 43.9741C12.4658 44.2532 12.6567 44.3841 12.7258 44.6407C12.7708 44.9802 12.7401 45.3254 12.6358 45.6516C12.5875 45.8707 12.5408 46.0891 12.5117 46.3074C12.4272 47.0654 12.5229 47.8326 12.7908 48.5466C13.2217 50.1304 14.8179 51.0989 16.4217 50.7499C18.8011 50.1761 21.1479 49.4743 23.4517 48.6474C25.325 49.7541 26.5092 53.1016 26.8175 54.3574C26.9088 54.7301 27.2429 54.9923 27.6267 54.9924L48.5433 54.9349C48.8072 54.9341 49.055 54.8084 49.2116 54.596C49.3681 54.3836 49.4148 54.1097 49.3375 53.8574C49.1309 53.2887 48.845 52.752 48.4883 52.2632C48.2914 51.9805 48.1132 51.6852 47.955 51.3791C47.5793 50.6105 47.2645 49.8136 47.0133 48.9957C46.5377 47.386 46.2091 45.7365 46.0317 44.0674C45.7364 41.5755 46.1127 39.05 47.1217 36.7524C47.7385 35.4802 48.4975 34.282 49.3842 33.1807C49.8842 32.5032 50.4067 31.8032 50.875 31.0641C52.1901 29.023 52.8981 26.6504 52.9167 24.2224ZM48.0467 32.1949C47.0839 33.3969 46.2614 34.7048 45.595 36.0932C44.4674 38.6632 44.0473 41.488 44.3783 44.2749C44.5649 46.0429 44.9125 47.7901 45.4167 49.4949C45.6929 50.3931 46.0384 51.2685 46.45 52.1132C46.6396 52.486 46.8542 52.8454 47.0925 53.1891L47.1525 53.2799L28.2567 53.3332C27.7016 51.3558 26.6962 49.5338 25.3192 48.0099C25.5317 47.9357 25.7358 47.8666 25.92 47.7999C26.5517 47.5791 27.0292 47.4116 27.2675 47.3366C30.84 46.2149 32.6267 44.5916 32.5783 42.5107C32.5513 42.0576 32.1789 41.7023 31.725 41.6966C31.504 41.7018 31.2941 41.7947 31.1415 41.9547C30.989 42.1148 30.9063 42.3289 30.9117 42.5499C30.9317 43.4082 30.2292 44.6599 26.7667 45.7466C26.5167 45.8249 26.0242 45.9966 25.3683 46.2274C24.7742 46.4357 24.045 46.6907 23.2475 46.9632C20.9001 47.8123 18.5086 48.5339 16.0833 49.1249C15.3025 49.2754 14.5426 48.7813 14.3633 48.0066C14.1834 47.5388 14.1146 47.0355 14.1625 46.5366C14.185 46.3641 14.2242 46.1916 14.2625 46.0182C14.4335 45.4399 14.4604 44.8285 14.3408 44.2374C14.1016 43.4723 13.5404 42.8496 12.8042 42.5324L12.6258 42.4299C12.7151 42.2479 12.822 42.0752 12.945 41.9141C13.0836 41.737 13.1448 41.5115 13.1147 41.2886C13.0846 41.0658 12.9657 40.8646 12.785 40.7307C12.585 40.5824 12.1083 40.2257 11.7667 39.9516C11.8092 39.8741 11.8567 39.7849 11.9008 39.7107C12.0292 39.4849 12.175 39.2241 12.3175 38.9266C12.584 38.3439 12.6624 37.6926 12.5417 37.0632C12.3475 36.0407 11.375 35.5424 10.6575 35.1791C10.4156 35.0644 10.1837 34.9298 9.96417 34.7766C9.79144 34.6564 9.62768 34.5238 9.47417 34.3799C9.47417 34.2549 9.6075 33.9499 10.2483 33.1674C11.7373 31.2476 13.0139 29.1722 14.0558 26.9774C14.2565 26.6339 14.3687 26.2459 14.3825 25.8482C14.2976 25.0094 13.852 24.249 13.1617 23.7649C12.8283 23.4566 12.5067 23.1649 12.4708 22.9082C12.4741 22.7066 12.5196 22.5079 12.6042 22.3249C12.7408 21.9632 12.9 21.6082 13.0592 21.2532C13.3989 20.5522 13.6699 19.8199 13.8683 19.0666L13.9358 18.7757C14.1138 17.9203 14.3465 17.0772 14.6325 16.2516C15.2857 14.4366 16.3029 12.7743 17.6217 11.3666C19.2358 9.66658 21.6792 8.49991 25.0892 7.81408C27.6642 7.25053 30.277 6.87564 32.9067 6.69241C37.6217 6.44241 41.6692 7.87075 46.0325 11.2941C48.1527 12.8572 49.7007 15.0737 50.4383 17.6024C51.023 19.7509 51.2963 21.9721 51.25 24.1982C51.2354 26.3211 50.6172 28.3961 49.4675 30.1807C49.0308 30.8657 48.5292 31.5416 48.0442 32.1949H48.0467Z"/><path d="M24.5834 19.1666H25.4167C25.8769 19.1666 26.25 18.7935 26.25 18.3332C26.25 17.873 25.8769 17.4999 25.4167 17.4999H24.5834C23.2027 17.4999 22.0834 18.6192 22.0834 19.9999V20.8332C22.0834 22.2139 23.2027 23.3332 24.5834 23.3332H25.4167C25.8769 23.3332 26.25 22.9601 26.25 22.4999C26.25 22.0397 25.8769 21.6666 25.4167 21.6666H24.5834C24.1231 21.6666 23.75 21.2935 23.75 20.8332V19.9999C23.75 19.5397 24.1231 19.1666 24.5834 19.1666Z"/><path d="M30.4167 16.6666C29.9564 16.6666 29.5833 17.0397 29.5833 17.4999V19.1666C29.5833 19.6268 29.2102 19.9999 28.75 19.9999H27.9166C27.4564 19.9999 27.0833 20.373 27.0833 20.8332C27.0833 21.2935 27.4564 21.6666 27.9166 21.6666H28.75C30.1307 21.6666 31.25 20.5473 31.25 19.1666V17.4999C31.25 17.0397 30.8769 16.6666 30.4167 16.6666Z"/><path d="M33.75 16.6666V15.8333C33.75 14.4525 32.6307 13.3333 31.25 13.3333H29.5833C28.2026 13.3333 27.0833 14.4525 27.0833 15.8333V16.6666C27.0833 17.1268 27.4564 17.4999 27.9166 17.4999C28.3769 17.4999 28.75 17.1268 28.75 16.6666V15.8333C28.75 15.373 29.1231 14.9999 29.5833 14.9999H31.25C31.7102 14.9999 32.0833 15.373 32.0833 15.8333V16.6666C32.0833 17.1268 32.4564 17.4999 32.9167 17.4999C33.3769 17.4999 33.75 17.1268 33.75 16.6666Z"/><path d="M36.25 22.4999H35.4167C34.9565 22.4999 34.5834 22.1268 34.5834 21.6666V20.8332C34.5834 20.373 34.2103 19.9999 33.75 19.9999C33.2898 19.9999 32.9167 20.373 32.9167 20.8332V21.6666C32.9167 23.0473 34.036 24.1666 35.4167 24.1666H36.25C36.7103 24.1666 37.0834 23.7935 37.0834 23.3332C37.0834 22.873 36.7103 22.4999 36.25 22.4999Z"/><path d="M40.4167 19.9999C40.4167 19.5397 40.0436 19.1666 39.5833 19.1666H38.75C38.2898 19.1666 37.9167 18.7935 37.9167 18.3333C37.9167 17.873 38.2898 17.4999 38.75 17.4999H39.5833C40.0436 17.4999 40.4167 17.1268 40.4167 16.6666C40.4167 16.2063 40.0436 15.8333 39.5833 15.8333H38.75C37.3693 15.8333 36.25 16.9525 36.25 18.3333C36.25 19.714 37.3693 20.8333 38.75 20.8333H39.5833C40.0436 20.8333 40.4167 20.4602 40.4167 19.9999Z"/><path d="M42.9167 19.9999C42.4564 19.9999 42.0833 20.373 42.0833 20.8332V22.4999C42.0833 22.9601 41.7102 23.3332 41.25 23.3332H40.4166C39.9564 23.3332 39.5833 23.7063 39.5833 24.1666C39.5833 24.6268 39.9564 24.9999 40.4166 24.9999H41.25C42.6307 24.9999 43.75 23.8806 43.75 22.4999V20.8332C43.75 20.373 43.3769 19.9999 42.9167 19.9999Z"/><path d="M49.55 22.4999C49.55 22.4866 49.5433 22.4758 49.5425 22.4624C49.4678 20.9733 49.2308 19.4968 48.8358 18.0591C48.1917 15.8721 46.8469 13.9572 45.0083 12.6091C41.2392 9.65242 37.8217 8.33325 33.9242 8.33325C33.6175 8.33325 33.3075 8.34159 32.99 8.35659C32.7058 8.37159 32.4217 8.40409 32.1375 8.42742C32.1183 8.42742 32.1025 8.41659 32.0833 8.41659C32.0396 8.42141 31.9964 8.43006 31.9542 8.44242C29.7578 8.65427 27.5751 8.99009 25.4167 9.44825C24.47 9.63469 23.5386 9.89123 22.63 10.2158C22.6108 10.2233 22.5917 10.2274 22.5733 10.2358C21.1684 10.6979 19.8887 11.4772 18.8333 12.5133C17.8117 13.6105 16.9979 14.8842 16.4317 16.2724C16.4061 16.3194 16.3852 16.3688 16.3692 16.4199C16.3133 16.5566 16.2492 16.6858 16.1975 16.8249C15.9417 17.5191 15.5392 19.2474 15.4883 19.4649C15.3008 20.3974 14.8358 23.5933 16.7267 25.5983C17.9267 26.8699 19.7617 27.3399 22.1717 26.9983L23.2933 26.8383C28.64 26.0691 31.3233 25.6833 33.6325 27.9416C34.0767 28.3758 34.5317 28.8191 35.005 29.2499C34.4808 30.8983 33.8008 34.4166 36.5883 36.4999C39.5833 38.7499 39.5833 39.3591 39.5833 40.8333C39.5817 41.1229 39.7306 41.3925 39.9765 41.5455C40.2224 41.6984 40.5301 41.7127 40.7892 41.5833C41.0075 41.4699 42.9167 40.4066 42.9167 36.6666C42.9167 34.6208 44.4417 32.8524 45.9475 31.3891L45.9725 31.3666C46.7891 30.8061 47.4953 30.0998 48.0558 29.2833C48.6604 28.3302 49.0928 27.2784 49.3333 26.1758C49.3826 26.0683 49.4082 25.9515 49.4083 25.8333C49.513 25.2866 49.5715 24.7322 49.5833 24.1758C49.5917 23.6166 49.5792 23.0624 49.5492 22.5149C49.5498 22.51 49.5501 22.5049 49.55 22.4999ZM41.25 36.6666C41.2641 37.3597 41.165 38.0504 40.9567 38.7116C40.5675 37.7374 39.6658 36.7283 37.5833 35.1658C35.9275 33.9258 36.0442 31.8641 36.4017 30.4158C37.9629 31.669 39.8997 32.3618 41.9017 32.3833C42.2263 32.3809 42.5506 32.3619 42.8733 32.3266C41.872 33.5567 41.3018 35.0813 41.25 36.6666ZM46.65 28.3949C46.0668 29.2691 45.2419 29.9547 44.2758 30.3683C42.7464 30.8606 41.0974 30.836 39.5833 30.2983V29.1666C39.5833 28.7064 39.9564 28.3333 40.4167 28.3333H42.9167C43.3769 28.3333 43.75 27.9602 43.75 27.4999C43.75 27.0397 43.3769 26.6666 42.9167 26.6666H40.4167C39.0359 26.6666 37.9167 27.7859 37.9167 29.1666V29.4258C36.7974 28.6306 35.7528 27.7353 34.7958 26.7508C33.8283 25.7701 32.5963 25.0922 31.25 24.7999V24.1666C31.25 23.7064 30.8769 23.3333 30.4167 23.3333C29.9564 23.3333 29.5833 23.7064 29.5833 24.1666V24.5966C27.3937 24.601 25.2088 24.7993 23.0542 25.1891L21.9358 25.3483C21.4331 25.4223 20.9244 25.4486 20.4167 25.4266V24.9999C20.4167 24.5397 20.0436 24.1666 19.5833 24.1666C19.1231 24.1666 18.75 24.5397 18.75 24.9999V25.0399C18.4457 24.8961 18.1699 24.6985 17.9358 24.4566C17.4582 23.9041 17.1526 23.2239 17.0567 22.4999H17.9167C19.2974 22.4999 20.4167 21.3806 20.4167 19.9999C20.4167 19.5397 20.0436 19.1666 19.5833 19.1666C19.1231 19.1666 18.75 19.5397 18.75 19.9999C18.75 20.4602 18.3769 20.8333 17.9167 20.8333H16.9825C17.0052 20.4922 17.0494 20.1529 17.115 19.8174C17.2242 19.3441 17.5317 18.0674 17.7258 17.4999H20.4167C20.8769 17.4999 21.25 17.1268 21.25 16.6666C21.25 16.2064 20.8769 15.8333 20.4167 15.8333H18.485C18.9075 15.0444 19.4305 14.3136 20.0408 13.6591C20.6309 13.0683 21.3228 12.5889 22.0833 12.2441V13.3333C22.0833 14.714 23.2026 15.8333 24.5833 15.8333C25.0436 15.8333 25.4167 15.4602 25.4167 14.9999C25.4167 14.5397 25.0436 14.1666 24.5833 14.1666C24.1231 14.1666 23.75 13.7935 23.75 13.3333V11.5916C24.4071 11.3865 25.0747 11.2169 25.75 11.0833C26.46 10.9399 27.1867 10.8024 27.9167 10.6716V10.8333C27.9167 11.2935 28.2898 11.6666 28.75 11.6666C29.2102 11.6666 29.5833 11.2935 29.5833 10.8333V10.3941C30.1383 10.3108 30.6942 10.2341 31.25 10.1733V10.8333C31.25 11.2935 31.6231 11.6666 32.0833 11.6666C32.5436 11.6666 32.9167 11.2935 32.9167 10.8333V10.0349C32.9692 10.0349 33.0225 10.0249 33.0742 10.0216C33.5892 9.99992 34.09 9.99992 34.5833 10.0208V13.3333C34.5833 13.7935 34.9564 14.1666 35.4167 14.1666H37.0833C37.5436 14.1666 37.9167 13.7935 37.9167 13.3333C37.9167 12.873 37.5436 12.4999 37.0833 12.4999H36.25V10.2024C37.7081 10.4495 39.1179 10.9254 40.4275 11.6124C40.4275 11.6316 40.4167 11.6474 40.4167 11.6666V14.1666C40.4167 14.6268 40.7898 14.9999 41.25 14.9999C41.7102 14.9999 42.0833 14.6268 42.0833 14.1666V12.5749C42.63 12.9291 43.1833 13.3158 43.75 13.7516V15.8333C43.75 16.2935 43.3769 16.6666 42.9167 16.6666C42.4564 16.6666 42.0833 17.0397 42.0833 17.4999C42.0833 17.9602 42.4564 18.3333 42.9167 18.3333C44.2974 18.3333 45.4167 17.214 45.4167 15.8333V15.2624C46.2636 16.1919 46.8849 17.304 47.2325 18.5124C47.5151 19.545 47.7058 20.6005 47.8025 21.6666H46.25C45.7898 21.6666 45.4167 22.0397 45.4167 22.4999C45.4167 22.9602 45.7898 23.3333 46.25 23.3333H47.8992C47.905 23.6058 47.9183 23.8766 47.9142 24.1516C47.91 24.4416 47.8783 24.7208 47.8467 24.9999H46.25C45.7898 24.9999 45.4167 25.373 45.4167 25.8333C45.4167 26.2935 45.7898 26.6666 46.25 26.6666H47.47C47.2655 27.2729 46.9902 27.853 46.65 28.3949Z"/></svg>