<svg width="60" height="60" viewBox="0 0 60 60" xmlns="http://www.w3.org/2000/svg"><path d="M30 35.645C27.7768 35.645 25.9678 37.454 25.9678 39.6773C25.9678 41.9005 27.7768 43.7095 30 43.7095C32.2233 43.7095 34.0323 41.9005 34.0323 39.6773C34.0323 37.454 32.2233 35.645 30 35.645ZM30 42.0966C28.6663 42.0966 27.5807 41.011 27.5807 39.6773C27.5807 38.3436 28.6663 37.2579 30 37.2579C31.3337 37.2579 32.4194 38.3436 32.4194 39.6773C32.4194 41.011 31.3337 42.0966 30 42.0966Z"/><path d="M29.1936 8.22559H35.6452V9.83849H29.1936V8.22559Z"/><path d="M29.1936 11.4517H35.6452V13.0646H29.1936V11.4517Z"/><path d="M24.3547 14.6772H35.6451V16.2901H24.3547V14.6772Z"/><path d="M24.3547 17.9033H35.6451V19.5162H24.3547V17.9033Z"/><path d="M24.3547 21.1289H35.6451V22.7418H24.3547V21.1289Z"/><path d="M55 30.8065V24.3548H43.7097V30.8065H48.5484V38.871H38.871V37.4829L36.8911 36.8225L37.8243 34.9564L34.721 31.8531L32.8541 32.7871L32.1945 30.8065H30.8065V25.9677H38.871V16.2903H48.5484V20.7951L46.6992 18.9459L45.5588 20.0863L49.3548 23.8823L53.1508 20.0863L52.0105 18.9459L50.1613 20.7951V14.6774H38.871V5H26.4403L21.129 10.3112V14.6774H9.83871V20.7951L7.98954 18.9459L6.84917 20.0863L10.6452 23.8823L14.4412 20.0863L13.3008 18.9459L11.4516 20.7951V16.2903H21.129V25.9677H29.1935V30.8065H27.8055L27.1459 32.7871L25.279 31.8531L22.1757 34.9564L23.1089 36.8225L21.129 37.4829V38.871H11.4516V30.8065H16.2903V24.3548H5V30.8065H9.83871V43.8243C8.45065 44.1846 7.41935 45.4372 7.41935 46.9355C7.41935 48.7146 8.86608 50.1613 10.6452 50.1613C12.4242 50.1613 13.871 48.7146 13.871 46.9355C13.871 45.4372 12.8397 44.1846 11.4516 43.8243V40.4839H16.2903V50.3097C15.3539 50.6437 14.6774 51.5308 14.6774 52.5806C14.6774 53.9144 15.7631 55 17.0968 55C18.4305 55 19.5161 53.9144 19.5161 52.5806C19.5161 51.5308 18.8396 50.6437 17.9032 50.3097V40.4839H21.129V41.8719L23.1089 42.5323L22.1757 44.3984L25.279 47.5017L27.1459 46.5677L27.8055 48.5484H32.1937L32.8533 46.5677L34.7202 47.5017L37.8235 44.3984L36.8903 42.5323L38.871 41.8719V40.4839H42.0968V50.3097C41.1604 50.6437 40.4839 51.5308 40.4839 52.5806C40.4839 53.9144 41.5695 55 42.9032 55C44.2369 55 45.3226 53.9144 45.3226 52.5806C45.3226 51.5308 44.6461 50.6437 43.7097 50.3097V40.4839H48.5484V43.8243C47.1603 44.1846 46.129 45.4372 46.129 46.9355C46.129 48.7146 47.5758 50.1613 49.3548 50.1613C51.1339 50.1613 52.5806 48.7146 52.5806 46.9355C52.5806 45.4372 51.5493 44.1846 50.1613 43.8243V30.8065H55ZM25.9677 7.75328V9.83871H23.8823L25.9677 7.75328ZM22.7419 11.4516H27.5806V6.6129H37.2581V24.3548H22.7419V11.4516ZM6.6129 25.9677H14.6774V29.1935H6.6129V25.9677ZM12.2581 46.9355C12.2581 47.825 11.5347 48.5484 10.6452 48.5484C9.75562 48.5484 9.03226 47.825 9.03226 46.9355C9.03226 46.0459 9.75562 45.3226 10.6452 45.3226C11.5347 45.3226 12.2581 46.0459 12.2581 46.9355ZM17.0968 53.3871C16.6518 53.3871 16.2903 53.0248 16.2903 52.5806C16.2903 52.1365 16.6518 51.7742 17.0968 51.7742C17.5417 51.7742 17.9032 52.1365 17.9032 52.5806C17.9032 53.0248 17.5417 53.3871 17.0968 53.3871ZM37.2581 40.7087L35.4081 41.3258L35.2719 41.6813C35.2313 41.7845 35.1911 41.8873 35.1466 41.9869L34.9903 42.3362L35.8621 44.0798L34.4032 45.5388L32.6596 44.6669L32.3107 44.8233C32.2114 44.8678 32.1106 44.9079 32.0083 44.9469L31.6491 45.0824L31.0313 46.9355H28.9679L28.3501 45.0824L27.991 44.9469C27.8886 44.9079 27.7878 44.8678 27.6885 44.8233L27.3397 44.6669L25.596 45.5388L24.1371 44.0798L25.0089 42.3362L24.8526 41.9869C24.8073 41.8861 24.7679 41.7845 24.7274 41.6813L24.5911 41.3258L22.7419 40.7087V38.6453L24.5919 38.0283L24.7281 37.6727C24.7687 37.5695 24.8089 37.4668 24.8534 37.3667L25.0097 37.0179L24.1379 35.2742L25.5968 33.8153L27.3404 34.6871L27.6893 34.5308C27.7886 34.4863 27.8894 34.4461 27.9917 34.4071L28.3509 34.2717L28.9687 32.4194H31.0321L31.6499 34.2725L32.009 34.4079C32.1114 34.4469 32.2122 34.4871 32.3115 34.5316L32.6603 34.6879L34.404 33.8161L35.8629 35.275L34.9911 37.0187L35.1474 37.3679C35.1927 37.4687 35.2321 37.5703 35.2726 37.6735L35.4089 38.0291L37.2581 38.6461V40.7087ZM42.9032 53.3871C42.4583 53.3871 42.0968 53.0248 42.0968 52.5806C42.0968 52.1365 42.4583 51.7742 42.9032 51.7742C43.3482 51.7742 43.7097 52.1365 43.7097 52.5806C43.7097 53.0248 43.3482 53.3871 42.9032 53.3871ZM50.9677 46.9355C50.9677 47.825 50.2444 48.5484 49.3548 48.5484C48.4653 48.5484 47.7419 47.825 47.7419 46.9355C47.7419 46.0459 48.4653 45.3226 49.3548 45.3226C50.2444 45.3226 50.9677 46.0459 50.9677 46.9355ZM45.3226 25.9677H53.3871V29.1935H45.3226V25.9677Z"/></svg>