<svg width="60" height="60" viewBox="0 0 60 60" xmlns="http://www.w3.org/2000/svg"><path d="M46.7495 13.0863L24.2175 7.0489C22.8315 6.6775 21.4174 7.44848 21.0638 8.76836L20.5864 10.5499C20.5812 10.5694 20.5709 10.5806 20.5656 10.6001L11.7553 43.4806C11.7501 43.5001 11.7449 43.5196 11.7482 43.5345L11.2674 45.329C10.9137 46.6489 11.7528 48.0236 13.1389 48.395L35.6708 54.4324C37.0569 54.8038 38.4709 54.0328 38.8246 52.7129L48.621 16.1523C48.9746 14.8324 48.1355 13.4577 46.7495 13.0863ZM32.0429 11.1512L37.9206 12.7261C38.2034 12.8019 38.3742 13.0818 38.3021 13.351C38.2299 13.6202 37.942 13.7772 37.6593 13.7014L31.7816 12.1265C31.4989 12.0507 31.3281 11.7709 31.4002 11.5016C31.4723 11.2324 31.7602 11.0754 32.0429 11.1512ZM27.8456 50.3268L21.9679 48.7519C21.6852 48.6761 21.5143 48.3962 21.5865 48.127C21.6586 47.8578 21.9465 47.7008 22.2292 47.7766L28.1069 49.3515C28.3896 49.4273 28.5605 49.7071 28.4883 49.9764C28.4162 50.2456 28.1283 50.4026 27.8456 50.3268ZM36.5867 50.1401L14.4918 44.2198L14.6501 43.6291L14.6467 43.6142L23.2288 11.5855L23.3012 11.3378L45.3973 17.2585L36.5867 50.1401V50.1401Z"/><path d="M29.918 27.3763C29.6989 27.3177 29.4793 27.4491 29.4219 27.6631C29.3632 27.8824 29.4891 28.1007 29.7082 28.1594C31.8202 28.7253 33.0848 30.9106 32.5183 33.0249C32.4609 33.2389 32.5855 33.4626 32.8045 33.5213C33.0183 33.5785 33.2432 33.4485 33.3005 33.2345C33.9832 30.6869 32.4629 28.0583 29.918 27.3763Z"/><path fill-rule="evenodd" clip-rule="evenodd" d="M27.4883 38.4055L27.4902 38.4076C28.7641 39.8222 30.6574 40.1541 32.0538 39.8343C32.7605 39.6725 33.1996 39.376 33.3841 39.1262C33.467 39.0142 33.4927 38.9223 33.495 38.8443C33.4973 38.7652 33.4776 38.6284 33.3533 38.4264L32.3039 36.7645C32.0564 36.3725 31.4005 36.1967 30.9901 36.4125L30.9048 36.4573C30.8862 36.4675 30.8648 36.479 30.8424 36.4907C30.7283 36.5499 30.5528 36.6314 30.3337 36.6861C29.8619 36.804 29.2273 36.7818 28.6273 36.3105L28.6201 36.3048L28.6201 36.3048C26.9273 34.9495 25.6987 33.1036 25.2263 30.9189L25.2259 30.9173C25.1216 30.4307 25.1784 29.9448 25.478 29.5267C25.7071 29.207 26.0331 29.0104 26.1927 28.9141C26.2013 28.9089 26.2094 28.904 26.2171 28.8994C26.583 28.6773 26.6778 28.6079 26.7409 28.3725C26.7856 28.2058 26.7648 28.013 26.6538 27.8255C26.4103 27.4874 26.2201 27.1738 26.0614 26.9047C26.0282 26.8483 25.997 26.7952 25.9676 26.745C25.8447 26.5354 25.7512 26.3759 25.6516 26.2299C25.4485 25.9324 25.2942 25.7987 24.9962 25.7127C24.7971 25.6652 24.4846 25.6902 24.0885 25.8913C23.6931 26.0921 23.28 26.4387 22.94 26.9057C22.2661 27.8313 21.9413 29.1339 22.5079 30.5189L22.5089 30.5214L22.5089 30.5214C23.7044 33.4656 25.4254 36.1277 27.4883 38.4055ZM25.2536 24.7462C26.0938 24.9819 26.4086 25.5193 26.8378 26.2519C27.0179 26.5594 27.2182 26.9013 27.4859 27.2697C27.7489 27.6862 27.8295 28.1734 27.7068 28.6313C27.5358 29.2697 27.1206 29.5212 26.766 29.736C26.3912 29.9631 26.084 30.1492 26.2037 30.7076C26.6234 32.6482 27.7155 34.2996 29.2451 35.5242C29.7791 35.9437 30.2839 35.6595 30.4634 35.5585C30.4934 35.5416 30.5143 35.5298 30.5248 35.5273C31.3969 35.0689 32.6234 35.3976 33.1494 36.2306L34.2015 37.8967C35.8927 40.6293 29.8631 42.5371 26.7471 39.0767C24.6104 36.7175 22.8245 33.9567 21.5824 30.8976C20.1492 27.3946 23.2563 24.2363 25.2536 24.7462Z"/><path d="M30.5799 24.8683C30.3664 24.8111 30.1446 24.9679 30.0794 25.2112C30.0126 25.4605 30.1279 25.7012 30.3414 25.7584C33.8536 26.6995 35.8216 30.8011 34.7229 34.9015C34.6578 35.1448 34.7714 35.3915 34.9849 35.4487C35.1933 35.5045 35.4202 35.3491 35.4854 35.1058C36.7144 30.5189 34.514 25.9225 30.5799 24.8683Z"/><path d="M29.8139 22.8847C35.3306 24.3628 38.6162 30.0569 37.1388 35.5708C37.0767 35.8024 37.2116 36.0444 37.4488 36.1079C37.6802 36.17 37.9237 36.0293 37.9858 35.7977C39.5888 29.815 36.0264 23.641 30.041 22.0372C29.8095 21.9752 29.566 22.1159 29.504 22.3475C29.4404 22.5848 29.5824 22.8226 29.8139 22.8847Z"/><path d="M12.7028 17.3919C12.357 17.2992 12.0106 17.4695 11.9295 17.7722L7.85892 32.9637C7.77783 33.2663 7.99264 33.587 8.3385 33.6797C8.68435 33.7724 9.03074 33.602 9.11183 33.2994L13.1824 18.1079C13.2635 17.8052 13.0487 17.4845 12.7028 17.3919Z"/><path d="M9.52605 19.2268C9.1802 19.1341 8.84549 19.2609 8.7788 19.5098L5.99895 29.8843C5.93226 30.1332 6.15875 30.4103 6.5046 30.503C6.85046 30.5957 7.18517 30.4689 7.25186 30.2201L10.0317 19.8455C10.0984 19.5966 9.87191 19.3195 9.52605 19.2268Z"/><path d="M50.29 27.4633C49.9441 27.3707 49.5977 27.541 49.5166 27.8436L45.4461 43.0352C45.365 43.3378 45.5798 43.6585 45.9257 43.7512C46.2715 43.8438 46.6179 43.6735 46.699 43.3709L50.7695 28.1793C50.8506 27.8767 50.6358 27.556 50.29 27.4633Z"/><path d="M52.1247 30.6412C51.7788 30.5485 51.4441 30.6753 51.3774 30.9242L48.5976 41.2987C48.5309 41.5476 48.7574 41.8247 49.1032 41.9174C49.4491 42.0101 49.7838 41.8833 49.8505 41.6344L52.6303 31.2599C52.697 31.011 52.4705 30.7339 52.1247 30.6412Z"/></svg>