<svg width="24" height="24" viewBox="0 0 24 24" xmlns="http://www.w3.org/2000/svg"><path fill-rule="evenodd" clip-rule="evenodd" d="M4.40554 10.3936C4.40554 7.6037 6.68576 5.33199 9.52897 5.33199C12.3722 5.33199 14.6524 7.6037 14.6524 10.3936C14.6524 13.1834 12.3722 15.4552 9.52897 15.4552C6.68576 15.4552 4.40554 13.1834 4.40554 10.3936ZM9.52897 4.33199C6.14308 4.33199 3.40554 7.04187 3.40554 10.3936C3.40554 13.7453 6.14308 16.4552 9.52897 16.4552C12.9149 16.4552 15.6524 13.7453 15.6524 10.3936C15.6524 7.04187 12.9149 4.33199 9.52897 4.33199ZM20.1019 18.7396L16.0677 14.746L14.6606 16.1674L18.6949 20.1609L20.1019 18.7396Z"/></svg>