<svg width="24" height="24" viewBox="0 0 24 24" xmlns="http://www.w3.org/2000/svg"><path fill-rule="evenodd" clip-rule="evenodd" d="M15.5 6.5C14.6356 6.5 14 7.13562 14 8C14 8.86438 14.6356 9.5 15.5 9.5C16.3644 9.5 17 8.86438 17 8C17 7.13562 16.3644 6.5 15.5 6.5ZM13 8C13 6.58333 14.0833 5.5 15.5 5.5C16.9167 5.5 18 6.58333 18 8C18 9.41667 16.9167 10.5 15.5 10.5C14.5935 10.5 13.8235 10.0564 13.3865 9.36579L10.6682 10.7249C10.8802 11.0947 11 11.5289 11 12C11 12.4711 10.8802 12.9053 10.6682 13.2751L13.3865 14.6342C13.8235 13.9436 14.5935 13.5 15.5 13.5C16.9167 13.5 18 14.5833 18 16C18 17.4167 16.9167 18.5 15.5 18.5C14.0833 18.5 13 17.4167 13 16C13 15.8548 13.0114 15.7131 13.0333 15.5757L9.96979 14.0439C9.56161 14.3328 9.05653 14.5 8.5 14.5C7.08333 14.5 6 13.4167 6 12C6 10.5833 7.08333 9.5 8.5 9.5C9.05653 9.5 9.56161 9.66719 9.96979 9.95609L13.0333 8.42431C13.0114 8.28692 13 8.14521 13 8ZM8.5 10.5C7.63562 10.5 7 11.1356 7 12C7 12.8644 7.63562 13.5 8.5 13.5C9.36438 13.5 10 12.8644 10 12C10 11.1356 9.36438 10.5 8.5 10.5ZM15.5 14.5C14.6356 14.5 14 15.1356 14 16C14 16.8644 14.6356 17.5 15.5 17.5C16.3644 17.5 17 16.8644 17 16C17 15.1356 16.3644 14.5 15.5 14.5Z"/></svg>