<svg width="60" height="60" viewBox="0 0 60 60" xmlns="http://www.w3.org/2000/svg"><path d="M35.3 33.1V31.2C36.9 29.9 38.2 27.9 38.9 25.7H41.6C43 25.7 44.1 24.6 44.1 23.2V19.7C44.1 18.5 43.3 17.5 42.1 17.2C40.7 11.3 35.8 7 30 7C24.2 7 19.3 11.3 17.9 17.2C16.8 17.4 15.9 18.4 15.9 19.7V23.2C15.9 24.6 17 25.6 18.3 25.7V26C18.3 27.3 19.4 28.4 20.7 28.4H27.7C28 28.7 28.3 28.8 28.7 28.8H30.6C31.4 28.8 32 28.2 32 27.4C32 26.6 31.4 26 30.6 26H28.7C28.3 26 27.9 26.2 27.7 26.4H23.5C22.9 25 22.5 23.5 22.5 21.9C22.5 16.8 25.8 12.7 29.9 12.7C34 12.7 37.3 16.8 37.3 21.9C37.3 27 34 31.1 29.9 31.1C28.3 31.1 26.9 30.5 25.6 29.4C25.2 29 24.6 29.1 24.2 29.5C23.8 29.9 23.9 30.5 24.3 30.9C24.4 31 24.5 31.1 24.6 31.2V33C14.9 34.7 14 42.2 14 51V52H45.9V51C45.9 43.3 45.1 35.1 35.3 33.1ZM20.7 26.5C20.5 26.5 20.3 26.3 20.3 26.1V25.8H21.1C21.2 26.1 21.2 26.3 21.3 26.6H20.7V26.5ZM30 10.8C26.3 10.8 23 13.4 21.5 17.2H19.9C21.2 12.5 25.2 9.1 30 9.1C34.8 9.1 38.7 12.5 40.1 17.2H38.5C37 13.4 33.7 10.8 30 10.8ZM30 33.2C31.2 33.2 32.3 32.9 33.3 32.5V34.8C33.3 36.6 31.8 38.1 30 38.1C28.2 38.1 26.7 36.6 26.7 34.8V32.6C27.7 32.9 28.9 33.2 30 33.2ZM16.1 50C16.2 42.2 17.1 36.6 24.8 35.1C25 37.8 27.3 40 30.1 40C32.9 40 35.1 37.9 35.3 35.2C42.3 36.7 43.9 41.8 44 50H16.1V50Z"/></svg>