<svg width="24" height="24" viewBox="0 0 24 24" xmlns="http://www.w3.org/2000/svg">
<path fill-rule="evenodd" clip-rule="evenodd" d="M12.0787 19C8.14607 19 5 15.8889 5 12C5 8.18889 8.14607 5 11.9213 5C15.8539 5 19 8.11111 19 12V12.2333C17.1124 12.2333 14.9888 9.58889 14.2809 8.5V8.42222C13.1011 7.25556 11.9213 6.71111 10.6629 6.78889C9.02299 6.92991 7.9648 8.28541 7.72274 8.59547C7.69779 8.62743 7.68151 8.64829 7.67416 8.65556C6.73034 9.9 6.41573 11.1444 6.65169 12.3111C7.13761 14.3019 9.21653 15.4444 9.75202 15.7387C9.82325 15.7778 9.86717 15.802 9.8764 15.8111C12 16.6667 13.1798 18.2222 13.573 18.8444C13.1011 18.9222 12.6292 19 12.0787 19ZM11.0541 8.00994C11.8946 7.92972 12.8114 8.33081 13.6518 9.37367C13.9574 9.85498 16.4023 13.4649 19 13.6253C18.618 16.1121 16.9371 18.1176 14.7979 19C14.4923 18.3582 13.1934 16.2725 10.5957 15.1495C10.5957 15.1495 8.45646 14.1066 8.07444 12.3418C7.84524 11.4594 8.15085 10.4967 8.91487 9.45389C8.91487 9.45389 9.7553 8.09016 11.0541 8.00994Z"/>
</svg>
