<svg width="24" height="24" viewBox="0 0 24 24" xmlns="http://www.w3.org/2000/svg"><path fill-rule="evenodd" clip-rule="evenodd" d="M19.7173 12.3296C19.7315 12.3477 19.7414 12.3604 19.7468 12.3671L20 12.7468L19.731 13.1266C18.8608 14.25 17.8323 15.231 16.6772 16.038L15.5538 16.7025C14.6203 17.2089 13.576 17.4778 12.5 17.4937C8.67108 17.4937 5.65922 13.6272 5.29984 13.1658C5.28497 13.1468 5.27465 13.1335 5.26899 13.1266L5 12.7468L5.26899 12.3671C6.13924 11.2595 7.16772 10.2627 8.32278 9.4557L9.4462 8.79114C10.3797 8.28481 11.4241 8.01582 12.5 8C16.3339 8 19.3632 11.8765 19.7173 12.3296ZM14.6203 15.7532L15.7753 15.1202C16.7722 14.4557 17.6582 13.6646 18.4335 12.7468C17.6108 11.7816 15.2215 9.26582 12.5158 9.26582C11.788 9.28164 11.0759 9.43987 10.4114 9.74051L9.25633 10.3734C8.25949 11.038 7.37342 11.8291 6.61392 12.7468C7.42089 13.712 9.81013 16.2278 12.5158 16.2278C13.2437 16.212 13.9557 16.0538 14.6203 15.7532ZM10.7912 12.7468C10.7912 13.6804 11.5506 14.4557 12.5 14.4557C13.4494 14.4557 14.2247 13.6962 14.2089 12.7468C14.2089 11.8133 13.4494 11.038 12.5 11.038C11.5665 11.038 10.7912 11.7975 10.7912 12.7468ZM9.52533 12.7468C9.52533 11.1013 10.8544 9.77215 12.5 9.77215C14.1456 9.77215 15.4905 11.1013 15.4747 12.7468C15.4747 14.3924 14.1456 15.7215 12.5 15.7215C10.8544 15.7215 9.52533 14.3924 9.52533 12.7468Z"/></svg>