<svg width="24" height="24" viewBox="0 0 24 24" xmlns="http://www.w3.org/2000/svg">
<path d="M9.57946 3.3C9.57946 2.6 10.1795 2 10.8795 2C11.5795 2 12.1795 2.6 12.1795 3.3C12.1795 4 11.5795 4.6 10.8795 4.6C10.1795 4.6 9.57946 3.9 9.57946 3.3ZM8.67946 9.4C8.67946 8.3 9.57946 7.4 10.6795 7.4C11.7795 7.4 12.6795 8.3 12.6795 9.4C12.6795 10.5 11.7795 11.4 10.6795 11.4C9.57946 11.4 8.67946 10.5 8.67946 9.4ZM21.1795 20.8C21.1795 21.5 20.6795 22 19.9795 22C19.2795 22 18.7795 21.5 18.7795 20.8V18.4L17.5795 17.2L13.3795 21.5C12.8795 22 12.0795 22 11.6795 21.5C11.1795 21 11.1795 20.2 11.6795 19.8L14.7795 16.6L12.4795 14.3L10.4795 16.3C10.3795 16.4 10.1795 16.4 10.0795 16.3L7.77946 14C7.37946 13.6 7.37946 13.1 7.57946 12.6L6.17946 9.8C4.97946 10.1 3.67946 8.7 3.17946 7.7C2.57946 6.5 2.67946 5 3.87946 4.4C5.07946 3.8 6.27946 4.7 6.87946 5.9C7.37946 7 7.67946 8.8 6.67946 9.5L7.97946 12.1C8.37946 11.9 8.87946 12 9.17946 12.3L10.0795 13.2L16.4795 7C16.8795 6.6 17.6795 6.6 18.1795 7C18.6795 7.5 18.6795 8.2 18.1795 8.7L15.3795 11.5L21.0795 17.6C21.1795 17.6 21.1795 17.5 21.1795 20.8Z"/>
</svg>
