<svg width="24" height="24" viewBox="0 0 24 24" xmlns="http://www.w3.org/2000/svg">
<path d="M22.65 3.75V21.75V22.75H21.65H2.64997V21.75H5.64997V18.75H8.64997V21.75H9.64997V16.75H12.65V21.75H13.65V14.75H16.65V21.75H17.65V12.75H20.65V21.75H21.65V3.75H22.65V3.75ZM14.55 11.45C14.95 11.45 15.25 11.45 15.65 11.35C15.35 10.85 14.55 9.75 13.05 9.15C12.95 9.15 11.15 8.25 10.75 6.65C10.55 5.75 10.75 4.85 11.45 3.95C11.45 3.85 12.25 2.75 13.55 2.55C14.45 2.45 15.25 2.85 16.15 3.75C16.65 4.55 18.15 6.35 19.55 6.45V6.25C19.55 3.45 17.35 1.25 14.55 1.25C11.75 1.25 9.54998 3.55 9.54998 6.25C9.54998 9.25 11.75 11.45 14.55 11.45ZM15.55 4.45C14.85 3.75 14.25 3.45 13.65 3.55C12.75 3.65 12.05 4.55 12.05 4.55C11.55 5.25 11.35 5.95 11.45 6.55C11.75 7.75 13.25 8.55 13.25 8.55C15.15 9.35 16.05 10.75 16.35 11.25C17.95 10.65 19.15 9.25 19.45 7.55C17.55 7.35 15.85 4.75 15.55 4.45ZM7.94998 16.65C8.14998 14.45 9.04998 11.65 10.05 9.65C7.94998 10.55 5.14998 11.45 2.94998 11.55L5.84998 12.95C4.64998 13.75 3.24998 14.55 1.34998 15.25L1.64997 16.15C3.64997 15.45 5.24998 14.55 6.44998 13.65L7.94998 16.65Z"/>
</svg>
