<svg width="24" height="24" viewBox="0 0 24 24" xmlns="http://www.w3.org/2000/svg"><path d="M13.3371 6.27565C13.1099 6.45173 12.9461 6.6975 12.8706 6.97564C12.7534 7.51765 13.1268 7.95961 13.7046 7.9628C13.9915 7.96002 14.2696 7.86324 14.4967 7.68715C14.7239 7.51106 14.8877 7.26529 14.9632 6.98716C15.0804 6.44514 14.707 6.00319 14.1292 6C13.8423 6.00278 13.5642 6.09956 13.3371 6.27565Z"/><path d="M13.1201 15.5085C12.8987 16.5321 13.812 16.4339 14.8456 15.8358C14.8668 15.8239 14.8915 15.8199 14.9154 15.8244C14.9393 15.829 14.9608 15.8418 14.9763 15.8606C14.9918 15.8795 15.0001 15.9032 15 15.9276C14.9999 15.9521 14.9912 15.9757 14.9755 15.9943C14.3869 16.6959 13.6695 17.2771 12.8624 17.7062C11.7382 18.2801 10.4839 18.0083 10.7163 16.9338L11.8798 11.5546C12.1012 10.5311 11.188 10.6293 10.1544 11.2273C10.1332 11.2392 10.1085 11.2432 10.0846 11.2387C10.0607 11.2342 10.0392 11.2214 10.0237 11.2025C10.0083 11.1837 9.99986 11.1599 10 11.1355C10.0001 11.1111 10.0088 11.0875 10.0245 11.0688C10.6131 10.3673 11.3305 9.78609 12.1376 9.357C13.2618 8.78301 14.5161 9.05484 14.2837 10.1293L13.1201 15.5085Z"/></svg>