<svg width="24" height="24" viewBox="0 0 24 24" xmlns="http://www.w3.org/2000/svg"><path d="M16.2934 11.2506V14.3386C16.2934 16.912 14.2347 18.9707 11.6614 18.9707C9.08803 18.9707 7.02934 16.912 7.02934 14.3386V11.2506H16.2934ZM17.3228 10.2212H6V14.3386C6 17.4781 8.52189 20 11.6614 20C14.8009 20 17.3228 17.4781 17.3228 14.3386V10.2212Z"/><path fill-rule="evenodd" clip-rule="evenodd" d="M11.0241 4.06493C13.7004 3.66018 16.0214 5.75565 16.0214 8.36843C16.0214 8.64457 15.7976 8.86843 15.5214 8.86843C15.2453 8.86843 15.0214 8.64457 15.0214 8.36843C15.0214 6.3505 13.2275 4.74115 11.1705 5.05417L11.1622 5.05543C9.52935 5.27608 8.30136 6.79299 8.30136 8.47136V10.4786C8.30136 10.7547 8.0775 10.9786 7.80136 10.9786C7.52522 10.9786 7.30136 10.7547 7.30136 10.4786V8.47136C7.30136 6.34252 8.85064 4.3609 11.0241 4.06493Z"/><path d="M11.6614 15.368C12.2299 15.368 12.6907 14.9071 12.6907 14.3386C12.6907 13.7701 12.2299 13.3093 11.6614 13.3093C11.0929 13.3093 10.632 13.7701 10.632 14.3386C10.632 14.9071 11.0929 15.368 11.6614 15.368Z"/><path d="M11.6614 16.912C11.3526 16.912 11.1467 16.7061 11.1467 16.3973V14.3386H12.1761V16.3973C12.1761 16.6546 11.9702 16.912 11.6614 16.912Z"/></svg>