<svg width="24" height="24" viewBox="0 0 24 24" xmlns="http://www.w3.org/2000/svg"><path fill-rule="evenodd" clip-rule="evenodd" d="M13 5.35616C12.6 5.26027 12.3 5.26027 11.9 5.26027C11.6 5.26027 11.2 5.26027 11 5.35616L10.7 5.45205L10.1 5.64384C7.79995 6.50685 6.69995 8.23288 6.69995 10.726C6.69995 12.4521 6.49995 13.9863 6.19995 15.137H12H17.8C17.5 13.9863 17.3 12.5479 17.3 10.726C17.3 8.23288 16.2 6.50685 13.9 5.64384L13.3 5.45205L13 5.35616ZM9.49995 4.20548C9.49995 2.9589 10.6 2 11.9 2C13.2 2 14.3 2.9589 14.3 4.20548C14.3 4.30137 14.275 4.37329 14.25 4.44521C14.225 4.51712 14.2 4.58904 14.2 4.68493C15.9 5.35616 18.2 6.89041 18.2 10.6301C18.2 13.3151 18.6 14.9452 19.1 16H11.9H4.69995C5.19995 15.0411 5.59995 13.411 5.59995 10.6301C5.59995 6.9863 7.79995 5.35616 9.59995 4.68493C9.49995 4.58904 9.49995 4.39726 9.49995 4.20548ZM10.6 4.20548V4.39726C10.9 4.39726 11.4 4.30137 11.9 4.20548C12.1456 4.24473 12.3576 4.26792 12.5431 4.28819C12.8107 4.31744 13.0228 4.34062 13.2 4.39726V4.20548C13.2 3.53425 12.6 2.9589 11.9 2.9589C11.2 2.9589 10.6 3.53425 10.6 4.20548ZM12 22C10.963 22 10.1481 21.1304 10 20H12H14C13.8519 21.1304 13.037 22 12 22ZM10.4 7.85981C10.4 7.85981 8.79999 8.85981 8.59999 10.3598C8.59999 10.6598 8.29999 10.7598 8.09999 10.7598H7.99999C7.69999 10.7598 7.49999 10.4598 7.59999 10.2598C7.89999 8.25981 9.89999 7.05981 9.89999 7.05981C10.2 6.95981 10.5 6.95981 10.6 7.25981C10.7 7.35981 10.6 7.65981 10.4 7.85981ZM4 17C3.44772 17 3 17.4477 3 18C3 18.5523 3.44772 19 4 19H20C20.5523 19 21 18.5523 21 18C21 17.4477 20.5523 17 20 17H4Z"/></svg>