<svg width="24" height="24" viewBox="0 0 24 24" xmlns="http://www.w3.org/2000/svg"><path d="M3.80357 18H14.125C14.2768 18 14.3527 17.8537 14.4286 17.7805C14.4286 14.8537 12 12.5122 8.96429 12.5122C5.92857 12.5122 3.5 14.8537 3.5 17.7073C3.5 17.8537 3.65179 18 3.80357 18Z"/><path d="M12.1518 9C12.1518 7.39024 10.7857 6 9.04019 6C7.29465 6 5.92858 7.39024 5.92858 9C5.92858 10.6098 7.29465 12.0732 9.04019 12.0732C10.7857 12.0732 12.1518 10.6829 12.1518 9Z"/><path d="M15.4152 18H20.1964C20.3482 18 20.4241 17.8537 20.5 17.7805C20.5 15.5854 18.6786 13.8293 16.4018 13.8293C15.6429 13.8293 14.9598 14.0488 14.3527 14.3415"/><path d="M18.7545 10.9024C18.7545 9.58537 17.692 8.56098 16.3259 8.56098C14.9598 8.56098 13.9732 9.65854 13.9732 10.9024C13.9732 12.1463 15.0357 13.2439 16.4018 13.2439C17.692 13.2439 18.7545 12.2195 18.7545 10.9024Z"/></svg>