<svg width="24" height="24" viewBox="0 0 24 24" fill="none" xmlns="http://www.w3.org/2000/svg">
<path fill-rule="evenodd" clip-rule="evenodd" d="M9.55778 9.32272L4.52959 10.3433L8.03105 14.2904L7.40745 19.5662L12 17.322L16.5925 19.5662L15.969 14.2904L19.4704 10.3433L14.4405 9.32238L12.0076 4.71873L9.55778 9.32272ZM12.5747 3.65172L12.3406 3.20872C12.1892 2.93043 11.8108 2.93043 11.6783 3.20872L8.89656 8.43653L3.31418 9.56956C3.0114 9.62919 2.89787 10.0069 3.10602 10.2454L6.98531 14.6185L6.28514 20.542C6.2473 20.8601 6.55008 21.0986 6.83393 20.9594L12 18.435L17.1661 20.9594C17.431 21.0986 17.7527 20.8601 17.7149 20.542L17.0147 14.6185L20.894 10.2454C21.1021 10.0069 20.9886 9.62919 20.6858 9.56956L15.1034 8.43653L12.5747 3.65172Z" fill="url(#paint0_linear_1_27)"/>
<path d="M10.2759 10.5203L7.17454 11.1498C7.00633 11.1829 6.94326 11.3927 7.0589 11.5252L9.21406 13.9547L8.82508 17.2456C8.80405 17.4223 8.97226 17.5548 9.12996 17.4775L12 16.075L14.87 17.4775C15.0172 17.5548 15.1959 17.4223 15.1749 17.2456L14.7859 13.9547L16.9411 11.5252C17.0567 11.3927 16.9937 11.1829 16.8255 11.1498L13.7241 10.5203L12.1892 7.61595C12.1051 7.46135 11.8949 7.46135 11.8213 7.61595L10.2759 10.5203Z" fill="url(#paint1_linear_1_27)"/>
<defs>
<linearGradient id="paint0_linear_1_27" x1="3" y1="21" x2="7.62278" y2="0.0484328" gradientUnits="userSpaceOnUse">
<stop stop-color="#FC9358"/>
<stop offset="1" stop-color="#FDD368"/>
</linearGradient>
<linearGradient id="paint1_linear_1_27" x1="7" y1="17.5" x2="9.56821" y2="5.86024" gradientUnits="userSpaceOnUse">
<stop stop-color="#FC9358"/>
<stop offset="1" stop-color="#FDD368"/>
</linearGradient>
</defs>
</svg>
