<svg width="24" height="24" viewBox="0 0 24 24" xmlns="http://www.w3.org/2000/svg"><path d="M11.8323 9.75375L11.8574 10.169L11.4377 10.1181C9.91008 9.92323 8.57548 9.26225 7.44232 8.15216L6.88833 7.60135L6.74564 8.0081C6.44346 8.91482 6.63652 9.87238 7.26605 10.5164C7.6018 10.8723 7.52626 10.9232 6.94709 10.7113C6.74564 10.6435 6.56937 10.5927 6.55258 10.6181C6.49383 10.6774 6.69528 11.4486 6.85476 11.7536C7.07299 12.1773 7.51786 12.5925 8.0047 12.8383L8.41599 13.0332L7.92916 13.0417C7.45911 13.0417 7.44232 13.0501 7.49268 13.2281C7.66056 13.7789 8.32366 14.3636 9.06231 14.6178L9.58273 14.7958L9.12946 15.067C8.45796 15.4568 7.66895 15.6771 6.87994 15.694C6.50222 15.7025 6.19165 15.7364 6.19165 15.7618C6.19165 15.8466 7.21569 16.3211 7.81164 16.5075C9.59951 17.0584 11.7231 16.8211 13.3179 15.8805C14.4511 15.211 15.5843 13.8806 16.1131 12.5925C16.3985 11.9061 16.6838 10.652 16.6838 10.0503C16.6838 9.66053 16.709 9.60969 17.1791 9.14362C17.4561 8.87245 17.7163 8.57586 17.7666 8.49112C17.8506 8.33011 17.8422 8.33011 17.4141 8.47417C16.7006 8.72839 16.5999 8.69449 16.9524 8.31316C17.2126 8.04199 17.5232 7.5505 17.5232 7.40644C17.5232 7.38102 17.3973 7.42339 17.2546 7.49966C17.1035 7.5844 16.7678 7.71151 16.516 7.78777L16.0627 7.93183L15.6514 7.65219C15.4248 7.49966 15.1058 7.33018 14.9379 7.27933C14.5099 7.1607 13.8551 7.17764 13.469 7.31323C12.4198 7.69456 11.7567 8.67755 11.8323 9.75375Z"/></svg>