<svg width="24" height="24" viewBox="0 0 24 24" xmlns="http://www.w3.org/2000/svg"><path d="M12.6277 15.554C12.6277 15.554 12.8587 15.5288 12.977 15.4041C13.0854 15.2898 13.0816 15.0741 13.0816 15.0741C13.0816 15.0741 13.0672 14.0669 13.5436 13.9182C14.0132 13.7719 14.616 14.8922 15.2559 15.323C15.7392 15.6487 16.106 15.5774 16.106 15.5774L17.8158 15.554C17.8158 15.554 18.7098 15.5 18.2859 14.8098C18.2509 14.7533 18.0386 14.2992 17.0151 13.3663C15.9426 12.3898 16.0866 12.5478 17.3775 10.8584C18.1639 9.82972 18.4781 9.20167 18.3798 8.93313C18.2866 8.67625 17.7081 8.74447 17.7081 8.74447L15.7836 8.75614C15.7836 8.75614 15.6409 8.73709 15.5351 8.79916C15.4318 8.86 15.3648 9.00195 15.3648 9.00195C15.3648 9.00195 15.0605 9.79777 14.6542 10.475C13.7972 11.9031 13.4547 11.9787 13.3145 11.8902C12.9883 11.6831 13.0697 11.0594 13.0697 10.6163C13.0697 9.23179 13.2838 8.65475 12.6534 8.50542C12.4443 8.45564 12.2903 8.42307 11.755 8.41754C11.0682 8.41078 10.4872 8.42 10.1579 8.57793C9.93883 8.68301 9.7698 8.91776 9.8731 8.93128C10.0002 8.94787 10.2882 9.00748 10.4409 9.21151C10.6381 9.47514 10.6312 10.0663 10.6312 10.0663C10.6312 10.0663 10.7446 11.696 10.3664 11.8982C10.1072 12.0371 9.75164 11.7538 8.98724 10.4578C8.59596 9.79408 8.30046 9.06033 8.30046 9.06033C8.30046 9.06033 8.24349 8.92329 8.14144 8.84955C8.01811 8.76044 7.84595 8.73279 7.84595 8.73279L6.01726 8.74447C6.01726 8.74447 5.74243 8.75184 5.64163 8.86922C5.55211 8.97307 5.63475 9.18877 5.63475 9.18877C5.63475 9.18877 7.06652 12.4771 8.68798 14.1345C10.1749 15.6536 11.8627 15.554 11.8627 15.554H12.6277Z"/></svg>