<svg width="8" height="20" viewBox="0 0 8 20" xmlns="http://www.w3.org/2000/svg"><path d="M4.90332 13.0981L0.445313 12.2827L0.445313 10.5835L7.55469 12.0923L7.55469 13.8696L3.50195 14.8218L7.55469 15.7544L7.55469 17.5269L0.445313 19.0405L0.445313 17.3364L4.90332 16.521L0.445313 15.5444L0.445313 14.0894L4.90332 13.0981Z" fill="white"/><path d="M7.55469 8.08838L7.55469 9.79736L0.445313 9.79736L0.445312 8.08838L7.55469 8.08838Z" fill="white"/><path d="M7.55469 0.959472L7.55469 2.66357L3.13086 5.18311L7.55469 5.18311L7.55469 6.89697L0.445312 6.89697L0.445312 5.18311L4.86914 2.66846L0.445312 2.66846L0.445312 0.959473L7.55469 0.959472Z" fill="white"/></svg>