<svg width="16" height="16" viewBox="0 0 16 16" fill="none" xmlns="http://www.w3.org/2000/svg">
<path d="M12 3.33335V12.6667H3.33335V3.33335H12ZM12.6667 2.66669H2.66669V13.3334H12.6667V2.66669ZM11.3334 4.00002H4.00002V6.00002H11.3334V4.00002ZM6.00002 6.66669H4.00002V8.00002H6.00002V6.66669ZM8.66669 6.66669H6.66669V8.00002H8.66669V6.66669ZM11.3334 6.66669H9.33335V8.00002H11.3334V6.66669ZM6.00002 8.66669H4.00002V10H6.00002V8.66669ZM8.66669 8.66669H6.66669V10H8.66669V8.66669ZM11.3334 8.66669H9.33335V10H11.3334V8.66669ZM6.00002 10.6667H4.00002V12H6.00002V10.6667ZM8.66669 10.6667H6.66669V12H8.66669V10.6667ZM11.3334 10.6667H9.33335V12H11.3334V10.6667Z" fill="url(#paint0_linear_0_12)"/>
<defs>
<linearGradient id="paint0_linear_0_12" x1="2.66669" y1="13.3334" x2="5.57017" y2="0.996517" gradientUnits="userSpaceOnUse">
<stop stop-color="#FC9358"/>
<stop offset="1" stop-color="#FDD368"/>
</linearGradient>
</defs>
</svg>
