<svg width="16" height="16" viewBox="0 0 16 16" fill="none" xmlns="http://www.w3.org/2000/svg">
<path d="M14.1333 7.99998C14.1333 8.39998 13.8666 8.66665 13.4666 8.66665H11.2666C11.0666 8.66665 10.8 8.53331 10.6666 8.33331L9.53331 6.53331L9.26665 8.06665L11.2666 10.0666C11.4 10.2 11.4666 10.3333 11.4666 10.5333V13.3333C11.4666 13.7333 11.2 14 10.8 14C10.4 14 10.1333 13.7333 10.1333 13.3333V10.8L8.66665 9.33331L7.66665 11C7.59998 11.0666 7.53331 11.1333 7.46665 11.2L4.93331 12.7333C4.59998 12.9333 4.19998 12.8 3.99998 12.5333C3.79998 12.2 3.93331 11.8 4.19998 11.6L6.59998 10.1333L7.86665 8.06665L8.19998 6.33331L5.93331 8.66665C5.66665 8.93331 5.26665 8.93331 4.99998 8.66665C4.73331 8.39998 4.73331 7.99998 4.99998 7.73331L7.99998 4.73331C8.19998 4.53331 8.46665 4.46665 8.73331 4.59998L10.1333 5.13331C10.2666 5.19998 10.4 5.26665 10.4666 5.39998L11.6 7.33331H13.4666C13.8666 7.33331 14.1333 7.59998 14.1333 7.99998ZM10.1333 1.33331C9.39998 1.33331 8.79998 1.93331 8.79998 2.66665C8.79998 3.39998 9.39998 3.99998 10.1333 3.99998C10.8666 3.99998 11.4666 3.39998 11.4666 2.66665C11.4666 1.93331 10.8666 1.33331 10.1333 1.33331ZM1.99998 6.66665H4.59998L3.93331 7.33331H1.33331L1.99998 6.66665ZM4.99998 5.99998H2.46665L3.13331 5.33331H5.73331L4.99998 5.99998ZM6.33331 4.66665H3.79998L4.46665 3.99998H7.06665L6.33331 4.66665Z" fill="url(#paint0_linear_0_10)"/>
<defs>
<linearGradient id="paint0_linear_0_10" x1="1.33331" y1="14" x2="4.5556" y2="-0.757914" gradientUnits="userSpaceOnUse">
<stop stop-color="#FC9358"/>
<stop offset="1" stop-color="#FDD368"/>
</linearGradient>
</defs>
</svg>
