<svg width="62" height="24" viewBox="0 0 62 24" fill="none" xmlns="http://www.w3.org/2000/svg">
<path d="M21.5143 9.11314C21.0281 8.63709 20.3167 8.44297 19.4646 8.53624C18.1876 8.65152 17.1479 9.12798 16.2987 10.0614C15.4495 10.9948 15.0206 12.0048 15.0142 13.042C14.9794 13.7809 15.1537 14.5827 15.6168 15.5513C15.7719 15.8578 15.927 16.1643 16.0822 16.4707C16.2396 16.7279 16.3924 17.0837 16.5406 17.5379C16.7264 18.0934 16.7901 18.5422 16.7785 18.7885C16.7577 19.2319 16.5655 19.7136 16.2465 20.1871C15.9276 20.6606 15.4911 20.9289 14.8925 21.0386C14.3808 21.1044 14.0497 20.9348 13.986 20.486C13.8801 20.0345 13.9855 19.5966 14.2222 19.0683C13.4078 19.2629 12.591 19.5066 11.7765 19.7012C11.4437 20.4702 11.369 21.1572 11.4257 21.7537C11.5247 22.3531 11.802 22.7662 12.3374 23.0972C12.8752 23.3789 13.549 23.4718 14.448 23.2827C15.9901 22.9375 17.1681 22.2229 18.0242 21.1417C18.8804 20.0605 19.3562 18.9548 19.4095 17.8218C19.4489 16.9843 19.3169 16.1853 18.9314 15.3698C18.896 15.2193 18.7386 14.9621 18.5458 14.5544C18.3108 14.144 18.1557 13.8375 18.0828 13.5858C17.8547 13.0275 17.7441 12.6745 17.798 12.431C17.8564 12.0889 17.9994 11.7522 18.2669 11.473C18.5343 11.1938 18.8394 11.0158 19.222 10.9911C19.9427 10.9882 20.389 11.4122 20.5563 12.3618C21.1687 11.9566 21.8257 11.5049 22.4382 11.0997C22.3085 10.2514 22.0006 9.58919 21.5143 9.11314Z" fill="url(#paint0_linear_2020_10981)"/>
<path d="M14.5471 9.45438C16.2513 5.6609 16.9569 4.1747 17.515 3.12367C19.7824 2.67699 23.5734 2.27917 26.4116 2.31399C26.7022 1.54218 27.035 0.773084 27.3256 0.00126626C24.8255 -0.011753 23.126 0.0762718 21.7621 0.235361C19.2481 0.517905 17.1144 0.824979 15.2742 1.20039C13.4316 1.62506 11.8403 2.11535 10.4111 2.76432C9.02413 3.41602 7.67247 4.21822 6.39606 5.22291C6.73468 6.13414 7.11557 7.04808 7.4542 7.9593C10.3989 5.72814 12.8418 4.25516 14.9048 3.64707C13.4837 5.92709 12.5882 7.84573 9.38582 14.6554C8.20896 17.1488 7.14904 18.958 6.213 19.9353C5.45294 20.7756 4.71141 21.2219 4.07523 21.2303C3.56583 21.2469 3.07032 20.9678 2.63096 20.396C2.55108 20.292 2.47351 20.1388 2.39595 19.9856C2.36295 19.7858 2.24081 19.6791 2.20319 19.5779C2.08568 19.3726 1.96122 19.3152 1.83445 19.307C1.74994 19.3016 1.61853 19.3919 1.44024 19.5781C1.03908 19.9969 0.635605 20.4649 0.234446 20.8838C0.0984101 21.0726 0.00463183 21.2642 0 21.3627C0.0214141 21.8088 0.376255 22.3752 1.06684 23.0127C1.79968 23.6529 2.54873 23.9482 3.35162 24C6.14987 23.9828 8.96493 20.9033 11.8651 15.1118C12.3763 14.1565 12.8029 13.1959 13.2695 12.2872C13.6538 11.3238 14.0782 10.4123 14.5471 9.45438Z" fill="url(#paint1_linear_2020_10981)"/>
<path d="M28.61 11.4483C29.23 11.7848 29.85 12.1212 30.4277 12.4549C31.2369 11.4695 31.7058 10.5116 31.839 9.48254C31.916 8.74636 31.8147 8.19631 31.4552 7.72844C31.0934 7.30982 30.5956 7.08008 29.9548 7.18698C28.8492 7.2639 27.5044 7.91832 26.0028 9.20495C24.5012 10.4916 23.1994 12.0381 22.0972 13.8446C20.995 15.6511 20.4491 17.3453 20.4196 18.8751C20.3622 20.996 21.2925 21.9454 23.1258 21.7178C23.9802 21.5752 24.7969 21.3314 25.5807 20.8879C25.8858 20.7099 26.6696 20.2664 27.8922 19.5053C28.331 19.1877 28.8543 18.8756 29.4667 18.4704C29.7174 17.6466 30.0103 16.8255 30.2586 16.051C29.8644 16.322 29.1651 16.771 28.1185 17.3952C27.7689 17.6197 27.2456 17.9319 26.5041 18.3781C25.8071 18.7779 25.1593 19.0326 24.5631 19.0929C23.8378 19.1944 23.4714 18.8743 23.4262 18.0314C23.3857 17.09 23.6902 16.0226 24.2998 14.7773C24.9093 13.5319 25.6387 12.4425 26.4902 11.4598C27.3418 10.4771 28.0011 9.97616 28.4729 9.85836C28.8179 9.73238 29.0222 9.89379 29.0459 10.2906C29.0813 10.4411 29.0297 10.6354 28.8937 10.8243C28.8914 10.8736 28.7953 11.1144 28.61 11.4483Z" fill="url(#paint2_linear_2020_10981)"/>
<path d="M41.6341 7.59441C40.7258 7.98053 39.8598 8.36936 38.9516 8.75547C39.0511 10.2442 38.8595 11.6153 38.3744 12.9181C37.8893 14.2209 37.2867 15.3184 36.5712 16.1123C35.8557 16.9061 35.1987 17.3578 34.6447 17.4209C33.9617 17.5251 33.5553 17.153 33.4633 16.4059C33.329 15.6561 33.5466 14.6325 34.1562 13.3872C34.7658 12.1418 35.5843 10.9594 36.6564 9.79328C37.7284 8.62717 38.9134 7.76481 40.2135 7.15692C40.0723 6.5549 39.931 5.95287 39.7898 5.35084C37.2318 6.56933 35.1177 8.26116 33.4054 10.4236C31.6931 12.586 30.7883 14.7017 30.6934 16.7214C30.5799 19.1351 31.6369 20.0927 33.7729 19.7364C35.0545 19.5226 36.3616 18.7669 37.6496 17.5159C38.9799 16.2676 39.9836 14.7512 40.7454 12.9722C41.5941 11.1494 41.8465 9.38688 41.6341 7.59441Z" fill="url(#paint3_linear_2020_10981)"/>
<path d="M60.1155 10.2688C61.3942 9.2148 62.0345 8.21848 61.9986 7.17856C61.9818 6.63396 61.7491 6.17426 61.345 5.75293C60.9387 5.38085 60.3986 5.14837 59.6779 5.1513C58.9595 5.10497 58.1474 5.25023 57.3237 5.64179C56.46 5.98137 55.5847 6.56725 54.6603 7.29818C53.7335 8.07838 52.9734 8.91874 52.2933 9.86307C51.6131 10.8074 51.0996 11.8119 50.7529 12.8765C50.5323 13.06 50.2718 13.1914 50.0513 13.3748C49.8498 14.0536 49.6038 14.7788 49.4023 15.4576C49.7966 15.1866 50.1931 14.8663 50.5873 14.5952C50.5549 15.2849 50.8252 15.8458 51.4382 16.33C52.009 16.8115 52.7204 17.0057 53.5679 17.0109C54.5045 16.9231 55.5325 16.6929 56.6966 16.2739C57.8185 15.8522 58.7713 15.4195 59.5574 14.9267C59.7589 14.248 60.0003 13.6212 60.2017 12.9425C59.5024 13.3915 58.6787 13.783 57.6836 14.2129C56.6886 14.6429 55.8295 14.8839 55.1065 14.9361C54.468 14.9937 54.0078 14.8652 53.7236 14.5999C53.3971 14.3318 53.3311 13.9322 53.4365 13.4943C56.6307 12.2674 58.8368 11.3227 60.1155 10.2688ZM56.262 8.38969C57.2825 7.4179 58.1086 6.97708 58.7401 7.06722C59.0782 7.08902 59.2825 7.25043 59.2663 7.59525C59.2385 8.18638 58.699 8.84333 57.6455 9.61535C56.5919 10.3874 55.334 10.998 53.9963 11.5046C54.5144 10.4016 55.2414 9.36148 56.262 8.38969Z" fill="url(#paint4_linear_2020_10981)"/>
<path d="M51.807 9.38701C52.3627 8.38524 52.9185 7.38347 53.4742 6.38171C53.1147 5.91383 52.5723 5.73062 51.8939 5.73627C50.9173 5.77211 49.9246 6.15277 48.9086 7.02604C47.895 7.85004 46.6846 9.25427 45.1905 11.2825C45.106 11.2771 45.0238 11.2224 44.9393 11.2169C45.7411 9.48988 46.5451 7.71357 47.3445 6.03578C46.68 5.74587 46.0554 5.50794 45.3909 5.21803C43.5813 9.4494 41.7248 13.7766 39.8192 18.2488C40.5775 18.3471 41.3358 18.4454 42.0941 18.5437C42.2793 18.2098 42.4669 17.8266 42.6521 17.4927C43.4892 15.9162 44.765 14.0221 46.5173 11.9116C48.2695 9.80118 49.5905 8.74995 50.5271 8.66213C51.1656 8.60449 51.5789 8.82879 51.807 9.38701Z" fill="url(#paint5_linear_2020_10981)"/>
<path d="M14.5471 9.45438C16.2513 5.6609 16.9569 4.1747 17.515 3.12367C19.7824 2.67699 23.5734 2.27917 26.4116 2.31399C26.7022 1.54218 27.035 0.773084 27.3256 0.00126626C24.8255 -0.011753 23.126 0.0762718 21.7621 0.235361C19.2481 0.517905 17.1144 0.824979 15.2742 1.20039C13.4316 1.62506 11.8403 2.11535 10.4111 2.76432C9.02413 3.41602 7.67247 4.21822 6.39606 5.22291C6.73468 6.13414 7.11557 7.04808 7.4542 7.9593C10.3989 5.72814 12.8418 4.25516 14.9048 3.64707C13.4837 5.92709 12.5882 7.84573 9.38582 14.6554C8.20896 17.1488 7.14904 18.958 6.213 19.9353C5.45294 20.7756 4.71141 21.2219 4.07523 21.2303C3.56583 21.2469 3.07032 20.9678 2.63096 20.396C2.55108 20.292 2.47351 20.1388 2.39595 19.9856C2.36295 19.7858 2.24081 19.6791 2.20319 19.5779C2.08568 19.3726 1.96122 19.3152 1.83445 19.307C1.74994 19.3016 1.61853 19.3919 1.44024 19.5781C1.03908 19.9969 0.635605 20.4649 0.234446 20.8838C0.0984101 21.0726 0.00463183 21.2642 0 21.3627C0.0214141 21.8088 0.376255 22.3752 1.06684 23.0127C1.79968 23.6529 2.54873 23.9482 3.35162 24C6.14987 23.9828 8.96493 20.9033 11.8651 15.1118C12.3763 14.1565 12.8029 13.1959 13.2695 12.2872C13.6538 11.3238 14.0782 10.4123 14.5471 9.45438Z" fill="#4CBB6B"/>
<defs>
<linearGradient id="paint0_linear_2020_10981" x1="9.23872e-07" y1="24" x2="63.1072" y2="3.39018" gradientUnits="userSpaceOnUse">
<stop stop-color="#525E76"/>
<stop offset="1" stop-color="#616F8C"/>
</linearGradient>
<linearGradient id="paint1_linear_2020_10981" x1="9.23872e-07" y1="24" x2="63.1072" y2="3.39018" gradientUnits="userSpaceOnUse">
<stop stop-color="#525E76"/>
<stop offset="1" stop-color="#616F8C"/>
</linearGradient>
<linearGradient id="paint2_linear_2020_10981" x1="9.23872e-07" y1="24" x2="63.1072" y2="3.39018" gradientUnits="userSpaceOnUse">
<stop stop-color="#525E76"/>
<stop offset="1" stop-color="#616F8C"/>
</linearGradient>
<linearGradient id="paint3_linear_2020_10981" x1="9.23872e-07" y1="24" x2="63.1072" y2="3.39018" gradientUnits="userSpaceOnUse">
<stop stop-color="#525E76"/>
<stop offset="1" stop-color="#616F8C"/>
</linearGradient>
<linearGradient id="paint4_linear_2020_10981" x1="9.23872e-07" y1="24" x2="63.1072" y2="3.39018" gradientUnits="userSpaceOnUse">
<stop stop-color="#525E76"/>
<stop offset="1" stop-color="#616F8C"/>
</linearGradient>
<linearGradient id="paint5_linear_2020_10981" x1="9.23872e-07" y1="24" x2="63.1072" y2="3.39018" gradientUnits="userSpaceOnUse">
<stop stop-color="#525E76"/>
<stop offset="1" stop-color="#616F8C"/>
</linearGradient>
</defs>
</svg>
