<svg width="62" height="24" viewBox="0 0 62 24" fill="none" xmlns="http://www.w3.org/2000/svg">
<g clip-path="url(#clip0_3_11)">
<path d="M21.5143 9.11312C21.0281 8.63707 20.3167 8.44294 19.4646 8.53621C18.1876 8.65149 17.1479 9.12796 16.2987 10.0614C15.4495 10.9948 15.0206 12.0048 15.0142 13.042C14.9794 13.7809 15.1537 14.5827 15.6168 15.5513C15.7719 15.8578 15.927 16.1643 16.0822 16.4707C16.2396 16.7279 16.3924 17.0837 16.5406 17.5379C16.7264 18.0934 16.7901 18.5422 16.7785 18.7885C16.7577 19.2319 16.5655 19.7136 16.2465 20.1871C15.9276 20.6606 15.4911 20.9289 14.8925 21.0386C14.3808 21.1044 14.0497 20.9348 13.986 20.486C13.8801 20.0345 13.9855 19.5966 14.2222 19.0683C13.4078 19.2629 12.591 19.5066 11.7765 19.7012C11.4437 20.4702 11.369 21.1572 11.4257 21.7537C11.5247 22.3531 11.802 22.7662 12.3374 23.0972C12.8752 23.3789 13.549 23.4718 14.448 23.2827C15.9901 22.9375 17.1681 22.2229 18.0242 21.1417C18.8804 20.0605 19.3562 18.9548 19.4095 17.8218C19.4489 16.9843 19.3169 16.1853 18.9314 15.3698C18.896 15.2193 18.7386 14.9621 18.5458 14.5544C18.3108 14.144 18.1557 13.8375 18.0828 13.5858C17.8547 13.0275 17.7441 12.6745 17.798 12.431C17.8564 12.0889 17.9994 11.7522 18.2669 11.473C18.5343 11.1938 18.8394 11.0158 19.222 10.9911C19.9427 10.9882 20.389 11.4122 20.5563 12.3618C21.1687 11.9566 21.8257 11.5049 22.4382 11.0997C22.3085 10.2514 22.0006 9.58917 21.5143 9.11312Z" fill="#ABB0BA"/>
<path d="M14.5471 9.45438C16.2513 5.6609 16.9569 4.1747 17.515 3.12367C19.7824 2.67699 23.5734 2.27917 26.4116 2.31399C26.7022 1.54218 27.035 0.773084 27.3256 0.00126626C24.8255 -0.011753 23.126 0.0762718 21.7621 0.235361C19.2481 0.517905 17.1144 0.824979 15.2742 1.20039C13.4316 1.62506 11.8403 2.11535 10.4111 2.76432C9.02413 3.41602 7.67247 4.21822 6.39606 5.22291C6.73468 6.13414 7.11557 7.04808 7.4542 7.9593C10.3989 5.72814 12.8418 4.25516 14.9048 3.64707C13.4837 5.92709 12.5882 7.84573 9.38582 14.6554C8.20896 17.1488 7.14904 18.958 6.213 19.9353C5.45294 20.7756 4.71141 21.2219 4.07523 21.2303C3.56583 21.2469 3.07032 20.9678 2.63096 20.396C2.55108 20.292 2.47351 20.1388 2.39595 19.9856C2.36295 19.7858 2.24081 19.6791 2.20319 19.5779C2.08568 19.3726 1.96122 19.3152 1.83445 19.307C1.74994 19.3016 1.61853 19.3919 1.44024 19.5781C1.03908 19.9969 0.635605 20.4649 0.234446 20.8838C0.0984101 21.0726 0.00463183 21.2642 0 21.3627C0.0214141 21.8088 0.376255 22.3752 1.06684 23.0127C1.79968 23.6529 2.54873 23.9482 3.35162 24C6.14987 23.9828 8.96493 20.9033 11.8651 15.1118C12.3763 14.1565 12.8029 13.1959 13.2695 12.2872C13.6538 11.3238 14.0782 10.4123 14.5471 9.45438Z" fill="#ABB0BA"/>
<path d="M28.6099 11.4483C29.2299 11.7848 29.8499 12.1212 30.4276 12.4549C31.2368 11.4695 31.7057 10.5116 31.8389 9.48253C31.9159 8.74635 31.8146 8.1963 31.4551 7.72843C31.0933 7.30981 30.5955 7.08007 29.9547 7.18697C28.8491 7.26389 27.5043 7.91831 26.0027 9.20494C24.5011 10.4916 23.1993 12.0381 22.0971 13.8446C20.9949 15.6511 20.449 17.3453 20.4195 18.8751C20.3621 20.996 21.2924 21.9454 23.1257 21.7178C23.9801 21.5752 24.7968 21.3314 25.5806 20.8879C25.8857 20.7099 26.6695 20.2664 27.8921 19.5053C28.3309 19.1877 28.8542 18.8756 29.4666 18.4704C29.7173 17.6466 30.0102 16.8255 30.2585 16.051C29.8643 16.322 29.165 16.771 28.1184 17.3952C27.7688 17.6197 27.2455 17.9319 26.504 18.3781C25.807 18.7779 25.1592 19.0326 24.563 19.0929C23.8377 19.1944 23.4713 18.8743 23.4261 18.0314C23.3856 17.09 23.6901 16.0226 24.2997 14.7773C24.9092 13.5319 25.6386 12.4425 26.4901 11.4598C27.3417 10.4771 28.001 9.97615 28.4728 9.85835C28.8178 9.73237 29.0221 9.89378 29.0458 10.2906C29.0812 10.4411 29.0296 10.6354 28.8936 10.8243C28.8913 10.8736 28.7952 11.1144 28.6099 11.4483Z" fill="#ABB0BA"/>
<path d="M41.634 7.5944C40.7257 7.98052 39.8597 8.36935 38.9515 8.75546C39.051 10.2442 38.8594 11.6153 38.3743 12.9181C37.8892 14.2209 37.2866 15.3184 36.5711 16.1123C35.8556 16.9061 35.1986 17.3578 34.6446 17.4209C33.9616 17.5251 33.5552 17.153 33.4632 16.4059C33.3289 15.6561 33.5465 14.6325 34.1561 13.3872C34.7657 12.1418 35.5842 10.9594 36.6563 9.79327C37.7283 8.62716 38.9133 7.7648 40.2134 7.15691C40.0722 6.55489 39.9309 5.95286 39.7897 5.35083C37.2317 6.56932 35.1176 8.26115 33.4053 10.4236C31.693 12.586 30.7882 14.7017 30.6933 16.7214C30.5798 19.1351 31.6368 20.0927 33.7728 19.7364C35.0544 19.5226 36.3615 18.7669 37.6495 17.5159C38.9798 16.2676 39.9835 14.7512 40.7453 12.9722C41.594 11.1494 41.8464 9.38687 41.634 7.5944Z" fill="#ABB0BA"/>
<path d="M60.1155 10.2688C61.3942 9.21481 62.0345 8.21849 61.9986 7.17857C61.9818 6.63397 61.7491 6.17427 61.345 5.75294C60.9387 5.38086 60.3986 5.14838 59.6779 5.15131C58.9595 5.10498 58.1474 5.25024 57.3237 5.6418C56.46 5.98138 55.5847 6.56726 54.6603 7.29819C53.7335 8.07839 52.9734 8.91875 52.2933 9.86308C51.6131 10.8074 51.0996 11.8119 50.7529 12.8765C50.5323 13.06 50.2718 13.1914 50.0513 13.3748C49.8498 14.0536 49.6038 14.7788 49.4023 15.4576C49.7966 15.1866 50.1931 14.8663 50.5873 14.5952C50.5549 15.2849 50.8252 15.8458 51.4382 16.33C52.009 16.8115 52.7204 17.0057 53.5679 17.0109C54.5045 16.9231 55.5325 16.6929 56.6966 16.2739C57.8185 15.8522 58.7713 15.4195 59.5574 14.9267C59.7589 14.248 60.0003 13.6212 60.2017 12.9425C59.5024 13.3915 58.6787 13.783 57.6836 14.2129C56.6886 14.6429 55.8295 14.8839 55.1065 14.9361C54.468 14.9937 54.0078 14.8652 53.7236 14.5999C53.3971 14.3318 53.3311 13.9322 53.4365 13.4943C56.6307 12.2674 58.8368 11.3227 60.1155 10.2688ZM56.262 8.3897C57.2825 7.41791 58.1086 6.97709 58.7401 7.06723C59.0782 7.08903 59.2825 7.25044 59.2663 7.59526C59.2385 8.18639 58.699 8.84334 57.6455 9.61536C56.5919 10.3874 55.334 10.998 53.9963 11.5046C54.5144 10.4016 55.2414 9.36149 56.262 8.3897Z" fill="#ABB0BA"/>
<path d="M51.8069 9.387C52.3626 8.38523 52.9184 7.38346 53.4741 6.3817C53.1146 5.91382 52.5722 5.73061 51.8938 5.73626C50.9172 5.7721 49.9245 6.15276 48.9085 7.02603C47.8949 7.85003 46.6845 9.25426 45.1904 11.2825C45.1059 11.2771 45.0237 11.2224 44.9392 11.2169C45.741 9.48987 46.545 7.71356 47.3444 6.03577C46.6799 5.74586 46.0553 5.50793 45.3908 5.21802C43.5812 9.44939 41.7247 13.7766 39.8191 18.2488C40.5774 18.3471 41.3357 18.4454 42.094 18.5437C42.2792 18.2098 42.4668 17.8266 42.652 17.4927C43.4891 15.9162 44.7649 14.0221 46.5172 11.9116C48.2694 9.80117 49.5904 8.74994 50.527 8.66212C51.1655 8.60448 51.5788 8.82878 51.8069 9.387Z" fill="#ABB0BA"/>
<path d="M14.5471 9.45438C16.2513 5.6609 16.9569 4.1747 17.515 3.12367C19.7824 2.67699 23.5734 2.27917 26.4116 2.31399C26.7022 1.54218 27.035 0.773084 27.3256 0.00126626C24.8255 -0.011753 23.126 0.0762718 21.7621 0.235361C19.2481 0.517905 17.1144 0.824979 15.2742 1.20039C13.4316 1.62506 11.8403 2.11535 10.4111 2.76432C9.02413 3.41602 7.67247 4.21822 6.39606 5.22291C6.73468 6.13414 7.11557 7.04808 7.4542 7.9593C10.3989 5.72814 12.8418 4.25516 14.9048 3.64707C13.4837 5.92709 12.5882 7.84573 9.38582 14.6554C8.20896 17.1488 7.14904 18.958 6.213 19.9353C5.45294 20.7756 4.71141 21.2219 4.07523 21.2303C3.56583 21.2469 3.07032 20.9678 2.63096 20.396C2.55108 20.292 2.47351 20.1388 2.39595 19.9856C2.36295 19.7858 2.24081 19.6791 2.20319 19.5779C2.08568 19.3726 1.96122 19.3152 1.83445 19.307C1.74994 19.3016 1.61853 19.3919 1.44024 19.5781C1.03908 19.9969 0.635605 20.4649 0.234446 20.8838C0.0984101 21.0726 0.00463183 21.2642 0 21.3627C0.0214141 21.8088 0.376255 22.3752 1.06684 23.0127C1.79968 23.6529 2.54873 23.9482 3.35162 24C6.14987 23.9828 8.96493 20.9033 11.8651 15.1118C12.3763 14.1565 12.8029 13.1959 13.2695 12.2872C13.6538 11.3238 14.0782 10.4123 14.5471 9.45438Z" fill="#ABB0BA"/>
</g>
<defs>
<clipPath id="clip0_3_11">
<rect width="62" height="24" fill="white"/>
</clipPath>
</defs>
</svg>
