<svg width="256" height="140" viewBox="0 0 256 140" fill="none" xmlns="http://www.w3.org/2000/svg">
<path d="M121.9 122.3C155.037 122.3 181.9 119.39 181.9 115.8C181.9 112.21 155.037 109.3 121.9 109.3C88.7628 109.3 61.8999 112.21 61.8999 115.8C61.8999 119.39 88.7628 122.3 121.9 122.3Z" fill="#E9EEF4"/>
<path d="M162.2 8.8C161.4 9.3 160.4 9.7 159.3 10C158.2 10.3 157.1 10.4 155.9 10.4H155.3H155.2C153.4 10.5 151.7 10.2 150.4 9.5L138.8 3.8C137.2 3 135.3 2.7 133.4 2.7C130.6 2.7 127.8 3.4 125.7 4.9L123.6 6.4L122.8 6C121.7 5.5 120.1 4.6 118.2 3.7C116.2 2.7 113.8 2.3 111.2 2.3C108.9 2.3 106.7 2.7 104.8 3.5L96.9 6.9C96.1 7.2 95.2 7.5 94.2 7.7C93.2 7.9 92.1 8 91 7.5H90.9H90.8C89.7 8 88.6 7.9 87.6 7.7C86.6 7.5 85.7 7.3 84.9 6.9L76.9 3.5C75.7 3 74.3 2.7 72.9 2.7C71.3 2.7 69.8 3 68.3 3.6C66.8 4.2 65.5 5.1 64.5 6.2L50 22.4C48.7 23.9 48 25.8 48 27.6V27.7C48 29.9 49 32.1 50.8 33.7L65.5 46.3L58 54.1C56.5 55.7 55.9 59.7 55.9 59.7V59.9C55.9 62 56.7 64.2 58.4 65.8L59.7 67C60.7 68 62 68.6 63.3 68.9L65.2 69.4L64.3 71.1C63.6 72.3 63.3 73.6 63.3 74.9V75C63.3 77.1 64.2 79.3 65.8 80.8L67.1 82C68.7 83.5 70.7 84.2 72.7 84.2C73.8 84.2 74.9 84 75.9 83.6L77.5 82.9L77.9 84.6C78.3 86.1 79 87.4 80.1 88.5L81.4 89.7C83 91.2 85 91.9 87 91.9C88.6 91.9 90.2 91.4 91.5 90.5L93.2 89.4L93.8 91.3C94.2 92.6 94.9 93.8 95.9 94.8L97.1 96L97.2 96.1C98.8 97.6 100.8 98.3 102.8 98.3C105 98.3 107.1 97.5 108.7 95.8L115.4 88.8L124.2 97C125.8 98.4 127.8 99.2 129.7 99.2C131.9 99.2 134.1 98.3 135.7 96.6L136.9 95.3C137.8 94.3 138.4 93.2 138.7 92L139.4 89.6L144.2 94C145.8 95.4 147.8 96.2 149.7 96.2C151.9 96.2 154.1 95.3 155.7 93.6L156.9 92.3C158.1 91 158.8 89.5 159 87.8L159.2 86.1L160.8 86.5C161.5 86.7 162.2 86.8 162.8 86.8C165 86.8 167.2 85.9 168.8 84.2L170 82.9C171.4 81.3 172.2 79.4 172.2 77.4C172.2 76.8 172.1 76.2 172 75.6L171.6 74L173.2 73.8C175 73.6 176.8 72.7 178.1 71.3L179.3 70C180.7 68.4 181.5 66.4 181.5 64.5C181.5 62.3 180.6 60.2 178.9 58.6L175.5 55.5L197.3 31.3C198.9 29.5 199.6 27.2 199.7 24.9C199.7 22.8 199.1 20.8 197.8 19.1L185.9 3.4C184.2 1.2 181.5 0 178.8 0C177.2 0 175.6 0.4 174.2 1.3L162.2 8.8ZM65.1 67.3C63.7 67.3 62.2 66.8 61.1 65.7L59.8 64.4C58.6 63.2 58 61.7 58 60.1V60.2V60.1C58 58.6 58.5 57.2 59.6 56L72.7 42.1C73.8 40.9 75.4 40.3 76.9 40.3C78.3 40.3 79.8 40.8 80.9 41.9L82.3 43.3L82.4 43.4C82.4 43.4 82.6 43.7 82.9 44.2C83.2 44.7 83.5 45.3 83.7 45.9C83.9 46.4 84 46.8 84 47.4C84 48.6 83.6 49.8 83 50.8L82.8 51L68.6 66.1L68.5 66.2C67.4 67 66.3 67.3 65.1 67.3ZM76.9 79.5C75.8 80.7 74.2 81.3 72.7 81.3C71.3 81.3 69.8 80.8 68.7 79.7L67.5 78.6L67.4 78.5C66.2 77.4 65.6 75.8 65.6 74.3C65.6 72.9 66.1 71.4 67.2 70.3C67.2 70.3 68 69.5 69.3 68.1C70.6 66.8 72.3 65 74.1 63.1C77.8 59.3 81.9 54.9 83.8 53C84.3 52.5 84.6 52.1 84.7 52L84.8 51.9C85.9 50.8 87.4 50.3 88.8 50.3C90.2 50.3 91.7 50.8 92.8 51.9L94.1 53.1C95.3 54.2 95.9 55.8 95.9 57.3C95.9 58.7 95.4 60.2 94.3 61.3L94.4 61.2L94.3 61.3L76.9 79.5ZM91.6 87.5C90.5 88.7 88.9 89.3 87.4 89.3C85.9 89.3 84.5 88.8 83.4 87.7L82 86.5C80.8 85.4 80.2 83.8 80.2 82.3C80.2 81 80.7 79.7 81.5 78.6V78.5L93.8 65.7C94.9 64.7 96.3 64.2 97.7 64.2C99.2 64.2 100.6 64.7 101.7 65.8L103 67C104.2 68.1 104.8 69.7 104.8 71.2C104.8 72.7 104.3 74.1 103.2 75.2L91.6 87.5ZM115.9 82.5C115.9 84 115.4 85.5 114.3 86.6L107.1 94.5C106 95.7 104.5 96.3 102.9 96.3C101.5 96.3 100 95.8 98.9 94.7L97.6 93.4C96.4 92.2 95.8 90.7 95.8 89.1C95.8 87.6 96.3 86.1 97.4 85L104.6 77.1C105.7 75.9 107.2 75.3 108.8 75.3C110.2 75.3 111.7 75.8 112.8 76.9L114.1 78.2C115.3 79.4 115.9 81 115.9 82.5ZM177.1 59.2C178.3 60.3 179 61.9 179 63.4V64.2C179 65.6 178.5 67.1 177.5 68.2L176.4 69.4L176.3 69.5C175.2 70.7 173.7 71.4 172.1 71.4C170.7 71.4 169.3 70.9 168.2 69.8L149.3 51.7L147.8 53.3L168.1 72.8C169.3 73.9 169.9 75.5 169.9 77.1V77.5C169.9 78.9 169.4 80.3 168.3 81.3L167.1 82.6C166 83.8 164.4 84.4 162.8 84.4C161.4 84.4 159.9 83.9 158.8 82.9L139.4 65.3L137.9 66.9L155 82.3C156.2 83.4 156.8 84.9 156.8 86.4C156.8 87.8 156.3 89.2 155.2 90.2L154 91.5C152.9 92.7 151.3 93.3 149.7 93.3C148.3 93.3 146.8 92.8 145.7 91.8L128.6 76.5L127.1 78.1L135.2 85.4C136.3 86.5 136.9 87.9 136.9 89.3V90.1C136.9 91.5 136.4 93 135.3 94.1L134.1 95.4C133 96.6 131.4 97.3 129.8 97.3C128.4 97.3 126.9 96.8 125.8 95.7L117 87.4L117.5 86.4C118.1 85.2 118.4 83.9 118.4 82.7C118.4 80.6 117.6 78.4 115.9 76.8L114.6 75.5C113 74 111 73.2 109 73.2H108.9C108.8 73.2 108.7 73.2 108.5 73.2L107 73.5L107.1 71.8C107.1 71.5 107 70.9 106.8 70.3C106.6 69.7 106.3 69 105.9 68.3C105.3 67.1 104.7 66.1 104.5 65.8L103.3 64.7C102.1 63.6 100.7 62.9 99.2 62.6L97.5 62.3L98.1 60.6C98.4 59.7 98.6 58.8 98.6 57.9C98.6 55.7 97.8 53.6 96.1 52L94.8 50.7C93.2 49.2 91.2 48.4 89.2 48.4C89.1 48.4 88.9 48.4 88.5 48.5H87V46.9C86.9 44.8 86.1 42.8 84.5 41.2L84 40.8L83.2 40C81.6 38.5 79.6 37.7 77.6 37.7C75.5 37.7 73.3 38.6 71.7 40.2L67.6 44.5L53 31.8L52.9 31.7C51.6 30.6 50.9 28.9 50.9 27.3V27.1C50.9 25.8 51.4 24.4 52.3 23.4L66.7 7.4C67.5 6.6 68.5 5.9 69.7 5.4C70.9 4.9 72.2 4.7 73.4 4.7C74.5 4.7 75.5 4.9 76.5 5.3L84.4 8.6C86.4 9.4 88.8 9.8 91.2 9.8C93.7 9.8 96.1 9.4 98 8.6L106 5.3C106.7 5 107.6 4.7 108.5 4.6C109.4 4.4 110.4 4.3 111.4 4.3H111.5H111.6C112.7 4.3 113.8 4.4 114.8 4.6C115.8 4.8 116.7 5.1 117.4 5.5C118.1 5.9 118.9 6.2 119.5 6.5L121.7 7.6L111.6 14.6C109.4 16.1 108.3 18.5 108.3 20.9V21C108.3 22.6 108.8 24.2 109.9 25.6L111 27.1C112.7 29.3 115.4 30.5 118.1 30.5C119.6 30.5 121.2 30.1 122.5 29.3L127.3 26.4C128.6 25.6 130.3 25.2 132 25.2H132.1C133.1 25.2 134.2 25.4 135.1 25.6C136 25.9 136.9 26.3 137.6 26.8L150.9 36.3C153.9 38.5 158.8 42.4 161.5 44.9L177.1 59.2ZM174.6 3.8C175.6 3.2 176.8 2.9 178 2.9C179 2.9 180 3.1 181 3.6C181.9 4 182.7 4.6 183.4 5.5L195.7 21C196.7 22.2 197.1 23.8 197.1 25.4V25.5C197.1 27.3 196.5 29 195.3 30.2L173.5 54.3L163 44.6C160.1 41.9 155.3 38 152.1 35.7L138.6 26C136.6 24.6 134.2 24 131.6 24C129.5 24 127.4 24.5 125.6 25.5L120.8 28.4C119.8 29 118.6 29.3 117.4 29.3C116.4 29.3 115.3 29.1 114.4 28.6C113.5 28.2 112.6 27.5 112 26.7L111 25.4L110.9 25.3C110.1 24.3 109.8 23.1 109.8 21.9C109.8 20.1 110.6 18.4 112.2 17.2H112.1L126.7 7.1C127.5 6.5 128.5 6.1 129.6 5.8C130.7 5.5 131.9 5.3 133.1 5.3H133.2H133.3C134.9 5.3 136.5 5.6 137.7 6.2L149.4 11.9C151.1 12.7 153.2 13.1 155.3 13.1C158 13.1 160.7 12.5 162.8 11.2L174.6 3.8Z" fill="#4CBB6B"/>
<path d="M183.4 133.3C196.931 133.3 207.9 131.285 207.9 128.8C207.9 126.315 196.931 124.3 183.4 124.3C169.869 124.3 158.9 126.315 158.9 128.8C158.9 131.285 169.869 133.3 183.4 133.3Z" fill="#E9EEF4"/>
<path d="M151.9 52.7998H153.9" stroke="#F7CD9D" stroke-miterlimit="10"/>
<path opacity="0.2" d="M184.9 128.3C197.05 128.3 206.9 118.45 206.9 106.3C206.9 94.1495 197.05 84.2998 184.9 84.2998C172.75 84.2998 162.9 94.1495 162.9 106.3C162.9 118.45 172.75 128.3 184.9 128.3Z" fill="#4CBB6B"/>
<path d="M172.3 106.6L179.1 113.5L195.8 96.7998" stroke="#4CBB6B" stroke-width="5" stroke-miterlimit="10"/>
</svg>
