<svg width="256" height="140" viewBox="0 0 256 140" fill="none" xmlns="http://www.w3.org/2000/svg">
<g clip-path="url(#clip0_652_15815)">
<path d="M200.073 29.2291C201.025 29.2291 201.805 30.0098 201.805 30.964V121.181C201.805 122.135 201.025 122.916 200.073 122.916H58.0914C57.1391 122.916 56.3599 122.135 56.3599 121.181V30.964C56.3599 30.0098 57.1391 29.2291 58.0914 29.2291H200.073ZM200.073 27.4941H58.0914C56.1868 27.4941 54.6284 29.0556 54.6284 30.964V121.181C54.6284 123.089 56.1868 124.651 58.0914 124.651H200.073C201.978 124.651 203.536 123.089 203.536 121.181V30.964C203.536 29.0556 201.978 27.4941 200.073 27.4941Z" fill="#4CBB6B"/>
<path d="M194.878 36.1685H63.2856V45.7106H194.878V36.1685Z" fill="#E5E9F1"/>
<path d="M194.013 36.1687V115.108H64.1514V36.1687H194.013ZM194.878 35.3013H63.2856V115.976H194.878V35.3013Z" fill="#4CBB6B"/>
<path d="M97.9157 53.5181H67.6147V61.3253H97.9157V53.5181Z" fill="#E5E9F1"/>
<path d="M97.05 66.5303H67.6147V68.2652H97.05V66.5303Z" fill="#E5E9F1"/>
<path d="M97.05 70.8677H67.6147V72.6026H97.05V70.8677Z" fill="#E5E9F1"/>
<path d="M97.05 75.2046H67.6147V76.9395H97.05V75.2046Z" fill="#E5E9F1"/>
<path d="M97.0497 85.6143H78.8691V87.3492H97.0497V85.6143Z" fill="#E5E9F1"/>
<path d="M97.0497 89.9517H78.8691V91.6866H97.0497V89.9517Z" fill="#E5E9F1"/>
<path d="M71.9435 91.6869C74.3341 91.6869 76.2722 89.745 76.2722 87.3496C76.2722 84.9541 74.3341 83.0122 71.9435 83.0122C69.5528 83.0122 67.6147 84.9541 67.6147 87.3496C67.6147 89.745 69.5528 91.6869 71.9435 91.6869Z" fill="#E5E9F1"/>
<path d="M97.0497 100.361H78.8691V102.096H97.0497V100.361Z" fill="#E5E9F1"/>
<path d="M97.0497 104.699H78.8691V106.434H97.0497V104.699Z" fill="#E5E9F1"/>
<path d="M71.9435 106.433C74.3341 106.433 76.2722 104.492 76.2722 102.096C76.2722 99.7007 74.3341 97.7588 71.9435 97.7588C69.5528 97.7588 67.6147 99.7007 67.6147 102.096C67.6147 104.492 69.5528 106.433 71.9435 106.433Z" fill="#E5E9F1"/>
<path d="M104.841 51.7832H103.976V109.036H104.841V51.7832Z" fill="#E5E9F1"/>
<path d="M153.323 56.1206H123.888V57.8555H153.323V56.1206Z" fill="#E5E9F1"/>
<path d="M187.953 59.5903H123.888V61.3253H187.953V59.5903Z" fill="#E5E9F1"/>
<path d="M119.559 53.5181H111.768V61.3253H119.559V53.5181Z" fill="#E5E9F1"/>
<path d="M153.323 70.8677H123.888V72.6026H153.323V70.8677Z" fill="#E5E9F1"/>
<path d="M187.953 74.3374H123.888V76.0723H187.953V74.3374Z" fill="#E5E9F1"/>
<path d="M119.559 68.2651H111.768V76.0724H119.559V68.2651Z" fill="#E5E9F1"/>
<path d="M153.323 86.4819H123.888V88.2169H153.323V86.4819Z" fill="#E5E9F1"/>
<path d="M187.953 89.9517H123.888V91.6866H187.953V89.9517Z" fill="#E5E9F1"/>
<path d="M119.559 83.8794H111.768V91.6866H119.559V83.8794Z" fill="#E5E9F1"/>
<path d="M153.323 101.229H123.888V102.964H153.323V101.229Z" fill="#E5E9F1"/>
<path d="M187.953 104.699H123.888V106.434H187.953V104.699Z" fill="#E5E9F1"/>
<path d="M119.559 98.6265H111.768V106.434H119.559V98.6265Z" fill="#E5E9F1"/>
<path d="M127.351 142C154.605 142 176.698 139.864 176.698 137.229C176.698 134.594 154.605 132.458 127.351 132.458C100.097 132.458 78.0034 134.594 78.0034 137.229C78.0034 139.864 100.097 142 127.351 142Z" fill="#E9EEF4"/>
<path d="M163.799 43.9758H93.5004C92.1152 43.9758 90.9897 42.8481 90.9897 41.4602V41.2867C90.9897 39.8987 92.1152 38.771 93.5004 38.771H163.799C165.184 38.771 166.309 39.8987 166.309 41.2867V41.4602C166.309 42.8481 165.184 43.9758 163.799 43.9758Z" fill="white"/>
<path d="M68.9134 42.2411C69.6306 42.2411 70.212 41.6585 70.212 40.9399C70.212 40.2212 69.6306 39.6387 68.9134 39.6387C68.1962 39.6387 67.6147 40.2212 67.6147 40.9399C67.6147 41.6585 68.1962 42.2411 68.9134 42.2411Z" fill="#ABB0BA"/>
<path d="M73.242 42.2411C73.9592 42.2411 74.5406 41.6585 74.5406 40.9399C74.5406 40.2212 73.9592 39.6387 73.242 39.6387C72.5248 39.6387 71.9434 40.2212 71.9434 40.9399C71.9434 41.6585 72.5248 42.2411 73.242 42.2411Z" fill="#ABB0BA"/>
<path d="M77.5706 42.2411C78.2878 42.2411 78.8692 41.6585 78.8692 40.9399C78.8692 40.2212 78.2878 39.6387 77.5706 39.6387C76.8534 39.6387 76.272 40.2212 76.272 40.9399C76.272 41.6585 76.8534 42.2411 77.5706 42.2411Z" fill="#ABB0BA"/>
<path d="M109.517 135.928C109.17 135.928 108.911 135.754 108.737 135.407C108.564 135.147 108.651 134.8 108.824 134.54L116.875 123.783H138.779L146.83 134.54C147.003 134.8 147.09 135.147 146.917 135.407C146.744 135.668 146.484 135.928 146.138 135.928H109.517Z" fill="white"/>
<path d="M138.346 124.65L146.138 135.06H109.43L117.222 124.65H138.346ZM139.212 122.916H116.443L108.131 134.019C107.266 135.147 108.045 136.795 109.517 136.795H146.224C147.609 136.795 148.475 135.147 147.609 134.019L139.212 122.916Z" fill="#4CBB6B"/>
<path d="M128.649 120.313C129.366 120.313 129.948 119.731 129.948 119.012C129.948 118.294 129.366 117.711 128.649 117.711C127.932 117.711 127.351 118.294 127.351 119.012C127.351 119.731 127.932 120.313 128.649 120.313Z" fill="#4CBB6B"/>
<path d="M183.624 14.4819H159.383V16.2169H183.624V14.4819Z" fill="#4CBB6B"/>
<path d="M187.953 17.9517H163.712V19.6866H187.953V17.9517Z" fill="#4CBB6B"/>
<path d="M180.161 21.4219H168.906V23.1568H180.161V21.4219Z" fill="#4CBB6B"/>
<path d="M73.6747 16.2168H57.2256V17.9517H73.6747V16.2168Z" fill="#4CBB6B"/>
<path d="M78.8692 19.6865H54.6284V21.4215H78.8692V19.6865Z" fill="#4CBB6B"/>
<path d="M69.3462 23.1567H45.9712V24.8917H69.3462V23.1567Z" fill="#4CBB6B"/>
<path d="M214.791 22.2891H213.059V30.9638H214.791V22.2891Z" fill="#4CBB6B"/>
<path d="M209.598 25.7607V27.4956H218.256V25.7607H209.598Z" fill="#4CBB6B"/>
<path d="M32.9849 30.0962H31.2534V38.7709H32.9849V30.0962Z" fill="#4CBB6B"/>
<path d="M27.7925 33.5678V35.3027H36.4499V33.5678H27.7925Z" fill="#E5E9F1"/>
<path d="M121.291 2H120.425V6.33735H121.291V2Z" fill="#4CBB6B"/>
<path d="M118.695 3.73702V4.60449H123.024V3.73702H118.695Z" fill="#4CBB6B"/>
<path d="M119.213 13.0073C118.087 13.0073 117.135 13.441 116.442 14.2218C115.317 11.9663 112.893 10.4049 110.122 10.7519C108.564 10.9254 107.179 11.7928 106.227 13.0073C104.755 14.829 104.582 16.4772 104.841 17.9519H115.577H116.962H122.935C123.282 16.9109 123.282 15.6097 121.81 14.135C121.117 13.441 120.165 12.9206 119.213 13.0073Z" fill="#4CBB6B"/>
<path d="M7.79179 52.7371C9.60985 52.6504 11.2548 53.3443 12.4668 54.5588C14.0251 51.3492 17.315 49.0938 21.1242 49.0938C26.4052 49.0938 30.734 53.4311 30.734 58.7227C30.734 59.3299 30.6474 59.9371 30.5608 60.4576H13.852H11.6876H2.42419C1.90474 58.7227 1.90474 56.8142 4.32882 54.3853C5.19456 53.4311 6.49318 52.7371 7.79179 52.7371Z" fill="#4CBB6B"/>
<path d="M25.6261 91.2533C25.6261 93.1617 24.0677 94.7231 22.1631 94.7231H3.9825C2.07787 94.7231 0.519531 93.1617 0.519531 91.2533V81.7111C0.519531 79.8027 2.07787 78.2412 3.9825 78.2412H22.1631C24.0677 78.2412 25.6261 79.8027 25.6261 81.7111V91.2533Z" stroke="#4CBB6B" stroke-miterlimit="10"/>
<path d="M0.259766 80.8438L12.813 88.998L25.3663 80.8438" stroke="#4CBB6B" stroke-miterlimit="10"/>
<path d="M18.0073 87.3496L24.1541 93.5954" stroke="#4CBB6B" stroke-miterlimit="10"/>
<path d="M7.6186 87.3496L1.38525 93.5954" stroke="#4CBB6B" stroke-miterlimit="10"/>
<path d="M244.659 57.4217C244.659 59.3302 243.1 60.8916 241.196 60.8916H223.015C221.111 60.8916 219.552 59.3302 219.552 57.4217V47.8795C219.552 45.9711 221.111 44.4097 223.015 44.4097H241.196C243.1 44.4097 244.659 45.9711 244.659 47.8795V57.4217Z" stroke="#4CBB6B" stroke-miterlimit="10"/>
<path d="M219.292 47.0122L231.846 55.2532L244.399 47.0122" stroke="#4CBB6B" stroke-miterlimit="10"/>
<path d="M250.459 76.1588C248.468 75.8119 246.65 76.3323 245.265 77.3733C243.36 74.5107 240.07 72.689 236.434 72.689C231.153 72.689 226.738 76.5926 225.872 81.6239C225.179 80.4095 223.708 79.6287 222.149 79.9757C220.937 80.236 219.985 81.1902 219.639 82.3179C219.379 83.1854 219.466 83.9661 219.725 84.6601H225.872C225.872 84.8336 226.132 84.8336 226.218 84.6601H242.927H247.083H255.74C256.086 83.6191 256.173 82.4914 255.913 81.2769C255.307 78.7613 253.143 76.5926 250.459 76.1588Z" fill="#4CBB6B"/>
<path d="M119.559 128.554H136.874" stroke="#4CBB6B" stroke-miterlimit="10"/>
<path d="M123.888 126.819H132.545" stroke="#4CBB6B" stroke-miterlimit="10"/>
<path d="M237.04 53.605L243.187 59.764" stroke="#4CBB6B" stroke-miterlimit="10"/>
<path d="M226.651 53.605L220.418 59.764" stroke="#4CBB6B" stroke-miterlimit="10"/>
</g>
<defs>
<clipPath id="clip0_652_15815">
<rect width="256" height="140" fill="white"/>
</clipPath>
</defs>
</svg>
