<svg width="160" height="100" viewBox="0 0 160 100" fill="none" xmlns="http://www.w3.org/2000/svg">
<g id="MasterCard" clip-path="url(#clip0_485_6785)">
<g id="MasterCard_2">
<rect id="Rectangle" width="160" height="100" fill="#0F3560"/>
<g id="Group">
<g id="Group_2">
<path id="Vector" d="M94.5531 74.572H66.5557V25.4351H94.5531V74.572Z" fill="#FF5F00"/>
<g id="Group_3">
<path id="Vector_2" d="M68.3492 50C68.3492 40.0323 73.1281 31.1534 80.5702 25.4315C75.128 21.2474 68.2597 18.75 60.7952 18.75C43.1239 18.75 28.7993 32.7409 28.7993 50C28.7993 67.2591 43.1239 81.25 60.7952 81.25C68.2597 81.25 75.128 78.7526 80.5702 74.5685C73.1281 68.8466 68.3492 59.9677 68.3492 50Z" fill="#EB001B"/>
</g>
<g id="Group_4">
<path id="Vector_3" d="M132.313 50C132.313 67.2591 117.988 81.25 100.317 81.25C92.8523 81.25 85.984 78.7526 80.5398 74.5685C87.9839 68.8466 92.7628 59.9677 92.7628 50C92.7628 40.0323 87.9839 31.1534 80.5398 25.4315C85.984 21.2474 92.8523 18.75 100.317 18.75C117.988 18.75 132.313 32.7409 132.313 50Z" fill="#F79E1B"/>
</g>
</g>
<g id="Group_5">
<path id="Vector_4" d="M52.8759 50.1976C52.8759 48.8327 53.7919 47.7113 55.2886 47.7113C56.7188 47.7113 57.6842 48.7843 57.6842 50.1976C57.6842 51.611 56.7188 52.684 55.2886 52.684C53.7919 52.684 52.8759 51.5626 52.8759 50.1976ZM59.3143 50.1976V46.3147H57.5852V47.2575C57.0368 46.5583 56.2046 46.1194 55.0734 46.1194C52.8435 46.1194 51.0954 47.8266 51.0954 50.1976C51.0954 52.5706 52.8435 54.2759 55.0734 54.2759C56.2046 54.2759 57.0368 53.837 57.5852 53.1378V54.0806H59.3143V50.1976ZM117.746 50.1976C117.746 48.8327 118.662 47.7113 120.158 47.7113C121.59 47.7113 122.554 48.7843 122.554 50.1976C122.554 51.611 121.59 52.684 120.158 52.684C118.662 52.684 117.746 51.5626 117.746 50.1976ZM124.186 50.1976V43.196H122.455V47.2575C121.907 46.5583 121.074 46.1194 119.943 46.1194C117.713 46.1194 115.965 47.8266 115.965 50.1976C115.965 52.5706 117.713 54.2759 119.943 54.2759C121.074 54.2759 121.907 53.837 122.455 53.1378V54.0806H124.186V50.1976ZM80.7776 47.6313C81.8916 47.6313 82.6076 48.3138 82.7904 49.5151H78.6638C78.8486 48.3938 79.5455 47.6313 80.7776 47.6313ZM80.8119 46.1194C78.481 46.1194 76.8509 47.7764 76.8509 50.1976C76.8509 52.6673 78.5477 54.2759 80.928 54.2759C82.1258 54.2759 83.2227 53.9839 84.1882 53.188L83.3408 51.9364C82.6743 52.4553 81.825 52.7491 81.0271 52.7491C79.913 52.7491 78.8981 52.2451 78.6486 50.8467H84.5538C84.571 50.6365 84.5881 50.4245 84.5881 50.1976C84.571 47.7764 83.0399 46.1194 80.8119 46.1194ZM101.691 50.1976C101.691 48.8327 102.607 47.7113 104.103 47.7113C105.533 47.7113 106.499 48.7843 106.499 50.1976C106.499 51.611 105.533 52.684 104.103 52.684C102.607 52.684 101.691 51.5626 101.691 50.1976ZM108.129 50.1976V46.3147H106.4V47.2575C105.85 46.5583 105.019 46.1194 103.888 46.1194C101.658 46.1194 99.91 47.8266 99.91 50.1976C99.91 52.5706 101.658 54.2759 103.888 54.2759C105.019 54.2759 105.85 53.837 106.4 53.1378V54.0806H108.129V50.1976ZM91.9253 50.1976C91.9253 52.5538 93.6049 54.2759 96.1681 54.2759C97.3659 54.2759 98.1638 54.0155 99.0283 53.3498L98.1981 51.9848C97.5487 52.4404 96.867 52.684 96.1167 52.684C94.7361 52.6673 93.7211 51.6928 93.7211 50.1976C93.7211 48.7025 94.7361 47.728 96.1167 47.7113C96.867 47.7113 97.5487 47.9549 98.1981 48.4105L99.0283 47.0455C98.1638 46.3798 97.3659 46.1194 96.1681 46.1194C93.6049 46.1194 91.9253 47.8415 91.9253 50.1976ZM114.219 46.1194C113.221 46.1194 112.572 46.575 112.122 47.2575V46.3147H110.408V54.0806H112.139V49.7271C112.139 48.4421 112.705 47.728 113.836 47.728C114.187 47.728 114.552 47.7764 114.918 47.9233L115.451 46.3314C115.068 46.1845 114.569 46.1194 114.219 46.1194ZM67.8665 46.9321C67.0343 46.3965 65.8879 46.1194 64.6235 46.1194C62.6087 46.1194 61.3119 47.0623 61.3119 48.6058C61.3119 49.8722 62.2774 50.6533 64.056 50.8969L64.8729 51.0103C65.8213 51.1405 66.2688 51.3841 66.2688 51.823C66.2688 52.4237 65.6366 52.7658 64.4559 52.7658C63.2581 52.7658 62.3935 52.392 61.8108 51.9532L60.9958 53.2679C61.9441 53.9504 63.1419 54.2759 64.4388 54.2759C66.7353 54.2759 68.0664 53.2196 68.0664 51.7412C68.0664 50.3762 67.0191 49.6621 65.2881 49.4184L64.473 49.3031C63.7247 49.2064 63.1248 49.0614 63.1248 48.5407C63.1248 47.9716 63.6904 47.6313 64.6387 47.6313C65.6537 47.6313 66.6363 48.0051 67.1181 48.2971L67.8665 46.9321ZM90.1772 46.1194C89.1793 46.1194 88.53 46.575 88.0825 47.2575V46.3147H86.3686V54.0806H88.0977V49.7271C88.0977 48.4421 88.6633 47.728 89.7944 47.728C90.1448 47.728 90.5104 47.7764 90.8761 47.9233L91.4093 46.3314C91.0265 46.1845 90.5276 46.1194 90.1772 46.1194ZM75.4208 46.3147H72.5929V43.9585H70.8448V46.3147H69.2319V47.8582H70.8448V51.4008C70.8448 53.2029 71.5608 54.2759 73.606 54.2759C74.3563 54.2759 75.2209 54.049 75.7693 53.6752L75.2704 52.2284C74.7543 52.5204 74.1887 52.6673 73.7393 52.6673C72.8748 52.6673 72.5929 52.1466 72.5929 51.3674V47.8582H75.4208V46.3147ZM49.5662 54.0806V49.2064C49.5662 47.371 48.3684 46.1361 46.4375 46.1194C45.4225 46.1027 44.3751 46.4114 43.642 47.5011C43.0935 46.6401 42.229 46.1194 41.0141 46.1194C40.1647 46.1194 39.3345 46.363 38.6851 47.2724V46.3147H36.9541V54.0806H38.7003V49.7755C38.7003 48.4272 39.4659 47.7113 40.6484 47.7113C41.7967 47.7113 42.3775 48.4421 42.3775 49.7588V54.0806H44.1257V49.7755C44.1257 48.4272 44.9236 47.7113 46.0719 47.7113C47.2525 47.7113 47.8181 48.4421 47.8181 49.7588V54.0806H49.5662Z" fill="white"/>
</g>
</g>
</g>
</g>
<defs>
<clipPath id="clip0_485_6785">
<rect width="160" height="100" fill="white"/>
</clipPath>
</defs>
</svg>
