<svg width="160" height="100" viewBox="0 0 160 100" fill="none" xmlns="http://www.w3.org/2000/svg">
<g id="Maestro" clip-path="url(#clip0_485_6797)">
<g id="Maestro_2">
<rect id="Rectangle" width="160" height="100" fill="#0F3560"/>
<g id="Group">
<g id="Group_2">
<path id="Vector" d="M94.5536 74.572H66.5562V25.4351H94.5536V74.572Z" fill="#6C6BBD"/>
<g id="Group_3">
<path id="Vector_2" d="M68.3497 50C68.3497 40.0323 73.1286 31.1534 80.5707 25.4315C75.1285 21.2474 68.2602 18.75 60.7957 18.75C43.1244 18.75 28.7998 32.7409 28.7998 50C28.7998 67.2591 43.1244 81.25 60.7957 81.25C68.2602 81.25 75.1285 78.7526 80.5707 74.5685C73.1286 68.8466 68.3497 59.9677 68.3497 50Z" fill="#EB001B"/>
</g>
<g id="Group_4">
<path id="Vector_3" d="M132.313 50C132.313 67.2591 117.989 81.25 100.317 81.25C92.8528 81.25 85.9845 78.7526 80.5403 74.5685C87.9844 68.8466 92.7633 59.9677 92.7633 50C92.7633 40.0323 87.9844 31.1534 80.5403 25.4315C85.9845 21.2474 92.8528 18.75 100.317 18.75C117.989 18.75 132.313 32.7409 132.313 50Z" fill="#0099DF"/>
</g>
</g>
<g id="Group_5">
<path id="Vector_4" d="M109.405 44.6574C109.864 44.6574 110.522 44.7429 111.025 44.9361L110.324 47.0289C109.844 46.8358 109.363 46.7722 108.902 46.7722C107.415 46.7722 106.672 47.7111 106.672 49.3981V55.124H104.396V44.9141H106.649V46.1537C107.24 45.2564 108.094 44.6574 109.405 44.6574ZM100.998 46.9434H97.2806V51.5569C97.2806 52.5813 97.6511 53.2659 98.7902 53.2659C99.3811 53.2659 100.125 53.0728 100.801 52.6889L101.457 54.5886C100.736 55.08 99.5989 55.3808 98.615 55.3808C95.9236 55.3808 94.9848 53.97 94.9848 51.5985V46.9434H92.8617V44.9141H94.9848V41.8164H97.2806V44.9141H100.998V46.9434ZM71.8841 49.1218C72.127 47.6475 73.0433 46.6426 74.6631 46.6426C76.1277 46.6426 77.0691 47.5399 77.3094 49.1218H71.8841ZM79.6728 50.0191C79.6503 46.8358 77.6374 44.6574 74.7057 44.6574C71.6438 44.6574 69.5007 46.8358 69.5007 50.0191C69.5007 53.2635 71.7314 55.3783 74.8609 55.3783C76.4357 55.3783 77.8777 54.9945 79.147 53.948L78.0304 52.3026C77.1567 52.9872 76.0401 53.371 74.9911 53.371C73.5265 53.371 72.1921 52.7085 71.8641 50.8723H79.6277C79.6503 50.5936 79.6728 50.3173 79.6728 50.0191ZM89.6671 47.5204C89.0337 47.1341 87.7444 46.6426 86.41 46.6426C85.1632 46.6426 84.4196 47.0925 84.4196 47.8407C84.4196 48.5228 85.2057 48.7159 86.1896 48.8431L87.2612 48.9922C89.537 49.3149 90.9139 50.2538 90.9139 52.0483C90.9139 53.9921 89.1639 55.3808 86.1471 55.3808C84.4396 55.3808 82.8649 54.9529 81.6181 54.0556L82.6896 52.3246C83.4557 52.9016 84.5949 53.393 86.1696 53.393C87.7218 53.393 88.553 52.9456 88.553 52.1535C88.553 51.5789 87.9622 51.2562 86.7154 51.0875L85.6439 50.9384C83.303 50.6156 82.0337 49.5912 82.0337 47.9262C82.0337 45.8969 83.7411 44.6574 86.3874 44.6574C88.0498 44.6574 89.5595 45.0217 90.651 45.7258L89.6671 47.5204ZM117.72 46.7673C117.252 46.7673 116.819 46.848 116.416 47.0069C116.015 47.1683 115.667 47.3932 115.374 47.6817C115.081 47.9702 114.851 48.3174 114.683 48.7208C114.515 49.1242 114.433 49.5692 114.433 50.0533C114.433 50.5398 114.515 50.9824 114.683 51.3858C114.851 51.7892 115.081 52.1364 115.374 52.4249C115.667 52.7134 116.015 52.9383 116.416 53.0997C116.819 53.261 117.252 53.3393 117.72 53.3393C118.188 53.3393 118.624 53.261 119.024 53.0997C119.427 52.9383 119.778 52.7134 120.071 52.4249C120.369 52.1364 120.599 51.7892 120.769 51.3858C120.937 50.9824 121.02 50.5398 121.02 50.0533C121.02 49.5692 120.937 49.1242 120.769 48.7208C120.599 48.3174 120.369 47.9702 120.071 47.6817C119.778 47.3932 119.427 47.1683 119.024 47.0069C118.624 46.848 118.188 46.7673 117.72 46.7673ZM117.72 44.6574C118.531 44.6574 119.282 44.7943 119.973 45.0706C120.664 45.3444 121.262 45.7234 121.766 46.205C122.271 46.6867 122.664 47.2563 122.95 47.9116C123.235 48.5692 123.378 49.2831 123.378 50.0533C123.378 50.8234 123.235 51.5374 122.95 52.195C122.664 52.8503 122.271 53.4224 121.766 53.904C121.262 54.3857 120.664 54.7622 119.973 55.0385C119.282 55.3123 118.531 55.4492 117.72 55.4492C116.909 55.4492 116.158 55.3123 115.467 55.0385C114.776 54.7622 114.182 54.3857 113.682 53.904C113.181 53.4224 112.788 52.8503 112.502 52.195C112.217 51.5374 112.074 50.8234 112.074 50.0533C112.074 49.2831 112.217 48.5692 112.502 47.9116C112.788 47.2563 113.181 46.6867 113.682 46.205C114.182 45.7234 114.776 45.3444 115.467 45.0706C116.158 44.7943 116.909 44.6574 117.72 44.6574ZM58.5951 50.0191C58.5951 48.2245 59.7993 46.7502 61.7671 46.7502C63.6473 46.7502 64.9166 48.1609 64.9166 50.0191C64.9166 51.8772 63.6473 53.2855 61.7671 53.2855C59.7993 53.2855 58.5951 51.8136 58.5951 50.0191ZM67.0597 50.0191V44.9141H64.7864V46.1537C64.0629 45.2344 62.9713 44.6574 61.4842 44.6574C58.5525 44.6574 56.2567 46.8994 56.2567 50.0191C56.2567 53.1363 58.5525 55.3808 61.4842 55.3808C62.9713 55.3808 64.0629 54.8038 64.7864 53.8845V55.124H67.0597V50.0191ZM54.2438 55.124V48.7159C54.2438 46.3028 52.6691 44.6794 50.1329 44.6574C48.7985 44.6354 47.419 45.0412 46.4577 46.4739C45.7366 45.3419 44.5975 44.6574 43.0002 44.6574C41.8861 44.6574 40.792 44.9777 39.9383 46.1732V44.9141H37.665V55.124H39.9608V49.4641C39.9608 47.6915 40.9673 46.7502 42.5195 46.7502C44.0292 46.7502 44.7953 47.7111 44.7953 49.4421V55.124H47.0911V49.4641C47.0911 47.6915 48.1426 46.7502 49.6497 46.7502C51.2045 46.7502 51.948 47.7111 51.948 49.4421V55.124H54.2438Z" fill="white"/>
</g>
</g>
</g>
</g>
<defs>
<clipPath id="clip0_485_6797">
<rect width="160" height="100" fill="white"/>
</clipPath>
</defs>
</svg>
