<svg width="96" height="96" viewBox="0 0 96 96" fill="none" xmlns="http://www.w3.org/2000/svg">
<mask id="path-1-inside-1_485_6867" fill="white">
<path fill-rule="evenodd" clip-rule="evenodd" d="M50 17.6C53.2 16.8 56.4 16 60 16C77.6 16 92 30.4 92 48C92 65.6 77.6 80 60 80C56.4 80 53.2 79.6 50 78.4C46.8 79.6 43.6 80 40 80C22.4 80 8 65.6 8 48C8 30.4 22.4 16 40 16C43.6 16 46.8 16.4 50 17.6ZM40 20C24.4 20 12 32.4 12 48C12 63.6 24.4 76 40 76C55.6 76 68 63.6 68 48C68 32.4 55.6 20 40 20ZM62 71.2C60 72.8 58.4 74 56.4 75.2C57.6 75.6 58.8 75.6 60 75.6C75.2 75.6 87.6 63.2 87.6 48C87.6 32.8 75.2 20.4 60 20.4C59.4 20.4 58.8 20.5 58.2 20.6C57.6 20.7 57 20.8 56.4 20.8C58.4 22 60.4 23.2 62 24.8C74 25.6 83.6 35.6 83.6 48C83.6 60 74 70.4 62 71.2ZM32 64H33H42C46.4 64 50.4 61.6 52 57.2C52.4 56 52.4 55.2 52.4 54C52.4 50.7563 51.101 48.1621 48.7957 46.2174C48.5425 46.0037 48.2771 45.7979 48 45.6C48.2414 45.3586 48.4646 45.1081 48.6696 44.8499C49.8232 43.3965 50.4 41.6983 50.4 40C50.4 35.6 46.8 32 42.4 32H33H32V33V63V64ZM53.4 54C53.4 50.4479 51.9615 47.5874 49.4566 45.4667C50.7438 43.8428 51.4 41.9292 51.4 40C51.4 35.0477 47.3523 31 42.4 31H32H31V32V64V65H32H42C46.7713 65 51.18 62.3813 52.9398 57.5417L52.9444 57.529L52.9487 57.5162C53.4001 56.1621 53.4 55.2251 53.4 54.0303V54ZM47.1056 55.5528L47.0738 55.6163L47.0513 55.6838C46.4059 57.6199 44.4311 59 42 59H37V49H42.4C45.0477 49 47.4 51.3523 47.4 54C47.4 54.4197 47.3974 54.6326 47.3636 54.8356C47.3339 55.0138 47.2731 55.2178 47.1056 55.5528ZM63 48C63 60.7025 52.7025 71 40 71C27.2975 71 17 60.7025 17 48C17 35.2975 27.2975 25 40 25C52.7025 25 63 35.2975 63 48ZM42.4 37C43.3728 37 44.1057 37.3199 44.5929 37.8071C45.0801 38.2943 45.4 39.0272 45.4 40C45.4 40.9728 45.0801 41.7057 44.5929 42.1929C44.1057 42.6801 43.3728 43 42.4 43H37V37H42.4ZM64 48C64 61.2548 53.2548 72 40 72C26.7452 72 16 61.2548 16 48C16 34.7452 26.7452 24 40 24C53.2548 24 64 34.7452 64 48ZM46.4 40C46.4 37.6 44.8 36 42.4 36H37H36V37V43V44H37H42.4C44.8 44 46.4 42.4 46.4 40ZM42 60C44.8 60 47.2 58.4 48 56C48.4 55.2 48.4 54.8 48.4 54C48.4 50.8 45.6 48 42.4 48H37H36V49V59V60H37H42Z"/>
</mask>
<path d="M50 17.6L49.2978 19.4727L49.8809 19.6913L50.4851 19.5403L50 17.6ZM50 78.4L50.7022 76.5273L50 76.264L49.2978 76.5273L50 78.4ZM56.4 75.2L55.371 73.485L51.6423 75.7223L55.7675 77.0974L56.4 75.2ZM62 71.2L61.867 69.2044L61.2407 69.2462L60.7506 69.6383L62 71.2ZM56.4 20.8V18.8H49.1794L55.371 22.515L56.4 20.8ZM62 24.8L60.5858 26.2142L61.1172 26.7456L61.867 26.7956L62 24.8ZM32 64H30V66H32V64ZM52 57.2L53.8796 57.8835L53.8888 57.8581L53.8974 57.8325L52 57.2ZM48.7957 46.2174L50.0853 44.6887L50.0853 44.6887L48.7957 46.2174ZM48 45.6L46.5858 44.1858L44.9164 45.8552L46.8375 47.2275L48 45.6ZM48.6696 44.8499L47.1031 43.6064L47.1031 43.6064L48.6696 44.8499ZM32 32V30H30V32H32ZM49.4566 45.4667L47.8893 44.2244L46.6864 45.7419L48.1643 46.9931L49.4566 45.4667ZM31 31V29H29V31H31ZM31 65H29V67H31V65ZM52.9398 57.5417L51.0603 56.858L51.0602 56.8583L52.9398 57.5417ZM52.9444 57.529L54.8239 58.2128L54.8332 58.1873L54.8418 58.1615L52.9444 57.529ZM52.9487 57.5162L51.0513 56.8838V56.8838L52.9487 57.5162ZM53.4 54.0303H51.4V54.0304L53.4 54.0303ZM47.0738 55.6163L45.285 54.7219L45.2214 54.849L45.1764 54.9839L47.0738 55.6163ZM47.1056 55.5528L48.8944 56.4473L48.8944 56.4472L47.1056 55.5528ZM47.0513 55.6838L45.154 55.0513L45.1539 55.0513L47.0513 55.6838ZM37 59H35V61H37V59ZM37 49V47H35V49H37ZM47.3636 54.8356L49.3364 55.1644V55.1644L47.3636 54.8356ZM44.5929 42.1929L46.0071 43.6071V43.6071L44.5929 42.1929ZM37 43H35V45H37V43ZM37 37V35H35V37H37ZM36 36V34H34V36H36ZM36 44H34V46H36V44ZM48 56L46.2111 55.1056L46.1476 55.2327L46.1026 55.3675L48 56ZM36 48V46H34V48H36ZM36 60H34V62H36V60ZM60 14C56.1183 14 52.6893 14.8661 49.5149 15.6597L50.4851 19.5403C53.7107 18.7339 56.6817 18 60 18V14ZM94 48C94 29.2954 78.7046 14 60 14V18C76.4954 18 90 31.5046 90 48H94ZM60 82C78.7046 82 94 66.7046 94 48H90C90 64.4954 76.4954 78 60 78V82ZM49.2978 80.2727C52.79 81.5823 56.2451 82 60 82V78C56.5549 78 53.61 77.6177 50.7022 76.5273L49.2978 80.2727ZM40 82C43.7549 82 47.21 81.5823 50.7022 80.2727L49.2978 76.5273C46.39 77.6177 43.4451 78 40 78V82ZM6 48C6 66.7046 21.2954 82 40 82V78C23.5046 78 10 64.4954 10 48H6ZM40 14C21.2954 14 6 29.2954 6 48H10C10 31.5046 23.5046 18 40 18V14ZM50.7022 15.7273C47.21 14.4177 43.7549 14 40 14V18C43.4451 18 46.39 18.3823 49.2978 19.4727L50.7022 15.7273ZM14 48C14 33.5046 25.5046 22 40 22V18C23.2954 18 10 31.2954 10 48H14ZM40 74C25.5046 74 14 62.4954 14 48H10C10 64.7046 23.2954 78 40 78V74ZM66 48C66 62.4954 54.4954 74 40 74V78C56.7046 78 70 64.7046 70 48H66ZM40 22C54.4954 22 66 33.5046 66 48H70C70 31.2954 56.7046 18 40 18V22ZM57.429 76.915C59.5414 75.6475 61.2218 74.3838 63.2494 72.7617L60.7506 69.6383C58.7782 71.2162 57.2586 72.3524 55.371 73.485L57.429 76.915ZM60 73.6C58.7549 73.6 57.8772 73.5842 57.0325 73.3026L55.7675 77.0974C57.3228 77.6158 58.8451 77.6 60 77.6V73.6ZM85.6 48C85.6 62.0954 74.0954 73.6 60 73.6V77.6C76.3046 77.6 89.6 64.3046 89.6 48H85.6ZM60 22.4C74.0954 22.4 85.6 33.9046 85.6 48H89.6C89.6 31.6954 76.3046 18.4 60 18.4V22.4ZM58.5288 22.5728C59.1582 22.4679 59.5937 22.4 60 22.4V18.4C59.2063 18.4 58.4418 18.5321 57.8712 18.6272L58.5288 22.5728ZM56.4 22.8C57.1937 22.8 57.9582 22.6679 58.5288 22.5728L57.8712 18.6272C57.2418 18.7321 56.8063 18.8 56.4 18.8V22.8ZM63.4142 23.3858C61.6097 21.5813 59.3875 20.2601 57.429 19.085L55.371 22.515C57.4125 23.7399 59.1903 24.8187 60.5858 26.2142L63.4142 23.3858ZM85.6 48C85.6 34.5389 75.1755 23.6739 62.133 22.8044L61.867 26.7956C72.8245 27.5261 81.6 36.6611 81.6 48H85.6ZM62.133 73.1956C75.1972 72.3246 85.6 61.0393 85.6 48H81.6C81.6 58.9607 72.8028 68.4754 61.867 69.2044L62.133 73.1956ZM33 62H32V66H33V62ZM42 62H33V66H42V62ZM50.1204 56.5165C48.8401 60.0374 45.6575 62 42 62V66C47.1425 66 51.9599 63.1626 53.8796 57.8835L50.1204 56.5165ZM50.4 54C50.4 55.1815 50.3923 55.6987 50.1026 56.5675L53.8974 57.8325C54.4077 56.3013 54.4 55.2185 54.4 54H50.4ZM47.5061 47.7461C49.3755 49.323 50.4 51.3643 50.4 54H54.4C54.4 50.1483 52.8266 47.0012 50.0853 44.6887L47.5061 47.7461ZM46.8375 47.2275C47.0726 47.3953 47.2954 47.5683 47.5061 47.7461L50.0853 44.6887C49.7896 44.4392 49.4817 44.2005 49.1625 43.9725L46.8375 47.2275ZM47.1031 43.6064C46.9461 43.8042 46.7738 43.9978 46.5858 44.1858L49.4142 47.0142C49.709 46.7194 49.9831 46.412 50.236 46.0933L47.1031 43.6064ZM48.4 40C48.4 41.2374 47.9818 42.4994 47.1031 43.6064L50.236 46.0933C51.6646 44.2936 52.4 42.1591 52.4 40H48.4ZM42.4 34C45.6954 34 48.4 36.7046 48.4 40H52.4C52.4 34.4954 47.9046 30 42.4 30V34ZM33 34H42.4V30H33V34ZM32 34H33V30H32V34ZM34 33V32H30V33H34ZM34 63V33H30V63H34ZM34 64V63H30V64H34ZM48.1643 46.9931C50.2365 48.7475 51.4 51.0569 51.4 54H55.4C55.4 49.839 53.6865 46.4273 50.7489 43.9403L48.1643 46.9931ZM49.4 40C49.4 41.4682 48.9025 42.9461 47.8893 44.2244L51.0239 46.7091C52.5851 44.7396 53.4 42.3902 53.4 40H49.4ZM42.4 33C46.2477 33 49.4 36.1523 49.4 40H53.4C53.4 33.9431 48.4569 29 42.4 29V33ZM32 33H42.4V29H32V33ZM31 33H32V29H31V33ZM33 32V31H29V32H33ZM33 64V32H29V64H33ZM33 65V64H29V65H33ZM32 63H31V67H32V63ZM42 63H32V67H42V63ZM51.0602 56.8583C49.6205 60.8175 46.0302 63 42 63V67C47.5123 67 52.7394 63.9451 54.8194 58.2252L51.0602 56.8583ZM51.0649 56.8453L51.0603 56.858L54.8193 58.2255L54.8239 58.2128L51.0649 56.8453ZM51.0513 56.8838L51.047 56.8966L54.8418 58.1615L54.8461 58.1487L51.0513 56.8838ZM51.4 54.0304C51.4 55.1991 51.3934 55.8575 51.0513 56.8838L54.8461 58.1487C55.4067 56.4667 55.4 55.2511 55.4 54.0303L51.4 54.0304ZM51.4 54V54.0303H55.4V54H51.4ZM48.8626 56.5108L48.8944 56.4473L45.3167 54.6583L45.285 54.7219L48.8626 56.5108ZM48.9487 56.3163L48.9711 56.2488L45.1764 54.9839L45.154 55.0513L48.9487 56.3163ZM42 61C45.173 61 47.9953 59.1765 48.9487 56.3162L45.1539 55.0513C44.8166 56.0634 43.6892 57 42 57V61ZM37 61H42V57H37V61ZM35 49V59H39V49H35ZM42.4 47H37V51H42.4V47ZM49.4 54C49.4 50.2477 46.1523 47 42.4 47V51C43.9431 51 45.4 52.4569 45.4 54H49.4ZM49.3364 55.1644C49.4028 54.7658 49.4 54.3749 49.4 54H45.4C45.4 54.2157 45.3991 54.3369 45.3959 54.4248C45.393 54.5013 45.3894 54.5152 45.3908 54.5068L49.3364 55.1644ZM48.8944 56.4472C49.1269 55.9822 49.2661 55.5862 49.3364 55.1644L45.3908 54.5068C45.3917 54.5018 45.3932 54.4938 45.3954 54.4854C45.3974 54.4773 45.3983 54.4753 45.3963 54.4812C45.3916 54.4948 45.372 54.5478 45.3167 54.6583L48.8944 56.4472ZM40 73C53.8071 73 65 61.8071 65 48H61C61 59.598 51.598 69 40 69V73ZM15 48C15 61.8071 26.1929 73 40 73V69C28.402 69 19 59.598 19 48H15ZM40 23C26.1929 23 15 34.1929 15 48H19C19 36.402 28.402 27 40 27V23ZM65 48C65 34.1929 53.8071 23 40 23V27C51.598 27 61 36.402 61 48H65ZM46.0071 36.3929C45.0953 35.4811 43.8288 35 42.4 35V39C42.9167 39 43.1161 39.1587 43.1787 39.2213L46.0071 36.3929ZM47.4 40C47.4 38.5712 46.9189 37.3047 46.0071 36.3929L43.1787 39.2213C43.2413 39.2839 43.4 39.4833 43.4 40H47.4ZM46.0071 43.6071C46.9189 42.6953 47.4 41.4288 47.4 40H43.4C43.4 40.5167 43.2413 40.7161 43.1787 40.7787L46.0071 43.6071ZM42.4 45C43.8288 45 45.0953 44.5189 46.0071 43.6071L43.1787 40.7787C43.1161 40.8413 42.9167 41 42.4 41V45ZM37 45H42.4V41H37V45ZM35 37V43H39V37H35ZM42.4 35H37V39H42.4V35ZM40 74C54.3594 74 66 62.3594 66 48H62C62 60.1503 52.1503 70 40 70V74ZM14 48C14 62.3594 25.6406 74 40 74V70C27.8497 70 18 60.1503 18 48H14ZM40 22C25.6406 22 14 33.6406 14 48H18C18 35.8497 27.8497 26 40 26V22ZM66 48C66 33.6406 54.3594 22 40 22V26C52.1503 26 62 35.8497 62 48H66ZM42.4 38C43.1455 38 43.6113 38.2398 43.8858 38.5142C44.1602 38.7887 44.4 39.2545 44.4 40H48.4C48.4 38.3455 47.8398 36.8113 46.7142 35.6858C45.5887 34.5602 44.0545 34 42.4 34V38ZM37 38H42.4V34H37V38ZM36 38H37V34H36V38ZM38 37V36H34V37H38ZM38 43V37H34V43H38ZM38 44V43H34V44H38ZM37 42H36V46H37V42ZM42.4 42H37V46H42.4V42ZM44.4 40C44.4 40.7455 44.1602 41.2113 43.8858 41.4858C43.6113 41.7602 43.1455 42 42.4 42V46C44.0545 46 45.5887 45.4398 46.7142 44.3142C47.8398 43.1887 48.4 41.6545 48.4 40H44.4ZM46.1026 55.3675C45.6119 56.8399 44.0622 58 42 58V62C45.5378 62 48.7881 59.9601 49.8974 56.6325L46.1026 55.3675ZM46.4 54C46.4 54.4394 46.3949 54.5653 46.3772 54.6712C46.3678 54.7276 46.3461 54.8356 46.2111 55.1056L49.7889 56.8944C50.0539 56.3644 50.2322 55.8724 50.3228 55.3288C50.4051 54.8347 50.4 54.3606 50.4 54H46.4ZM42.4 50C44.4954 50 46.4 51.9046 46.4 54H50.4C50.4 49.6954 46.7046 46 42.4 46V50ZM37 50H42.4V46H37V50ZM36 50H37V46H36V50ZM38 49V48H34V49H38ZM38 59V49H34V59H38ZM38 60V59H34V60H38ZM37 58H36V62H37V58ZM42 58H37V62H42V58Z" fill="white" mask="url(#path-1-inside-1_485_6867)"/>
</svg>
