<svg width="72" height="72" viewBox="0 0 72 72" fill="none" xmlns="http://www.w3.org/2000/svg">
<rect width="72" height="72" rx="24" fill="url(#paint0_linear_1_22)" fill-opacity="0.16"/>
<path opacity="0.24" d="M16 28C16 21.3726 21.3726 16 28 16H44C50.6274 16 56 21.3726 56 28V44C56 50.6274 50.6274 56 44 56H28C21.3726 56 16 50.6274 16 44V28Z" fill="url(#paint1_linear_1_22)"/>
<g clip-path="url(#clip0_1_22)">
<path d="M51.7339 51.7505C51.7339 55.6026 43.4409 57.6 35.5697 57.6C27.6984 57.6 19.4055 55.6026 19.4055 51.7505C19.4055 49.3252 23.2006 47.1851 29.2446 46.3291V51.6079C29.2446 53.4626 30.7907 54.8893 32.618 54.8893H38.3809C40.2081 54.8893 41.8948 53.4626 41.8948 51.6079V46.3291C47.7983 47.3278 51.7339 49.3252 51.7339 51.7505ZM21.795 23.0739C22.0761 23.0739 22.4978 23.3593 22.4978 23.7873C22.4978 24.0726 22.2167 24.5006 21.795 24.5006C21.3733 24.5006 21.0922 24.2153 21.0922 23.7873C21.2328 23.3593 21.3733 23.2166 21.795 23.0739ZM21.795 25.0713C22.0761 25.0713 22.4978 25.3566 22.4978 25.7847C22.4978 26.07 22.2167 26.498 21.795 26.498C21.3733 26.3553 21.2328 26.07 21.2328 25.7847C21.2328 25.3566 21.3733 25.0713 21.795 25.0713ZM21.795 33.0608C22.0761 33.0608 22.4978 33.3462 22.4978 33.7742C22.4978 34.2022 22.2167 34.4875 21.795 34.4875C21.3733 34.4875 21.0922 34.2022 21.0922 33.7742C21.2328 33.2035 21.3733 33.0608 21.795 33.0608ZM21.795 35.0582C22.0761 35.0582 22.4978 35.3435 22.4978 35.7715C22.4978 36.1995 22.2167 36.4849 21.795 36.4849C21.3733 36.4849 21.0922 36.1995 21.0922 35.7715C21.0922 35.3435 21.3733 35.0582 21.795 35.0582ZM21.2328 31.6341C21.2328 31.3488 21.5139 30.9208 21.9356 30.9208C22.3572 30.9208 22.6383 31.2061 22.6383 31.6341C22.6383 32.0621 22.2167 32.3475 21.795 32.3475C21.3733 32.3475 21.2328 32.0621 21.2328 31.6341ZM21.2328 27.782C21.2328 27.4967 21.5139 27.0687 21.9356 27.0687C22.3572 27.0687 22.6383 27.354 22.6383 27.782C22.6383 28.0674 22.3572 28.4954 21.9356 28.4954C21.5139 28.4954 21.2328 28.0674 21.2328 27.782ZM21.2328 29.7794C21.2328 29.4941 21.5139 29.0661 21.9356 29.0661C22.3572 29.0661 22.6383 29.3514 22.6383 29.7794C22.6383 30.2074 22.2167 30.3501 21.795 30.3501C21.3733 30.3501 21.2328 30.0647 21.2328 29.7794ZM21.2328 37.6262C21.2328 37.3409 21.5139 36.9129 21.9356 36.9129C22.3572 36.9129 22.6383 37.1982 22.6383 37.6262C22.6383 37.9116 22.3572 38.3396 21.9356 38.3396C21.5139 38.3396 21.2328 38.0543 21.2328 37.6262ZM21.2328 39.6236C21.2328 39.3383 21.5139 38.9103 21.9356 38.9103C22.3572 38.9103 22.6383 39.1956 22.6383 39.6236C22.6383 39.909 22.3572 40.337 21.9356 40.337C21.5139 40.337 21.2328 39.909 21.2328 39.6236ZM21.795 40.9076C21.9356 40.9076 22.0761 40.9076 22.2167 41.0503C22.3572 41.193 22.3572 41.3357 22.3572 41.4783C22.3572 41.621 22.2167 41.7637 22.2167 41.9063C21.9356 42.1917 21.5139 42.1917 21.3733 41.9063C21.2328 41.7637 21.2328 41.621 21.2328 41.4783C21.2328 41.3357 21.2328 41.193 21.3733 41.0503C21.3733 41.0503 21.6544 40.9076 21.795 40.9076ZM24.4656 25.3566L21.795 22.6459L19.1244 25.3566C18.8433 25.642 18.4216 25.642 18.281 25.3566C18.1405 25.0713 17.9999 24.6433 18.1405 24.5006L21.3733 21.3619C21.6544 21.0766 22.0761 21.0766 22.2167 21.3619L25.309 24.5006C25.5901 24.786 25.5901 25.214 25.309 25.3566C25.1684 25.642 24.7467 25.642 24.4656 25.3566ZM31.0761 19.2508C31.0761 16.54 33.1845 14.4 35.8551 14.4C38.5257 14.4 40.634 16.54 40.634 19.2508C40.634 21.9615 38.5257 24.1015 35.8551 24.1015C33.1845 24.1015 31.0761 21.9615 31.0761 19.2508ZM50.3283 39.6236C50.3283 39.3383 50.6094 38.9103 51.0311 38.9103C51.3122 38.9103 51.7339 39.1956 51.7339 39.6236C51.7339 39.909 51.4528 40.337 51.0311 40.337C50.6094 40.1943 50.3283 39.909 50.3283 39.6236ZM50.3283 27.782C50.3283 27.4967 50.6094 27.0687 51.0311 27.0687C51.3122 27.0687 51.7339 27.354 51.7339 27.782C51.7339 28.0674 51.4528 28.4954 51.0311 28.4954C50.6094 28.3527 50.3283 28.0674 50.3283 27.782ZM51.0311 35.0582C51.3122 35.0582 51.7339 35.3435 51.7339 35.7715C51.7339 36.1995 51.4528 36.4849 51.0311 36.4849C50.6094 36.4849 50.3283 36.0569 50.3283 35.6289C50.3283 35.2009 50.6094 35.0582 51.0311 35.0582ZM51.0311 33.0608C51.3122 33.0608 51.7339 33.3462 51.7339 33.7742C51.7339 34.2022 51.4528 34.4875 51.0311 34.4875C50.6094 34.4875 50.3283 34.0595 50.3283 33.6315C50.3283 33.2035 50.6094 33.0608 51.0311 33.0608ZM51.0311 25.0713C51.3122 25.0713 51.7339 25.3566 51.7339 25.7847C51.7339 26.07 51.4528 26.498 51.0311 26.498C50.6094 26.498 50.3283 26.07 50.3283 25.7847C50.3283 25.3566 50.6094 25.0713 51.0311 25.0713ZM50.3283 37.6262C50.3283 37.3409 50.6094 36.9129 51.0311 36.9129C51.3122 36.9129 51.7339 37.1982 51.7339 37.6262C51.7339 37.9116 51.4528 38.3396 51.0311 38.3396C50.6094 38.3396 50.3283 38.0543 50.3283 37.6262ZM51.0311 40.9076C51.1716 40.9076 51.3122 40.9076 51.4528 41.0503C51.5933 41.193 51.5933 41.3357 51.5933 41.4783C51.5933 41.621 51.5933 41.7637 51.4528 41.9063C51.1716 42.1917 50.75 42.1917 50.6094 41.9063C50.4689 41.9063 50.3283 41.7637 50.3283 41.621C50.3283 41.4783 50.4689 41.3357 50.4689 41.193C50.6094 41.0503 50.8905 40.9076 51.0311 40.9076ZM51.0311 23.0739C51.3122 23.0739 51.7339 23.3593 51.7339 23.7873C51.7339 24.0726 51.4528 24.5006 51.0311 24.5006C50.6094 24.5006 50.3283 24.0726 50.3283 23.7873C50.3283 23.3593 50.6094 23.0739 51.0311 23.0739ZM43.3004 30.2074V43.0477C43.3004 43.4757 43.0193 43.761 42.7382 43.761H40.4892V51.7505C40.4892 52.8919 39.6459 53.7479 38.5214 53.7479H32.7585C31.6341 53.7479 30.6502 52.7492 30.6502 51.6079V43.761H28.4012C28.1201 43.761 27.839 43.4757 27.839 43.0477V30.2074C27.839 27.354 29.6663 25.0713 32.0557 25.0713H38.9431C41.3326 24.9286 43.3004 27.354 43.3004 30.2074ZM54.545 25.3566C54.2639 25.642 53.8422 25.642 53.7017 25.3566L51.0311 22.6459L48.3605 25.3566C48.0794 25.642 47.6577 25.642 47.5171 25.3566C47.3766 25.0713 47.236 24.6433 47.5171 24.5006L50.75 21.3619C51.0311 21.0766 51.4528 21.0766 51.5933 21.3619L54.545 24.5006C54.8262 24.6433 54.8262 25.0713 54.545 25.3566ZM50.3283 29.7794C50.3283 29.4941 50.6094 29.0661 51.0311 29.0661C51.3122 29.0661 51.7339 29.3514 51.7339 29.7794C51.7339 30.2074 51.3122 30.3501 51.0311 30.3501C50.6094 30.3501 50.3283 30.0647 50.3283 29.7794ZM50.3283 31.6341C50.3283 31.3488 50.6094 30.9208 51.0311 30.9208C51.3122 30.9208 51.7339 31.2061 51.7339 31.6341C51.7339 32.0621 51.4528 32.3475 51.0311 32.3475C50.6094 32.3475 50.3283 32.0621 50.3283 31.6341Z" fill="url(#paint2_linear_1_22)"/>
</g>
<defs>
<linearGradient id="paint0_linear_1_22" x1="72" y1="0" x2="-13.2874" y2="48.7574" gradientUnits="userSpaceOnUse">
<stop stop-color="#FD8A38"/>
<stop offset="1" stop-color="#C96DF3"/>
</linearGradient>
<linearGradient id="paint1_linear_1_22" x1="56" y1="16" x2="8.61811" y2="43.0874" gradientUnits="userSpaceOnUse">
<stop stop-color="#FE7E27"/>
<stop offset="1" stop-color="#C748F3"/>
</linearGradient>
<linearGradient id="paint2_linear_1_22" x1="54.7559" y1="14.4" x2="8.10449" y2="37.0407" gradientUnits="userSpaceOnUse">
<stop stop-color="#FE7E27"/>
<stop offset="1" stop-color="#C748F3"/>
</linearGradient>
<clipPath id="clip0_1_22">
<rect width="43.2" height="43.2" fill="white" transform="translate(14.4 14.4)"/>
</clipPath>
</defs>
</svg>
