<svg width="32" height="32" viewBox="0 0 32 32" fill="none" xmlns="http://www.w3.org/2000/svg">
<path d="M16.8031 0C16.4352 0 16.0674 0.367816 16.0674 0.735632V5.88506C16.0674 6.8659 17.5387 6.8659 17.5387 5.88506V0.735632C17.5387 0.367816 17.2935 0 16.8031 0ZM9.07893 3.18774C8.4659 3.18774 8.09808 3.92337 8.5885 4.41379L12.1441 7.96935C12.8797 8.70498 13.9831 7.60153 13.1249 6.98851L9.69195 3.43295C9.56935 3.31034 9.32414 3.18774 9.07893 3.18774ZM24.5272 3.18774C24.282 3.18774 24.1594 3.31034 24.0368 3.43295L20.4812 6.98851C19.7456 7.72414 20.849 8.70498 21.4621 7.96935L25.0176 4.41379C25.508 3.92337 25.1402 3.18774 24.5272 3.18774ZM15.8222 8.09195C15.2092 8.09195 14.7188 8.45977 14.7188 9.0728C14.7188 11.6475 14.4736 13.977 13.2475 15.9387C12.1441 17.6552 10.5502 19.3716 8.09808 19.6169V32H26.9793C27.3471 32 27.3471 31.387 27.3471 31.0192V30.7739V29.6705V29.5479C27.3471 29.1801 27.2245 28.6897 26.9793 28.6897H24.895C24.4046 28.6897 24.4046 28.0766 24.895 27.954H29.3088C29.6766 27.954 29.6766 27.4636 29.6766 27.0958V25.8697C29.6766 25.5019 29.554 25.0115 29.3088 25.0115H25.6306C25.1402 25.0115 25.1402 24.2759 25.6306 24.2759H29.3088C29.6766 24.2759 29.6766 23.7854 29.6766 23.4176V22.1916C29.6766 21.8238 29.554 21.3333 29.3088 21.3333H25.6306C25.1402 21.3333 25.1402 20.7203 25.6306 20.5977H29.3088C29.6766 20.5977 29.6766 20.1073 29.6766 19.7395C29.6766 19.249 29.6766 18.636 29.6766 18.1456C29.6766 17.7778 29.554 17.2874 29.3088 17.2874H19.1326V11.6475C19.1326 9.31801 17.4161 8.21456 16.19 8.09195C16.0674 8.09195 15.9448 8.09195 15.8222 8.09195ZM5.89119 10.9119C4.91034 11.0345 5.03295 12.3831 6.01379 12.3831H11.1632C12.1441 12.3831 12.1441 10.9119 11.1632 10.9119H5.89119ZM22.5655 10.9119C21.5847 11.0345 21.7073 12.3831 22.6881 12.3831H27.8375C28.8184 12.3831 28.8184 10.9119 27.8375 10.9119H22.5655ZM2.33563 19.6169C1.96781 19.6169 1.6 19.9847 1.6 20.3525V31.2644C1.6 31.6322 1.96781 32 2.33563 32H6.01379C6.38161 32 6.74942 31.6322 6.74942 31.2644V20.3525C6.74942 19.9847 6.38161 19.6169 6.01379 19.6169H2.33563Z" fill="url(#paint0_linear_3_22)"/>
<defs>
<linearGradient id="paint0_linear_3_22" x1="29.6766" y1="0" x2="-5.58046" y2="17.6847" gradientUnits="userSpaceOnUse">
<stop stop-color="#FE7E27"/>
<stop offset="1" stop-color="#C748F3"/>
</linearGradient>
</defs>
</svg>
