<svg width="32" height="32" viewBox="0 0 32 32" fill="none" xmlns="http://www.w3.org/2000/svg">
<path d="M23.3035 8.78233C21.3855 6.15773 20.8808 6.15773 20.6789 6.15773C20.376 6.15773 20.1741 6.35962 20.0732 6.66246C19.7703 8.88328 18.9628 9.48896 17.6505 10.3975C17.5495 10.4984 17.4486 10.4984 17.3476 10.5994C16.742 6.9653 12.3003 3.93691 12.0984 3.83596C11.9975 3.73502 11.7956 3.73502 11.5937 3.83596C11.3918 3.83596 11.2908 4.03785 11.1899 4.1388C11.1899 4.1388 10.1804 9.48896 6.54637 12.6183C3.51798 15.2429 1.90284 18.0694 1.80189 21.0978C1.49905 25.3375 4.2246 28.3659 4.4265 28.5678C4.52744 28.6688 6.95016 31.5962 11.7956 32C11.7956 31.7981 11.8965 30.2839 11.8965 30.2839C11.7956 29.4763 11.6946 28.0631 11.5937 27.4574C11.5937 27.3565 11.4927 27.3565 11.3918 27.3565C10.6852 28.265 9.8776 29.0726 8.66624 28.6688C7.0511 28.164 5.83975 26.2461 5.23407 24.7319C4.93123 24.1262 4.52744 23.4196 4.62839 22.7129C4.62839 21.9054 5.23407 21.2997 5.94069 21.1987C7.65678 20.795 8.76719 23.0158 7.35394 24.1262C7.75773 24.53 8.26246 25.1356 8.66624 25.5394C8.76719 25.6404 8.86814 25.5394 8.96908 25.5394C9.77665 24.2271 10.5842 22.8139 11.6946 21.8044C12.1994 21.4006 12.7041 20.9968 13.3098 20.795C13.4107 20.795 13.5117 20.795 13.6126 20.694C12.3003 20.0883 11.3918 18.776 11.3918 17.2618C11.3918 15.041 13.3098 13.3249 15.5306 13.5268C17.2467 13.7287 18.6599 15.142 18.7609 16.858C18.9628 18.4732 17.9533 19.9874 16.5401 20.5931C16.641 20.5931 16.742 20.5931 16.8429 20.694C17.4486 20.8959 17.9533 21.2997 18.458 21.7035C19.5685 22.7129 20.376 24.1262 21.1836 25.4385C21.2845 25.5394 21.3855 25.5394 21.4864 25.4385C21.9912 25.0347 22.395 24.53 22.7987 24.0252C21.4864 22.9148 22.4959 20.694 24.212 21.0978C24.9186 21.1987 25.5243 21.9054 25.5243 22.612C25.5243 23.2177 25.1205 24.0252 24.9186 24.6309C24.212 26.0442 23.1016 27.9621 21.4864 28.5678C20.2751 28.9716 19.4675 28.164 18.7609 27.4574C18.6599 27.3565 18.458 27.4574 18.458 27.5584C18.458 28.3659 18.3571 29.6782 18.3571 30.2839C18.3571 30.2839 18.3571 30.5867 18.458 30.8896C18.458 31.0915 18.559 31.7981 18.559 32C23.3035 31.4953 25.7262 28.6688 25.9281 28.5678C29.6631 24.429 28.3508 18.6751 26.5338 14.6372C25.6252 12.0126 24.111 9.7918 23.3035 8.78233ZM4.93123 12.8202C5.13312 12.8202 5.23407 12.7192 5.23407 12.5174V12.4164C5.23407 12.2145 4.93123 11.0032 5.13312 9.38801C5.23407 8.37855 5.03218 7.47003 4.52744 6.9653C3.71987 6.05678 2.50852 5.95584 2.00378 5.95584C1.90284 5.95584 1.80189 5.95584 1.80189 5.95584C1.70094 5.85489 1.6 5.95584 1.6 6.05678C1.6 6.15773 1.6 6.25867 1.70094 6.35962C2.10473 6.86435 2.00378 7.47003 1.90284 8.2776C1.80189 8.88328 1.70094 9.48896 1.70094 10.0946C1.80189 12.0126 3.92176 12.6183 4.93123 12.8202ZM29.865 5.04732C29.865 4.94637 29.764 4.84543 29.6631 4.84543C29.6631 4.84543 29.5621 4.84543 29.3602 4.84543C28.8555 4.84543 27.947 4.94637 27.2404 5.653C26.7356 6.25867 26.4328 7.06625 26.5338 8.07571C26.6347 9.69085 26.2309 10.4984 26.2309 10.4984C26.2309 10.5994 26.2309 10.7003 26.2309 10.7003C26.2309 10.8013 26.3319 10.8013 26.4328 10.8013C26.4328 10.8013 26.5338 10.8013 26.7356 10.8013C27.3413 10.8013 29.1584 10.7003 29.4612 8.78233C29.5621 8.17666 29.4612 7.57098 29.4612 7.16719C29.3602 6.35962 29.3602 5.653 29.764 5.24921C29.865 5.24921 29.865 5.14826 29.865 5.04732ZM7.45489 7.67192C7.45489 7.77287 7.55583 7.87382 7.55583 7.87382H7.65678H7.75773C8.66624 7.26814 10.0795 5.75394 9.07003 4.03785C8.76719 3.53312 8.36341 3.12934 8.06057 2.72555C7.55583 2.11987 7.0511 1.5142 7.15205 1.00946C7.15205 0.908517 7.15205 0.807571 7.0511 0.706625C6.95016 0.706625 6.84921 0.605678 6.74826 0.706625C6.74826 0.706625 5.63785 1.41325 5.33501 2.72555C5.23407 3.53312 5.53691 4.44164 6.34448 5.24921C7.35394 6.56151 7.45489 7.67192 7.45489 7.67192ZM19.0637 6.86435C19.2656 6.86435 19.4675 6.76341 19.4675 6.56151C19.4675 6.56151 19.4675 6.56151 19.4675 6.46057C19.4675 6.35962 19.4675 5.4511 19.9722 4.1388C20.2751 3.12934 20.2751 2.32177 19.8713 1.61514C19.2656 0.605678 18.0543 0 18.0543 0C18.0543 0 17.7514 0.100946 17.6505 0.100946C17.5495 0.100946 17.5495 0.201893 17.5495 0.302839C17.4486 1.21136 17.2467 1.81703 16.9438 2.32177C16.742 2.72555 16.5401 3.12934 16.4391 3.73502C16.1363 5.95584 18.9628 6.86435 19.0637 6.86435Z" fill="url(#paint0_linear_3_20)"/>
<defs>
<linearGradient id="paint0_linear_3_20" x1="29.865" y1="0" x2="-5.53283" y2="17.8744" gradientUnits="userSpaceOnUse">
<stop stop-color="#FE7E27"/>
<stop offset="1" stop-color="#C748F3"/>
</linearGradient>
</defs>
</svg>
